<?xml version="1.0" encoding="UTF-8"?>
<svg width="140px" height="140px" viewBox="0 0 140 140" version="1.1" xmlns="http://www.w3.org/2000/svg" xmlns:xlink="http://www.w3.org/1999/xlink">
    <title>noun_control_196590</title>
    <g id="PECSS-Copy" stroke="none" stroke-width="1" fill="none" fill-rule="evenodd">
        <g id="Artboard-Copy" transform="translate(-1030.000000, -439.000000)" fill="#FFCC00" fill-rule="nonzero" stroke="#FFCC00" stroke-width="3">
            <g id="noun_control_196590" transform="translate(1032.000000, 441.000000)">
                <path d="M49.6162791,48.96 C39.7325581,48.96 31.627907,55.9718593 30.0465116,65.1262312 L0,65.1262312 L0,71.5537688 L30.0465116,71.5537688 C31.627907,80.7081407 39.7325581,87.72 49.6162791,87.72 C59.5,87.72 67.6046512,80.7081407 69.1860465,71.5537688 L136,71.5537688 L136,65.1262312 L69.1860465,65.1262312 C67.6046512,55.9718593 59.5,48.96 49.6162791,48.96 Z M49.98,80.92 C42.6573134,80.92 36.72,75.1349254 36.72,68 C36.72,60.8650746 42.6573134,55.08 49.98,55.08 C57.3026866,55.08 63.24,60.8650746 63.24,68 C63.24,75.1349254 57.3026866,80.92 49.98,80.92 Z M83.6162791,0 C73.7325581,0 65.627907,7.0118593 64.0465116,16.1662312 L0,16.1662312 L0,22.5937688 L64.0465116,22.5937688 C65.627907,31.7481407 73.7325581,38.76 83.6162791,38.76 C93.5,38.76 101.604651,31.7481407 103.186047,22.5937688 L136,22.5937688 L136,16.1662312 L103.186047,16.1662312 C101.604651,7.0118593 93.3023256,0 83.6162791,0 Z M83.3,32.64 C75.9773134,32.64 70.04,26.8549254 70.04,19.72 C70.04,12.5850746 75.9773134,6.8 83.3,6.8 C90.6226866,6.8 96.56,12.5850746 96.56,19.72 C96.56,26.8549254 90.6226866,32.64 83.3,32.64 Z M85.3953488,97.24 C75.5116279,97.24 67.4069767,104.251859 65.8255814,113.406231 L0,113.406231 L0,119.833769 L65.8255814,119.833769 C67.4069767,128.988141 75.5116279,136 85.3953488,136 C95.2790698,136 103.383721,128.988141 104.965116,119.833769 L136,119.833769 L136,113.406231 L104.965116,113.406231 C103.383721,104.251859 95.2790698,97.24 85.3953488,97.24 Z M85.34,129.88 C78.0173134,129.88 72.08,124.094925 72.08,116.96 C72.08,109.825075 78.0173134,104.04 85.34,104.04 C92.6626866,104.04 98.6,109.825075 98.6,116.96 C98.6,124.094925 92.6626866,129.88 85.34,129.88 Z" id="Shape"></path>
            </g>
        </g>
    </g>
</svg>