<?xml version="1.0" encoding="UTF-8"?>
<svg width="136px" height="136px" viewBox="0 0 136 136" version="1.1" xmlns="http://www.w3.org/2000/svg" xmlns:xlink="http://www.w3.org/1999/xlink">
    <title>noun_Transparency_1913849</title>
    <g id="PECSS-Copy" stroke="none" stroke-width="1" fill="none" fill-rule="evenodd">
        <g id="Artboard-Copy" transform="translate(-424.000000, -441.000000)" fill="#FFCC00" fill-rule="nonzero">
            <g id="noun_Transparency_1913849" transform="translate(424.000000, 441.000000)">
                <path d="M110.5,25.5 C110.5,11.4167389 99.0832611,0 85,0 L24.911715,0 C18.3047712,0 11.9683908,2.62440066 7.29652822,7.2961676 C2.62466564,11.9679345 0,18.3042612 0,24.911205 L0,85 C0,99.0832611 11.4167389,110.5 25.5,110.5 C25.5,124.583261 36.9167389,136 51,136 L111.088285,136 C117.69531,136 124.031755,133.3755 128.703627,128.703627 C133.3755,124.031755 136,117.69531 136,111.088285 L136,51 C136,36.9167389 124.583261,25.5 110.5,25.5 Z M25.5,51 L25.5,102 C16.1111593,102 8.5,94.3888407 8.5,85 L8.5,25.5 C8.5,16.1111593 16.1111593,8.5 25.5,8.5 L85,8.5 C94.3888407,8.5 102,16.1111593 102,25.5 L51,25.5 C36.9167389,25.5 25.5,36.9167389 25.5,51 Z M78.9905,102 L65.5095,102 L102,65.5095 L102,78.9905 L78.9905,102 Z M99.784475,93.225535 C98.2488624,95.9777513 95.9780063,98.2486074 93.22579,99.78422 L99.784475,93.225535 Z M53.4905,102 L40.0095,102 L102,40.0095 L102,53.4905 L53.4905,102 Z M57.0095,34 L70.4905,34 L34,70.4905 L34,57.0095 L57.0095,34 Z M36.21527,42.774975 C37.751353,40.0228099 40.0222999,37.751863 42.774465,36.21578 L36.21527,42.774975 Z M82.5095,34 L95.9905,34 L34,95.9905 L34,82.5095 L82.5095,34 Z M127.5,111.088285 C127.5,115.440949 125.770943,119.615346 122.693145,122.693145 C119.615346,125.770943 115.440949,127.5 111.088285,127.5 L51,127.5 C41.6156254,127.489227 34.0107735,119.884375 34,110.5 L85.588285,110.5 C92.1953103,110.50009 98.5317548,107.8755 103.203627,103.203627 C107.8755,98.5317548 110.50009,92.1953103 110.5,85.588285 L110.5,34 C119.884452,34.0105865 127.489414,41.6155478 127.5,51 L127.5,111.088285 Z" id="Shape"></path>
            </g>
        </g>
    </g>
</svg>