<?xml version="1.0" encoding="UTF-8"?>
<svg width="36px" height="41px" viewBox="0 0 36 41" version="1.1" xmlns="http://www.w3.org/2000/svg" xmlns:xlink="http://www.w3.org/1999/xlink">
    <!-- Generator: Sketch 61.2 (89653) - https://sketch.com -->
    <title>Group</title>
    <desc>Created with Sketch.</desc>
    <g id="Page-2" stroke="none" stroke-width="1" fill="none" fill-rule="evenodd">
        <g id="Desktop" transform="translate(-68.000000, -1510.000000)" fill-rule="nonzero">
            <g id="Group" transform="translate(68.000000, 1510.000000)">
                <path d="M37.8774904,19.9971639 L28.3357052,3.42234149 C28.1719554,3.13719423 27.8695338,3 27.5420342,3 L8.45791692,3 C8.13041732,3 7.82799582,3.13719423 7.66424601,3.42234149 L-1.87753921,20.0163255 C-2.04082026,20.3014728 -2.04082026,20.6426914 -1.87753921,20.9278387 L7.66424601,37.5399635 C7.82799582,37.8251893 8.13041732,38 8.45791692,38 L27.5419561,38 C27.8694557,38 28.1718772,37.8203203 28.335627,37.5351731 L37.8774123,20.9203782 C38.0408496,20.6352309 38.0408496,20.2823112 37.8774904,19.9971639 Z" id="Path" stroke="#BD7C01" transform="translate(18.000000, 20.500000) rotate(-90.000000) translate(-18.000000, -20.500000) "></path>
                <g id="internet" transform="translate(5.000000, 8.000000)" fill="#BD7C01">
                    <rect id="Rectangle" x="12" y="0" width="1" height="25"></rect>
                    <rect id="Rectangle" x="0" y="12" width="25" height="1"></rect>
                    <path d="M11.4574555,25 C7.69732103,20.9278497 5.86359612,16.5904756 6.00789787,12.1088639 C6.23546513,5.03728108 11.2619135,0.201774989 11.4759171,0 L11.9815384,0.584044012 C11.9314284,0.631335025 6.97430519,5.40851554 6.76105508,12.1431499 C6.62654926,16.4009174 8.38868845,20.5420338 12,24.4526065 L11.4574555,25 Z" id="Path"></path>
                    <path d="M13.5422016,25 L13,24.4526065 C16.6137982,20.5396693 18.3764244,16.3957943 18.2388959,12.1352681 C18.0218645,5.39432823 13.0681991,0.631335025 13.0184627,0.584044012 L13.5241157,0 C13.7377559,0.201774989 18.7645187,5.03728108 18.9921002,12.1088639 C19.136411,16.5904756 17.3029481,20.9278497 13.5422016,25 Z" id="Path"></path>
                    <path d="M11.9564641,9 C6.60572527,9 3.14472202,4.60297713 3,4.41564792 L3.65164668,4.00359557 C3.68464648,4.0460233 7.02557816,8.28088595 11.9568617,8.28088595 C16.9008681,8.28088595 20.3201246,4.04278729 20.3539196,4 L21,4.41924349 C20.8513021,4.60621315 17.3040223,9 11.9564641,9 Z" id="Path"></path>
                    <path d="M20.3543029,21 C20.3205072,20.9575753 16.8912352,16.7194219 11.9570596,16.7194219 C7.02606468,16.7194219 3.6846616,20.95398 3.65166107,20.9964047 L3,20.5840224 C3.14472522,20.3967067 6.60580491,16 11.956662,16 C17.3043382,16 20.8516964,20.3934709 21,20.5804271 L20.3543029,21 Z" id="Path"></path>
                    <path d="M12.5,0.78125 C18.9617188,0.78125 24.21875,6.03828125 24.21875,12.5 C24.21875,18.9617188 18.9617188,24.21875 12.5,24.21875 C6.03828125,24.21875 0.78125,18.9617188 0.78125,12.5 C0.78125,6.03828125 6.03828125,0.78125 12.5,0.78125 M12.5,0 C5.59648438,0 0,5.59648438 0,12.5 C0,19.4035156 5.59648438,25 12.5,25 C19.4035156,25 25,19.4035156 25,12.5 C25,5.59648437 19.4035156,0 12.5,0 L12.5,0 Z" id="Shape"></path>
                </g>
            </g>
        </g>
    </g>
</svg>