<?xml version="1.0" encoding="UTF-8"?>
<svg width="36px" height="41px" viewBox="0 0 36 41" version="1.1" xmlns="http://www.w3.org/2000/svg" xmlns:xlink="http://www.w3.org/1999/xlink">
    <!-- Generator: Sketch 61.2 (89653) - https://sketch.com -->
    <title>Group 2</title>
    <desc>Created with Sketch.</desc>
    <g id="Page-2" stroke="none" stroke-width="1" fill="none" fill-rule="evenodd">
        <g id="Desktop" transform="translate(-113.000000, -1510.000000)" fill-rule="nonzero">
            <g id="Group-2" transform="translate(113.000000, 1510.000000)">
                <path d="M37.8774904,19.9971639 L28.3357052,3.42234149 C28.1719554,3.13719423 27.8695338,3 27.5420342,3 L8.45791692,3 C8.13041732,3 7.82799582,3.13719423 7.66424601,3.42234149 L-1.87753921,20.0163255 C-2.04082026,20.3014728 -2.04082026,20.6426914 -1.87753921,20.9278387 L7.66424601,37.5399635 C7.82799582,37.8251893 8.13041732,38 8.45791692,38 L27.5419561,38 C27.8694557,38 28.1718772,37.8203203 28.335627,37.5351731 L37.8774123,20.9203782 C38.0408496,20.6352309 38.0408496,20.2823112 37.8774904,19.9971639 Z" id="Path" stroke="#BD7C01" transform="translate(18.000000, 20.500000) rotate(-90.000000) translate(-18.000000, -20.500000) "></path>
                <g id="support" transform="translate(8.000000, 10.000000)" fill="#BD7C01">
                    <path d="M0.0478366167,2.05755836 L1.54571361,4.67920657 C1.59623846,4.76779659 1.68080596,4.83188954 1.7796991,4.85669474 L3.17714254,5.20612458 L7.97007166,10 L8.49965838,9.47046278 L3.63171217,4.60170955 C3.58380598,4.55363984 3.52373072,4.51959047 3.45795598,4.50310501 L2.11519645,4.1661548 L0.839906064,1.93276197 L1.93327619,0.83917601 L4.16715237,2.1159507 L4.50419009,3.45897538 C4.52051827,3.52491717 4.55471494,3.58515835 4.60262114,3.63307401 L9.47056731,8.50198133 L10,7.97229005 L5.20707088,3.17841462 L4.85771002,1.78146565 C4.83290972,1.68239889 4.76882943,1.59766063 4.68025689,1.5469717 L2.05897216,0.0489530339 C1.91278895,-0.0342445073 1.72886619,-0.00959337232 1.60963984,0.109194255 L0.111916916,1.60736699 C-0.00854173527,1.72584653 -0.0347283841,1.91011373 0.0478366167,2.05755836 Z" id="Path"></path>
                    <polygon id="Path" points="15 6.54347558 6.54363369 15 6 14.4563663 14.4565244 6"></polygon>
                    <path d="M4.87762073,15.1616729 C4.81297474,15.0612958 4.69690582,15 4.57143381,15 L2.42856619,15 C2.30324113,15 2.18702526,15.0612958 2.12252619,15.1616729 L1.05101892,16.8283168 C0.982993695,16.9339047 0.982993695,17.0659582 1.05101892,17.1716832 L2.12252619,18.838327 C2.18702526,18.938567 2.30324113,19 2.42856619,19 L4.57143381,19 C4.69690582,19 4.81297474,18.938567 4.87762073,18.838327 L5.94898108,17.1716832 C6.01700631,17.0659582 6.01700631,16.9339047 5.94898108,16.8283168 L4.87762073,15.1616729 Z M4.36941512,18.3332876 L2.63073183,18.3332876 L1.77358475,17 L2.63073183,15.6665752 L4.36941512,15.6665752 L5.22656216,17 L4.36941512,18.3332876 Z" id="Shape"></path>
                    <path d="M16.7928241,8.39684614 C19.1034529,8.40461756 20.9830426,6.53775449 20.9908143,4.22720202 C20.9919656,3.87547419 20.9487897,3.52518553 20.8622941,3.18425133 C20.8156641,2.99673031 20.6258342,2.88260586 20.438307,2.92923423 C20.3767095,2.94463312 20.3205808,2.97643829 20.2756779,3.02119581 L18.0978868,5.19747576 L16.3699884,4.62167253 L15.7937344,2.89426295 L17.9715255,0.716112113 C18.1081051,0.579393014 18.1079612,0.35790813 17.9712376,0.221332937 C17.9261908,0.176287607 17.8694865,0.144338535 17.8074571,0.129083545 C15.5666293,-0.438372607 13.2902534,0.918024618 12.7227785,3.15863447 C12.6365706,3.4985613 12.5935387,3.84798645 12.5946901,4.1987069 C12.5955536,4.47415985 12.6239057,4.74874933 12.6797465,5.01844573 L5.01789997,12.6798952 C4.7481947,12.6242001 4.47359611,12.5958489 4.19827797,12.5948415 C1.87958964,12.5948415 0,14.4743691 0,16.7929808 C0,19.1114486 1.87958964,20.9909761 4.19827797,20.9909761 C6.51682238,20.9909761 8.39641206,19.1114486 8.39641206,16.7929808 C8.39554852,16.5175278 8.36705246,16.2429383 8.31135558,15.973242 L10.1456106,14.1390476 L10.9478183,14.9412288 C11.0845419,15.0778039 11.3058902,15.0778039 11.4426138,14.9412288 L11.6174761,14.7662284 C11.7708944,14.6138225 12.0188678,14.6138225 12.1722861,14.7662284 C12.3255604,14.9190659 12.3258483,15.1671751 12.1730057,15.3204443 C12.1728618,15.3205882 12.1725739,15.3208761 12.1722861,15.3211639 L11.9974238,15.4960204 C11.8608441,15.6325956 11.8608441,15.8540805 11.9974238,15.9906557 L16.1708037,20.1638977 C17.2684783,21.2716101 19.0562473,21.2796693 20.1639963,20.1820309 C21.2716014,19.0843926 21.2796609,17.2965387 20.1819862,16.1889703 C20.1760855,16.1829259 20.1700409,16.1768815 20.1639963,16.170837 L15.9906164,11.9977389 C15.8540367,11.8611637 15.6325445,11.8611637 15.4959648,11.9977389 L15.3211025,12.1725955 C15.1675403,12.3251451 14.9197108,12.3251451 14.7661486,12.1725955 C14.6130182,12.0197579 14.6125864,11.7716487 14.765429,11.6185234 C14.7657169,11.6182355 14.7660047,11.6180916 14.7661486,11.6178038 L14.9411549,11.4428034 C15.0777345,11.3062282 15.0777345,11.0847433 14.9411549,10.9481681 L14.1389471,10.1459869 L15.9732021,8.31179251 C16.2429074,8.36748756 16.517506,8.39598267 16.7928241,8.39684614 Z M18.1674,20.2914075 C17.913238,20.2909744 17.6612348,20.2450656 17.4233358,20.1556945 L20.155649,17.4233277 C20.5679786,18.5201026 20.0131686,19.7433786 18.9163575,20.1556945 C18.6770192,20.2456413 18.423289,20.291694 18.1674,20.2914075 Z M14.2039988,11.1990117 C13.8165673,11.6611222 13.8773013,12.3498985 14.3394271,12.7371733 C14.7455681,13.0775319 15.3375093,13.077244 15.7432186,12.7361659 L19.6693447,16.6656162 C19.7119449,16.7083589 19.7518106,16.7534042 19.7903811,16.7991691 L16.7991566,19.7902948 C16.7532462,19.7518695 16.7081994,19.7120051 16.6654553,19.6692624 L12.7363069,15.739956 C13.1237384,15.2778456 13.0630043,14.5890692 12.6008786,14.2017944 C12.1947375,13.861292 11.6026524,13.8617237 11.1969431,14.2026579 L10.6372399,13.6429732 L13.6441516,10.6406221 L14.2039988,11.1990117 Z M15.6167133,7.68043818 L7.68026824,15.615038 C7.59319691,15.7019625 7.55822444,15.8281758 7.58787185,15.9474812 C8.06784365,17.8323336 6.92886414,19.749423 5.04380549,20.229235 C3.1588908,20.7091909 1.24173808,19.570249 0.761766314,17.6852527 C0.281938425,15.8004003 1.42091798,13.8833109 3.30597659,13.403355 C3.87618597,13.2582889 4.47359611,13.2582889 5.04380549,13.403355 C5.16311481,13.4325697 5.28904445,13.3975984 5.3762597,13.3111056 L13.3108339,5.3763619 C13.3977613,5.28943731 13.4327337,5.16322402 13.4027985,5.04406255 C12.9261368,3.18122909 14.0498609,1.28471958 15.9127559,0.807929788 C16.2647832,0.717982997 16.6288997,0.683443439 16.991577,0.706038057 L15.1460963,2.55217743 C15.0524047,2.64572205 15.019591,2.78431203 15.0614716,2.90994966 L15.7610647,5.00909127 C15.7960371,5.11342951 15.8780713,5.19546094 15.9825569,5.23014444 L18.0817679,5.92985828 C18.2072657,5.97173751 18.3458603,5.93906883 18.4395519,5.84552418 L20.2850327,4.00010445 C20.2892063,4.06688092 20.2914112,4.13293784 20.2914112,4.1987069 C20.3011516,6.12097717 18.75085,7.68720218 16.8285162,7.6971323 C16.5313223,7.69857147 16.2351357,7.66201708 15.9472966,7.58833269 C15.8279873,7.55854232 15.7017698,7.59336972 15.6148424,7.68029427 L15.6167133,7.68029427 L15.6167133,7.68043818 Z" id="Shape"></path>
                    <polygon id="Path" points="19 18.504361 18.504361 19 15 15.495639 15.4954948 15"></polygon>
                </g>
            </g>
        </g>
    </g>
</svg>