<?xml version="1.0" encoding="UTF-8"?>
<svg width="36px" height="41px" viewBox="0 0 36 41" version="1.1" xmlns="http://www.w3.org/2000/svg" xmlns:xlink="http://www.w3.org/1999/xlink">
    <!-- Generator: Sketch 61.2 (89653) - https://sketch.com -->
    <title>Group 3</title>
    <desc>Created with Sketch.</desc>
    <g id="Page-2" stroke="none" stroke-width="1" fill="none" fill-rule="evenodd">
        <g id="Desktop" transform="translate(-158.000000, -1510.000000)" fill-rule="nonzero">
            <g id="Group-3" transform="translate(158.000000, 1510.000000)">
                <path d="M37.8774904,19.9971639 L28.3357052,3.42234149 C28.1719554,3.13719423 27.8695338,3 27.5420342,3 L8.45791692,3 C8.13041732,3 7.82799582,3.13719423 7.66424601,3.42234149 L-1.87753921,20.0163255 C-2.04082026,20.3014728 -2.04082026,20.6426914 -1.87753921,20.9278387 L7.66424601,37.5399635 C7.82799582,37.8251893 8.13041732,38 8.45791692,38 L27.5419561,38 C27.8694557,38 28.1718772,37.8203203 28.335627,37.5351731 L37.8774123,20.9203782 C38.0408496,20.6352309 38.0408496,20.2823112 37.8774904,19.9971639 Z" id="Path" stroke="#BD7C01" transform="translate(18.000000, 20.500000) rotate(-90.000000) translate(-18.000000, -20.500000) "></path>
                <g id="construction-and-tools" transform="translate(7.000000, 10.000000)" fill="#BD7C01">
                    <path d="M16.6613049,10.203705 L20.2982756,10.203705 C20.4541887,10.5972257 20.8677077,10.8244646 21.2834826,10.7451006 C21.6992576,10.6657365 22,10.3021578 22,9.87887602 C22,9.45559424 21.6992576,9.09201554 21.2834826,9.01265148 C20.8677077,8.93328743 20.4541887,9.16052631 20.2982756,9.55404705 L16.6613049,9.55404705 L16.6613049,7.95960086 L19.0056419,7.95960086 C19.1849976,7.95949846 19.3303685,7.81412755 19.3304709,7.6347719 L19.3304709,5.49461304 L20.2982756,5.49461304 C20.4541887,5.88813379 20.8677077,6.11537267 21.2834826,6.03600861 C21.6992576,5.95664456 22,5.59306586 22,5.16978408 C22,4.74650229 21.6992576,4.38292359 21.2834826,4.30355954 C20.8677077,4.22419548 20.4541887,4.45143437 20.2982756,4.84495511 L19.0056419,4.84495511 C18.8262863,4.84505751 18.6809154,4.99042842 18.680813,5.16978408 L18.680813,7.30994293 L16.6613049,7.30994293 L16.6613049,5.66352411 C16.6612025,5.48416845 16.5158315,5.33879754 16.3364759,5.33869514 L14.6900571,5.33869514 L14.6900571,3.31918704 L16.8302159,3.31918704 C17.0095716,3.31908464 17.1549425,3.17371373 17.1550449,2.99435808 L17.1550449,1.7017244 C17.5483482,1.54582151 17.7754221,1.13248016 17.696062,0.716914049 C17.6167019,0.301347937 17.2532918,0.000770554891 16.8302159,0.000770554891 C16.40714,0.000770554891 16.04373,0.301347937 15.9643698,0.716914049 C15.8850097,1.13248016 16.1120836,1.54582151 16.505387,1.7017244 L16.505387,2.66952911 L14.3652281,2.66952911 C14.1858725,2.66963151 14.0405015,2.81500243 14.0403991,2.99435808 L14.0403991,5.33869514 L12.4459529,5.33869514 L12.4459529,1.70191002 C12.8392563,1.54600713 13.0663302,1.13266578 12.9869701,0.717099666 C12.90761,0.301533554 12.5441999,0.000956171444 12.121124,0.000956171444 C11.6980481,0.000956171444 11.334638,0.301533554 11.2552779,0.717099666 C11.1759178,1.13266578 11.4029917,1.54600713 11.796295,1.70191002 L11.796295,5.33869514 L10.203705,5.33869514 L10.203705,1.7017244 C10.5972257,1.54581131 10.8244646,1.13229232 10.7451006,0.716517361 C10.6657365,0.300742403 10.3021578,0 9.87887602,0 C9.45559424,0 9.09201554,0.300742403 9.01265148,0.716517361 C8.93328743,1.13229232 9.16052631,1.54581131 9.55404705,1.7017244 L9.55404705,5.33869514 L7.95960086,5.33869514 L7.95960086,2.99435808 C7.95949846,2.81500243 7.81412755,2.66963151 7.6347719,2.66952911 L5.49461304,2.66952911 L5.49461304,1.7017244 C5.88813379,1.54581131 6.11537267,1.13229232 6.03600861,0.716517361 C5.95664456,0.300742403 5.59306586,0 5.16978408,0 C4.74650229,0 4.38292359,0.300742403 4.30355954,0.716517361 C4.22419548,1.13229232 4.45143437,1.54581131 4.84495511,1.7017244 L4.84495511,2.99435808 C4.84505751,3.17371373 4.99042842,3.31908464 5.16978408,3.31918704 L7.30994293,3.31918704 L7.30994293,5.33869514 L5.66352411,5.33869514 C5.48416845,5.33879754 5.33879754,5.48416845 5.33869514,5.66352411 L5.33869514,7.30994293 L3.31918704,7.30994293 L3.31918704,5.16978408 C3.31908464,4.99042842 3.17371373,4.84505751 2.99435808,4.84495511 L1.70191002,4.84495511 C1.54600202,4.45154307 1.13257185,4.22438667 0.716901319,4.30374876 C0.301230783,4.38311085 0.000570890698,4.74660523 0.000570890698,5.16978408 C0.000570890698,5.59296292 0.301230783,5.9564573 0.716901319,6.03581939 C1.13257185,6.11518149 1.54600202,5.88802508 1.70191002,5.49461304 L2.66952911,5.49461304 L2.66952911,7.6347719 C2.66963151,7.81412755 2.81500243,7.95949846 2.99435808,7.95960086 L5.33869514,7.95960086 L5.33869514,9.55404705 L1.70191002,9.55404705 C1.54600713,9.16074372 1.13266578,8.9336698 0.717099666,9.01302992 C0.301533554,9.09239005 0.000956171444,9.45580011 0.000956171444,9.87887602 C0.000956171444,10.3019519 0.301533554,10.665362 0.717099666,10.7447221 C1.13266578,10.8240822 1.54600713,10.5970083 1.70191002,10.203705 L5.33869514,10.203705 L5.33869514,11.796295 L1.7017244,11.796295 C1.54581131,11.4027743 1.13229232,11.1755354 0.716517361,11.2548994 C0.300742403,11.3342635 0,11.6978422 0,12.121124 C0,12.5444058 0.300742403,12.9079845 0.716517361,12.9873485 C1.13229232,13.0667126 1.54581131,12.8394737 1.7017244,12.4459529 L5.33869514,12.4459529 L5.33869514,14.0403991 L2.99435808,14.0403991 C2.81500243,14.0405015 2.66963151,14.1858725 2.66952911,14.3652281 L2.66952911,16.505387 L1.7017244,16.505387 C1.54581131,16.1118662 1.13229232,15.8846273 0.716517361,15.9639914 C0.300742403,16.0433554 0,16.4069341 0,16.8302159 C0,17.2534977 0.300742403,17.6170764 0.716517361,17.6964405 C1.13229232,17.7758045 1.54581131,17.5485656 1.7017244,17.1550449 L2.99435808,17.1550449 C3.17371373,17.1549425 3.31908464,17.0095716 3.31918704,16.8302159 L3.31918704,14.6900571 L5.33869514,14.6900571 L5.33869514,16.3364759 C5.33879754,16.5158315 5.48416845,16.6612025 5.66352411,16.6613049 L7.30994293,16.6613049 L7.30994293,18.680813 L5.16978408,18.680813 C4.99042842,18.6809154 4.84505751,18.8262863 4.84495511,19.0056419 L4.84495511,20.2982756 C4.45165178,20.4541785 4.22457785,20.8675198 4.30393798,21.283086 C4.38329811,21.6986521 4.74670817,21.9992294 5.16978408,21.9992294 C5.59285998,21.9992294 5.95627005,21.6986521 6.03563017,21.283086 C6.1149903,20.8675198 5.88791638,20.4541785 5.49461304,20.2982756 L5.49461304,19.3304709 L7.6347719,19.3304709 C7.81412755,19.3303685 7.95949846,19.1849976 7.95960086,19.0056419 L7.95960086,16.6613049 L9.55404705,16.6613049 L9.55404705,20.29809 C9.16074372,20.4539929 8.9336698,20.8673342 9.01302992,21.2829003 C9.09239005,21.6984664 9.45580011,21.9990438 9.87887602,21.9990438 C10.3019519,21.9990438 10.665362,21.6984664 10.7447221,21.2829003 C10.8240822,20.8673342 10.5970083,20.4539929 10.203705,20.29809 L10.203705,16.6613049 L11.796295,16.6613049 L11.796295,20.2982756 C11.4027743,20.4541887 11.1755354,20.8677077 11.2548994,21.2834826 C11.3342635,21.6992576 11.6978422,22 12.121124,22 C12.5444058,22 12.9079845,21.6992576 12.9873485,21.2834826 C13.0667126,20.8677077 12.8394737,20.4541887 12.4459529,20.2982756 L12.4459529,16.6613049 L14.0403991,16.6613049 L14.0403991,19.0056419 C14.0405015,19.1849976 14.1858725,19.3303685 14.3652281,19.3304709 L16.505387,19.3304709 L16.505387,20.2982756 C16.1119749,20.4541836 15.8848185,20.8676138 15.9641806,21.2832843 C16.0435427,21.6989548 16.4070371,21.9996147 16.8302159,21.9996147 C17.2533948,21.9996147 17.6168892,21.6989548 17.6962512,21.2832843 C17.7756133,20.8676138 17.5484569,20.4541836 17.1550449,20.2982756 L17.1550449,19.0056419 C17.1549425,18.8262863 17.0095716,18.6809154 16.8302159,18.680813 L14.6900571,18.680813 L14.6900571,16.6613049 L16.3364759,16.6613049 C16.5158315,16.6612025 16.6612025,16.5158315 16.6613049,16.3364759 L16.6613049,14.6900571 L18.680813,14.6900571 L18.680813,16.8302159 C18.6809154,17.0095716 18.8262863,17.1549425 19.0056419,17.1550449 L20.2982756,17.1550449 C20.4541785,17.5483482 20.8675198,17.7754221 21.283086,17.696062 C21.6986521,17.6167019 21.9992294,17.2532918 21.9992294,16.8302159 C21.9992294,16.40714 21.6986521,16.04373 21.283086,15.9643698 C20.8675198,15.8850097 20.4541785,16.1120836 20.2982756,16.505387 L19.3304709,16.505387 L19.3304709,14.3652281 C19.3303685,14.1858725 19.1849976,14.0405015 19.0056419,14.0403991 L16.6613049,14.0403991 L16.6613049,12.4459529 L20.29809,12.4459529 C20.4539929,12.8392563 20.8673342,13.0663302 21.2829003,12.9869701 C21.6984664,12.90761 21.9990438,12.5441999 21.9990438,12.121124 C21.9990438,11.6980481 21.6984664,11.334638 21.2829003,11.2552779 C20.8673342,11.1759178 20.4539929,11.4029917 20.29809,11.796295 L16.6613049,11.796295 L16.6613049,10.203705 Z M21.1161021,9.64685533 C21.2442436,9.64685533 21.3481228,9.75073453 21.3481228,9.87887602 C21.3481228,10.0070175 21.2442436,10.1108967 21.1161021,10.1108967 C20.9879606,10.1108967 20.8840814,10.0070175 20.8840814,9.87887602 C20.8840814,9.75067434 20.9879006,9.64668889 21.1161021,9.6464841 L21.1161021,9.64685533 Z M21.1161021,4.937949 C21.2442436,4.937949 21.3481228,5.0418282 21.3481228,5.16996969 C21.3481228,5.29811118 21.2442436,5.40199038 21.1161021,5.40199038 C20.9879606,5.40199038 20.8840814,5.29811118 20.8840814,5.16996969 C20.8840814,5.04176801 20.9879006,4.93778256 21.1161021,4.93757777 L21.1161021,4.937949 Z M16.8304015,0.651877181 C16.958543,0.651877181 17.0624222,0.755756383 17.0624222,0.883897872 C17.0624222,1.01203936 16.958543,1.11591856 16.8304015,1.11591856 C16.7022601,1.11591856 16.5983808,1.01203936 16.5983808,0.883897872 C16.5985852,0.755841144 16.7023448,0.652081582 16.8304015,0.651877181 L16.8304015,0.651877181 Z M12.1214952,0.651877181 C12.2496367,0.651877181 12.3535159,0.755756383 12.3535159,0.883897872 C12.3535159,1.01203936 12.2496367,1.11591856 12.1214952,1.11591856 C11.9933537,1.11591856 11.8894745,1.01203936 11.8894745,0.883897872 C11.8896789,0.755841144 11.9934385,0.652081582 12.1214952,0.651877181 L12.1214952,0.651877181 Z M9.87850479,0.651877181 C10.0066463,0.651877181 10.1105255,0.755756383 10.1105255,0.883897872 C10.1105255,1.01203936 10.0066463,1.11591856 9.87850479,1.11591856 C9.7503633,1.11591856 9.6464841,1.01203936 9.6464841,0.883897872 C9.64658645,0.755798804 9.75040572,0.651979537 9.87850479,0.651877181 L9.87850479,0.651877181 Z M5.16959846,0.651877181 C5.29773995,0.651877181 5.40161915,0.755756383 5.40161915,0.883897872 C5.40161915,1.01203936 5.29773995,1.11591856 5.16959846,1.11591856 C5.04145697,1.11591856 4.93757777,1.01203936 4.93757777,0.883897872 C4.93768013,0.755798804 5.04149939,0.651979537 5.16959846,0.651877181 Z M0.883897872,5.40161915 C0.790054262,5.40161915 0.705451099,5.34508912 0.669538704,5.25838893 C0.63362631,5.17168874 0.653477015,5.07189251 0.719834468,5.00553506 C0.786191921,4.9391776 0.885988156,4.9193269 0.972688346,4.95523929 C1.05938854,4.99115169 1.11591856,5.07575485 1.11591856,5.16959846 C1.11581621,5.29769753 1.01199694,5.40151679 0.883897872,5.40161915 Z M0.883897872,10.1105255 C0.790054262,10.1105255 0.705451099,10.0539955 0.669538704,9.96729526 C0.63362631,9.88059507 0.653477015,9.78079884 0.719834468,9.71444138 C0.786191921,9.64808393 0.885988156,9.62823323 0.972688346,9.66414562 C1.05938854,9.70005801 1.11591856,9.78466118 1.11591856,9.87850479 C1.11581621,10.0066039 1.01199694,10.1104231 0.883897872,10.1105255 Z M0.883897872,12.3535159 C0.790054262,12.3535159 0.705451099,12.2969859 0.669538704,12.2102857 C0.63362631,12.1235855 0.653477015,12.0237893 0.719834468,11.9574318 C0.786191921,11.8910744 0.885988156,11.8712236 0.972688346,11.907136 C1.05938854,11.9430484 1.11591856,12.0276516 1.11591856,12.1214952 C1.11571416,12.2495519 1.0119546,12.3533115 0.883897872,12.3535159 L0.883897872,12.3535159 Z M0.883897872,17.0624222 C0.790054262,17.0624222 0.705451099,17.0058922 0.669538704,16.919192 C0.63362631,16.8324918 0.653477015,16.7326956 0.719834468,16.6663381 C0.786191921,16.5999807 0.885988156,16.58013 0.972688346,16.6160424 C1.05938854,16.6519548 1.11591856,16.7365579 1.11591856,16.8304015 C1.11571416,16.9584583 1.0119546,17.0622178 0.883897872,17.0624222 Z M5.16959846,21.3481228 C5.04145697,21.3481228 4.93757777,21.2442436 4.93757777,21.1161021 C4.93757777,20.9879606 5.04145697,20.8840814 5.16959846,20.8840814 C5.29773995,20.8840814 5.40161915,20.9879606 5.40161915,21.1161021 C5.40141475,21.2441589 5.29765519,21.3479184 5.16959846,21.3481228 L5.16959846,21.3481228 Z M9.87850479,21.3481228 C9.7503633,21.3481228 9.6464841,21.2442436 9.6464841,21.1161021 C9.6464841,20.9879606 9.7503633,20.8840814 9.87850479,20.8840814 C10.0066463,20.8840814 10.1105255,20.9879606 10.1105255,21.1161021 C10.1103211,21.2441589 10.0065615,21.3479184 9.87850479,21.3481228 L9.87850479,21.3481228 Z M12.1214952,21.3481228 C11.9933537,21.3481228 11.8894745,21.2442436 11.8894745,21.1161021 C11.8894745,20.9879606 11.9933537,20.8840814 12.1214952,20.8840814 C12.2496367,20.8840814 12.3535159,20.9879606 12.3535159,21.1161021 C12.3534135,21.2442012 12.2495943,21.3480205 12.1214952,21.3481228 L12.1214952,21.3481228 Z M16.8304015,21.3481228 C16.7022601,21.3481228 16.5983808,21.2442436 16.5983808,21.1161021 C16.5983808,20.9879606 16.7022601,20.8840814 16.8304015,20.8840814 C16.958543,20.8840814 17.0624222,20.9879606 17.0624222,21.1161021 C17.0623199,21.2442012 16.9585006,21.3480205 16.8304015,21.3481228 L16.8304015,21.3481228 Z M21.1161021,16.5983808 C21.2442436,16.5983808 21.3481228,16.7022601 21.3481228,16.8304015 C21.3481228,16.958543 21.2442436,17.0624222 21.1161021,17.0624222 C20.9879606,17.0624222 20.8840814,16.958543 20.8840814,16.8304015 C20.8841838,16.7023025 20.9880031,16.5984832 21.1161021,16.5983808 Z M21.1161021,11.8894745 C21.2442436,11.8894745 21.3481228,11.9933537 21.3481228,12.1214952 C21.3481228,12.2496367 21.2442436,12.3535159 21.1161021,12.3535159 C20.9879606,12.3535159 20.8840814,12.2496367 20.8840814,12.1214952 C20.8841838,11.9933961 20.9880031,11.8895769 21.1161021,11.8894745 Z M16.0116469,16.0116469 L5.98835307,16.0116469 L5.98835307,5.98835307 L16.0116469,5.98835307 L16.0116469,16.0116469 Z" id="Shape"></path>
                    <path d="M13.6744186,8 L6.3255814,8 C6.14581029,8.00010264 6.00010264,8.14581029 6,8.3255814 L6,15.6744186 C6.00010264,15.8541897 6.14581029,15.9998974 6.3255814,16 L13.6744186,16 C13.8541897,15.9998974 13.9998974,15.8541897 14,15.6744186 L14,8.3255814 C13.9998974,8.14581029 13.8541897,8.00010264 13.6744186,8 Z M13.3488372,15.3488372 L6.65116279,15.3488372 L6.65116279,8.65116279 L13.3488372,8.65116279 L13.3488372,15.3488372 Z" id="Shape"></path>
                    <path d="M14.5,11 C14.7760771,10.9999175 14.9998424,10.8828067 15,10.7383178 L15,9.26168224 C15,9.11715913 14.7761424,9 14.5,9 C14.2238576,9 14,9.11715913 14,9.26168224 L14,10.7383178 C14.0001576,10.8828067 14.2239229,10.9999175 14.5,11 Z" id="Path"></path>
                </g>
            </g>
        </g>
    </g>
</svg>