<?xml version="1.0" encoding="UTF-8"?>
<svg width="36px" height="41px" viewBox="0 0 36 41" version="1.1" xmlns="http://www.w3.org/2000/svg" xmlns:xlink="http://www.w3.org/1999/xlink">
    <!-- Generator: Sketch 61.2 (89653) - https://sketch.com -->
    <title>Group 4</title>
    <desc>Created with Sketch.</desc>
    <g id="Page-2" stroke="none" stroke-width="1" fill="none" fill-rule="evenodd">
        <g id="Desktop" transform="translate(-203.000000, -1510.000000)" fill-rule="nonzero">
            <g id="Group-4" transform="translate(203.000000, 1510.000000)">
                <path d="M37.8774904,19.9971639 L28.3357052,3.42234149 C28.1719554,3.13719423 27.8695338,3 27.5420342,3 L8.45791692,3 C8.13041732,3 7.82799582,3.13719423 7.66424601,3.42234149 L-1.87753921,20.0163255 C-2.04082026,20.3014728 -2.04082026,20.6426914 -1.87753921,20.9278387 L7.66424601,37.5399635 C7.82799582,37.8251893 8.13041732,38 8.45791692,38 L27.5419561,38 C27.8694557,38 28.1718772,37.8203203 28.335627,37.5351731 L37.8774123,20.9203782 C38.0408496,20.6352309 38.0408496,20.2823112 37.8774904,19.9971639 Z" id="Path" stroke="#BD7C01" transform="translate(18.000000, 20.500000) rotate(-90.000000) translate(-18.000000, -20.500000) "></path>
                <g id="shout" transform="translate(7.000000, 10.000000)" fill="#BD7C01">
                    <path d="M6.75003105,13.9329402 C6.98908174,13.7950504 7.0709136,13.4889979 6.93302981,13.249937 C6.79495068,13.0110715 6.48910644,12.9290408 6.25005576,13.0669305 C6.01100507,13.2050155 5.92897787,13.511068 6.067057,13.7499336 C6.20494078,13.9889945 6.51098036,14.0710252 6.75003105,13.9329402 L6.75003105,13.9329402 Z" id="Path"></path>
                    <path d="M4.31972603,17.1270823 L6.58612683,21.0909571 C7.07519969,21.9472435 8.17534986,22.2642683 9.04537914,21.7564251 C9.90626691,21.2540846 10.2021366,20.1434328 9.70409803,19.2734785 L8.35396165,16.9119457 L9.52320086,16.2303247 C9.73837885,16.1046508 9.81221443,15.8268547 9.68792452,15.609588 L9.10268964,14.5860915 C9.17248183,14.5724236 9.63131722,14.4815407 17.7228181,12.8788438 C18.7231145,12.8239947 19.3224133,11.7193781 18.817167,10.8362883 L17.321469,8.22056766 L18.2772882,6.75881011 C18.3711649,6.61503066 18.3767905,6.43024747 18.291528,6.28114287 L17.391437,4.70702432 C17.3061745,4.55791973 17.1442636,4.47058703 16.9746176,4.48070483 L15.2431732,4.58561058 L13.5827515,1.68162102 C13.3422585,1.26093302 12.9113751,1.0062127 12.430389,1 C12.4245877,1 12.4189621,1 12.4131607,1 C11.9483482,1 11.5264306,1.2335972 11.2764444,1.62854687 L5.39737397,9.19063507 L1.57532771,11.4186838 C0.0720703845,12.2946733 -0.448646253,14.2419084 0.422262007,15.7638403 C1.21792834,17.1554832 2.89540249,17.7029101 4.31972603,17.1270823 L4.31972603,17.1270823 Z M8.92478104,19.7280701 C9.17336082,20.1622485 9.02621706,20.7178406 8.5949821,20.9693659 C8.16234076,21.2219562 7.61138664,21.0668163 7.36561961,20.6367206 L5.11539231,16.7008917 L6.67437796,15.7920637 C9.27866443,20.3472092 8.88294085,19.6551153 8.92478104,19.7280701 Z M7.90391619,16.1247089 L7.45387073,15.3376497 L8.23336351,14.8832356 L8.68340897,15.6702949 L7.90391619,16.1247089 Z M16.7510012,5.40462082 L17.3729781,6.49237436 L16.8183323,7.34049554 L15.7463099,5.4655052 L16.7510012,5.40462082 Z M12.0292157,2.12680475 C12.1499896,1.9272886 12.3416106,1.90669796 12.4193137,1.90882803 C12.4961378,1.90971554 12.687583,1.93385629 12.8030829,2.1358575 L18.0376742,11.2907023 C18.2081992,11.588734 18.0009322,11.9634481 17.6590031,11.9719684 C17.5976493,11.9733884 17.5693456,11.9845713 17.4121813,12.0142147 L11.87504,2.3304035 C11.9912431,2.17952387 12.006186,2.16496844 12.0292157,2.12680475 L12.0292157,2.12680475 Z M11.2760928,3.1007773 L16.4785128,12.1991754 L8.6269775,13.7541233 L6.23962698,9.57901709 L11.2760928,3.1007773 Z M1.20175483,15.3094263 C1.00415674,14.9641781 0.899732157,14.5722461 0.899732157,14.1756989 C0.899732157,13.3652088 1.3311429,12.6104556 2.02537317,12.2057431 L5.53309075,10.16088 L7.78331805,14.0961764 L4.27560047,16.141217 C3.20094114,16.7674563 1.82214952,16.3943397 1.20175483,15.3094263 Z" id="Shape"></path>
                    <path d="M4.93775665,14.1530633 C4.80958945,14.0067364 4.52570006,13.9565262 4.30380949,14.0410467 L3.5,14.3470899 C3.27847199,14.4314909 2.99403869,14.3811611 2.86605281,14.2350733 C2.73788561,14.0887464 2.45399622,14.0385362 2.23210565,14.1230567 C2.01021507,14.2075772 1.93407615,14.3947896 2.06224335,14.5411165 C2.44420691,14.9774672 3.29623772,15.1313256 3.96408484,14.8771663 L4.76789435,14.5711231 C4.98978493,14.4866026 5.06592385,14.2995097 4.93775665,14.1530633 L4.93775665,14.1530633 Z" id="Path"></path>
                    <path d="M19.2036051,3.89785972 C19.0124833,4.05590228 18.9436175,4.41402489 19.0500886,4.69772048 C19.1562502,4.98118632 19.3973578,5.08386806 19.5889439,4.9255958 L21.7963627,3.10213381 C21.9876393,2.94409125 22.0563503,2.58596864 21.9498792,2.3022731 C21.8435628,2.01834781 21.6023005,1.91635523 21.4111787,2.07439779 L19.2036051,3.89785972 Z" id="Path" transform="translate(20.500000, 3.500000) rotate(11.000000) translate(-20.500000, -3.500000) "></path>
                    <path d="M21.620576,6.35231626 L19.6441821,6.0113141 C19.3712315,5.96421718 19.0906879,6.06844805 19.0175547,6.244225 C18.9444215,6.42000199 19.1064734,6.6005401 19.379424,6.64763702 L21.3560178,6.98863919 C21.6305669,7.03612215 21.9097118,6.93021845 21.9824453,6.75572828 C22.0555785,6.57995129 21.8935266,6.39928451 21.620576,6.35231626 Z" id="Path"></path>
                    <path d="M17.3525827,0.379241662 L17.0113103,2.35585315 C16.9642293,2.62880614 17.0684248,2.90915248 17.2441422,2.98248613 C17.4197309,3.05542013 17.6003364,2.89396622 17.647546,2.62081337 L17.9886898,0.644201935 C18.0357707,0.371248894 17.9315752,0.090702801 17.7558578,0.0175689514 C17.5802691,-0.0555648981 17.3996636,0.106288672 17.3525827,0.379241662 L17.3525827,0.379241662 Z" id="Path"></path>
                </g>
            </g>
        </g>
    </g>
</svg>