<?xml version="1.0" encoding="UTF-8"?>
<svg width="36px" height="41px" viewBox="0 0 36 41" version="1.1" xmlns="http://www.w3.org/2000/svg" xmlns:xlink="http://www.w3.org/1999/xlink">
    <!-- Generator: Sketch 61.2 (89653) - https://sketch.com -->
    <title>Group 8</title>
    <desc>Created with Sketch.</desc>
    <g id="Page-2" stroke="none" stroke-width="1" fill="none" fill-rule="evenodd">
        <g id="Desktop" transform="translate(-248.000000, -1510.000000)" fill-rule="nonzero">
            <g id="Group-8" transform="translate(248.000000, 1510.000000)">
                <path d="M37.8774904,19.9971639 L28.3357052,3.42234149 C28.1719554,3.13719423 27.8695338,3 27.5420342,3 L8.45791692,3 C8.13041732,3 7.82799582,3.13719423 7.66424601,3.42234149 L-1.87753921,20.0163255 C-2.04082026,20.3014728 -2.04082026,20.6426914 -1.87753921,20.9278387 L7.66424601,37.5399635 C7.82799582,37.8251893 8.13041732,38 8.45791692,38 L27.5419561,38 C27.8694557,38 28.1718772,37.8203203 28.335627,37.5351731 L37.8774123,20.9203782 C38.0408496,20.6352309 38.0408496,20.2823112 37.8774904,19.9971639 Z" id="Path" stroke="#BD7C01" transform="translate(18.000000, 20.500000) rotate(-90.000000) translate(-18.000000, -20.500000) "></path>
                <g id="sell" transform="translate(7.000000, 10.000000)" fill="#BD7C01">
                    <path d="M3,16 C2.44770833,16 2,16.4477083 2,17 C2,17.5522917 2.44770833,18 3,18 C3.55229167,18 4,17.5522917 4,17 C4,16.4477083 3.55229167,16 3,16 Z M3,17.3333333 C2.81591667,17.3333333 2.66666667,17.1840833 2.66666667,17 C2.66666667,16.8159167 2.81591667,16.6666667 3,16.6666667 C3.18408333,16.6666667 3.33333333,16.8159167 3.33333333,17 C3.33333333,17.1840833 3.18408333,17.3333333 3,17.3333333 Z" id="Shape"></path>
                    <path d="M19.7704363,14.1154167 C19.4794409,13.6302083 18.9551575,13.3333333 18.3893749,13.3333333 L18.3190426,13.3333333 C18.0547968,13.3335 17.7946343,13.3985 17.561388,13.5226667 L14.999762,14.889 L14.999762,10.3333333 L16.1664101,10.3333333 C17.1789357,10.3333333 17.9997144,9.51254167 17.9997144,8.5 C17.9997144,7.48745833 17.1789357,6.66666667 16.1664101,6.66666667 L8.99985719,6.66666667 C8.07941346,6.66666667 7.33321697,5.92045833 7.33321697,5 C7.33321697,4.07954167 8.07941346,3.33333333 8.99985719,3.33333333 L10.1665053,3.33333333 L12.0664752,5.86666667 C12.1294325,5.95058333 12.2282226,6 12.3331376,6 L19.6663546,6 C19.850435,6 19.9996826,5.85075 19.9996826,5.66666667 L19.9996826,0.333333333 C19.9996826,0.14925 19.850435,0 19.6663546,0 L12.3331376,0 C12.2282226,0 12.1294325,0.0494166667 12.0664752,0.133333333 L10.1665053,2.66666667 L8.99985719,2.66666667 C7.71121097,2.66666667 6.66656088,3.71133333 6.66656088,5 C6.66656088,6.28866667 7.71121097,7.33333333 8.99985719,7.33333333 L16.1664101,7.33333333 C16.8107332,7.33333333 17.3330583,7.85566667 17.3330583,8.5 C17.3330583,9.14433333 16.8107332,9.66666667 16.1664101,9.66666667 L14.999762,9.66666667 L14.999762,8.33333333 C14.999762,8.14925 14.8505143,8 14.6664339,8 L5.3332487,8 C5.14916829,8 4.99992066,8.14925 4.99992066,8.33333333 L4.99992066,13.3333333 C4.74146643,13.4235833 4.4909704,13.5350833 4.25093254,13.6666667 L0,13.6666667 L0,14.3333333 L3.99993653,14.3333333 L3.99993653,19.3333333 L0,19.3333333 L0,20 L12.6304662,20 C12.9326281,20 13.2290817,19.9178333 13.4881193,19.7623333 L19.217695,16.3246667 C19.9803913,15.8672083 20.2278457,14.878125 19.7704363,14.1154167 Z M13.0039186,3.94279167 C13.5246187,3.75870833 13.7974894,3.18733333 13.6133673,2.66666667 C13.4292869,2.14595833 12.857921,1.87308333 12.3372626,2.05720833 C12.0524754,2.157875 11.828479,2.38191667 11.7278139,2.66666667 L10.9998254,2.66666667 L12.4998016,0.666666667 L19.3330265,0.666666667 L19.3330265,5.33333333 L12.4998016,5.33333333 L10.9998254,3.33333333 L11.7278139,3.33333333 C11.9118943,3.85404167 12.4832602,4.12691667 13.0039186,3.94279167 Z M12.3331376,3 C12.3331376,2.81591667 12.4823853,2.66666667 12.6664657,2.66666667 C12.8505461,2.66666667 12.9997937,2.81591667 12.9997937,3 C12.9997937,3.18408333 12.8505461,3.33333333 12.6664657,3.33333333 C12.4823853,3.33333333 12.3331376,3.18408333 12.3331376,3 Z M9.33318523,8.66666667 L10.6664974,8.66666667 L10.6664974,10 L9.33318523,10 L9.33318523,8.66666667 Z M5.66657675,8.66666667 L8.66652914,8.66666667 L8.66652914,10.3333333 C8.66652914,10.5174167 8.81577677,10.6666667 8.99985719,10.6666667 L10.9998254,10.6666667 C11.1839059,10.6666667 11.3331535,10.5174167 11.3331535,10.3333333 L11.3331535,8.66666667 L14.3331059,8.66666667 L14.3331059,15.2443333 L13.7871146,15.5353333 C13.9907363,14.7323333 13.5048274,13.9162917 12.7017984,13.7126667 C12.5813004,13.682125 12.457469,13.6666667 12.3331376,13.6666667 L9.0868558,13.6666667 C8.04299737,13.097625 6.83201659,12.9144583 5.66657675,13.1493333 L5.66657675,8.66666667 Z M18.8747005,15.753 L13.1451247,19.1906667 C12.9896689,19.284 12.8117967,19.3333333 12.6304662,19.3333333 L4.66659261,19.3333333 L4.66659261,14.2 C5.9822384,13.527125 7.54817189,13.5612917 8.83319316,14.291 C8.88406736,14.3195417 8.94152478,14.3341667 8.99985719,14.3333333 L12.3331376,14.3333333 C12.7933803,14.3333333 13.1664577,14.7064167 13.1664577,15.1666667 C13.1664577,15.6269167 12.7933803,16 12.3331376,16 L9.33318523,16 C9.14910482,16 8.99985719,16.14925 8.99985719,16.3333333 C8.99985719,16.5174167 9.14910482,16.6666667 9.33318523,16.6666667 L12.9997937,16.6666667 C13.0545428,16.66675 13.1084587,16.653375 13.1567912,16.6276667 L17.8750497,14.111 C18.0117558,14.03825 18.1642118,14.000125 18.3190426,14 L18.3893749,14 C18.9105333,13.9999583 19.3331099,14.4224167 19.3331099,14.9435833 C19.3331099,15.2752083 19.1591126,15.5824583 18.8747005,15.753 Z" id="Shape"></path>
                    <path d="M17.9960866,2.959825 C17.9701402,2.7315625 17.8159606,2.5312375 17.5877315,2.4292 L16.7107988,2.0344 C16.6717749,2.017225 16.6556157,1.9748125 16.6746903,1.9397125 C16.6876843,1.91575 16.7145054,1.9004125 16.7441169,1.9 L17.9995434,1.9 L17.9995434,1.3 L17.3331811,1.3 L17.3331811,1 L16.6668189,1 L16.6668189,1.3072 C16.2589635,1.344775 15.9621824,1.6729375 16.0039134,2.040175 C16.0298598,2.2684375 16.1840394,2.4687625 16.4122685,2.5708 L17.2892012,2.9656 C17.3282251,2.982775 17.3443843,3.0251875 17.3253097,3.0602875 C17.3123157,3.08425 17.2854946,3.0995875 17.2558831,3.1 L16.0004566,3.1 L16.0004566,3.7 L16.6668189,3.7 L16.6668189,4 L17.3331811,4 L17.3331811,3.6928 C17.7410365,3.655225 18.0378176,3.3270625 17.9960866,2.959825 Z" id="Path"></path>
                </g>
            </g>
        </g>
    </g>
</svg>