<?xml version="1.0" encoding="UTF-8"?>
<svg width="36px" height="41px" viewBox="0 0 36 41" version="1.1" xmlns="http://www.w3.org/2000/svg" xmlns:xlink="http://www.w3.org/1999/xlink">
    <!-- Generator: Sketch 61.2 (89653) - https://sketch.com -->
    <title>Group 9</title>
    <desc>Created with Sketch.</desc>
    <g id="Page-2" stroke="none" stroke-width="1" fill="none" fill-rule="evenodd">
        <g id="Desktop" transform="translate(-293.000000, -1510.000000)" fill-rule="nonzero">
            <g id="Group-9" transform="translate(293.000000, 1510.000000)">
                <path d="M37.8774904,19.9971639 L28.3357052,3.42234149 C28.1719554,3.13719423 27.8695338,3 27.5420342,3 L8.45791692,3 C8.13041732,3 7.82799582,3.13719423 7.66424601,3.42234149 L-1.87753921,20.0163255 C-2.04082026,20.3014728 -2.04082026,20.6426914 -1.87753921,20.9278387 L7.66424601,37.5399635 C7.82799582,37.8251893 8.13041732,38 8.45791692,38 L27.5419561,38 C27.8694557,38 28.1718772,37.8203203 28.335627,37.5351731 L37.8774123,20.9203782 C38.0408496,20.6352309 38.0408496,20.2823112 37.8774904,19.9971639 Z" id="Path" stroke="#BD7C01" transform="translate(18.000000, 20.500000) rotate(-90.000000) translate(-18.000000, -20.500000) "></path>
                <g id="joystick" transform="translate(5.000000, 12.000000)" fill="#BD7C01">
                    <path d="M25.9860252,11.7568391 C25.921257,10.2738503 25.6621842,8.62966707 25.2735749,7.0822005 C24.8849657,5.59921171 24.3992042,4.21293958 23.8162903,3.14905632 C21.5494031,-0.816326746 19.0882113,-0.203787898 16.141258,0.569945384 C15.202119,0.795617591 14.1982118,1.05352868 13.1619205,1.15024534 L12.8380795,1.15024534 C11.8017882,1.05352868 10.797881,0.795617591 9.85874203,0.569945384 C6.91178868,-0.171549011 4.45059687,-0.816326746 2.18370968,3.18129521 C1.60079583,4.24517847 1.08265018,5.6314506 0.726425052,7.11443939 C0.337815818,8.66190595 0.0787429963,10.3060892 0.0139747908,11.789078 C-0.0507934147,13.4332612 0.111127099,14.6261 0.46735223,15.4643111 C0.82357736,16.2380443 1.341723,16.7216276 2.02178916,16.915061 C2.63708711,17.0762554 3.34953738,17.0117776 4.09437174,16.6893888 C5.35735175,16.1735666 6.81463637,15.0774444 8.23953689,13.7556501 C9.24344408,12.7884835 11.121722,12.3049002 13,12.3049002 C14.878278,12.3049002 16.7565559,12.7884835 17.7604631,13.7556501 C19.1853636,15.0774444 20.6426483,16.1735666 21.9056283,16.6893888 C22.6504626,16.9795387 23.3629129,17.0762554 23.9782108,16.915061 C24.6258929,16.7216276 25.1764226,16.2702832 25.5326478,15.4320722 C25.8888729,14.6261 26.0507934,13.4332612 25.9860252,11.7568391 Z M24.4315883,14.9807278 C24.2372837,15.4320722 23.9782108,15.6899833 23.6543698,15.7866999 C23.2981447,15.8834166 22.8447672,15.8189388 22.3266216,15.6255055 C21.193178,15.1741611 19.8654298,14.1747556 18.5700657,12.9496779 C17.3394698,11.7246002 15.1697349,11.1120613 13,11.1120613 C10.8302651,11.1120613 8.66053023,11.7246002 7.39755022,12.8852001 C6.06980201,14.1102778 4.74205379,15.1419222 3.6409943,15.5610277 C3.12284866,15.754461 2.66947122,15.8511777 2.31324609,15.7222221 C1.98940506,15.6255055 1.73033224,15.3675944 1.53602762,14.91625 C1.2769548,14.3037111 1.14741839,13.3043056 1.21218659,11.8213169 C1.2769548,10.4350447 1.50364352,8.85533927 1.89225275,7.37235048 C2.24847788,5.98607835 2.70185532,4.69652289 3.25238507,3.72935628 C5.03351072,0.537706497 7.1060933,1.05352868 9.56728511,1.69830642 C10.5711923,1.95621751 11.6074836,2.21412861 12.7409272,2.31084527 C12.7733113,2.31084527 12.7733113,2.31084527 12.8056954,2.31084527 L13.1619205,2.31084527 C13.1943046,2.31084527 13.1943046,2.31084527 13.2266887,2.31084527 C14.3925164,2.21412861 15.4288077,1.95621751 16.4327149,1.69830642 C18.8939067,1.08576757 20.9664893,0.537706497 22.7476149,3.72935628 C23.2981447,4.69652289 23.7515221,5.95383947 24.1077472,7.37235048 C24.4639724,8.85533927 24.7230452,10.4028058 24.7878134,11.8213169 C24.8525816,13.3043056 24.7230452,14.3037111 24.4315883,14.9807278 Z" id="Shape"></path>
                    <path d="M10.3901345,5.20720721 C10.0313901,4.92342342 9.60089686,4.7027027 9.09865471,4.67117117 C9.06278027,4.26126126 8.84753363,3.85135135 8.52466368,3.56756757 L8.48878924,3.53603604 C8.0941704,3.18918919 7.59192825,3 7.01793722,3 C6.44394619,3 5.9058296,3.22072072 5.5470852,3.53603604 C5.22421525,3.81981982 4.97309417,4.22972973 4.93721973,4.67117117 C4.43497758,4.7027027 4.0044843,4.89189189 3.64573991,5.17567568 L3.60986547,5.20720721 C3.21524664,5.55405405 3,5.9954955 3,6.5 C3,7.0045045 3.25112108,7.47747748 3.60986547,7.79279279 C3.96860987,8.10810811 4.39910314,8.2972973 4.93721973,8.32882883 C4.97309417,8.77027027 5.18834081,9.18018018 5.5470852,9.46396396 C5.94170404,9.81081081 6.44394619,10 7.01793722,10 C7.59192825,10 8.13004484,9.77927928 8.48878924,9.46396396 C8.81165919,9.14864865 9.06278027,8.77027027 9.09865471,8.32882883 C9.60089686,8.2972973 10.0672646,8.10810811 10.3901345,7.79279279 C10.7847534,7.44594595 11,7.0045045 11,6.5 C11,5.9954955 10.7488789,5.52252252 10.3901345,5.20720721 Z M9.49327354,6.97297297 C9.34977578,7.0990991 9.17040359,7.16216216 8.95515695,7.16216216 L8.4529148,7.16216216 C8.0941704,7.16216216 7.77130045,7.41441441 7.77130045,7.76126126 L7.77130045,8.17117117 C7.77130045,8.36036036 7.69955157,8.51801802 7.55605381,8.64414414 C7.41255605,8.77027027 7.23318386,8.83333333 7.01793722,8.83333333 C6.80269058,8.83333333 6.62331839,8.77027027 6.47982063,8.64414414 C6.33632287,8.51801802 6.26457399,8.36036036 6.26457399,8.17117117 L6.26457399,7.72972973 C6.26457399,7.41441441 5.97757848,7.13063063 5.58295964,7.13063063 L5.08071749,7.13063063 C4.86547085,7.13063063 4.68609865,7.06756757 4.5426009,6.94144144 C4.43497758,6.84684685 4.32735426,6.68918919 4.32735426,6.5 C4.32735426,6.31081081 4.39910314,6.15315315 4.5426009,6.02702703 C4.5426009,6.02702703 4.5426009,6.02702703 4.57847534,5.9954955 C4.72197309,5.9009009 4.90134529,5.83783784 5.08071749,5.83783784 L5.58295964,5.83783784 C5.94170404,5.83783784 6.26457399,5.58558559 6.26457399,5.23873874 L6.26457399,4.7972973 C6.26457399,4.60810811 6.33632287,4.45045045 6.47982063,4.32432432 C6.62331839,4.1981982 6.80269058,4.13513514 7.01793722,4.13513514 C7.23318386,4.13513514 7.41255605,4.1981982 7.55605381,4.32432432 C7.55605381,4.32432432 7.55605381,4.32432432 7.59192825,4.35585586 C7.69955157,4.48198198 7.77130045,4.63963964 7.77130045,4.7972973 L7.77130045,5.23873874 C7.77130045,5.55405405 8.05829596,5.83783784 8.4529148,5.83783784 L8.95515695,5.83783784 C9.17040359,5.83783784 9.34977578,5.9009009 9.49327354,6.02702703 C9.6367713,6.15315315 9.70852018,6.31081081 9.70852018,6.5 C9.70852018,6.68918919 9.6367713,6.84684685 9.49327354,6.97297297 Z" id="Shape"></path>
                    <circle id="Oval" cx="18" cy="4" r="1"></circle>
                    <circle id="Oval" cx="18" cy="10" r="1"></circle>
                    <circle id="Oval" cx="16" cy="6" r="1"></circle>
                    <circle id="Oval" cx="21" cy="6" r="1"></circle>
                </g>
            </g>
        </g>
    </g>
</svg>