<?xml version="1.0" encoding="UTF-8"?>
<svg width="156px" height="155px" viewBox="0 0 156 155" version="1.1" xmlns="http://www.w3.org/2000/svg" xmlns:xlink="http://www.w3.org/1999/xlink">
    <title>Group 3</title>
    <g id="PECSS" stroke="none" stroke-width="1" fill="none" fill-rule="evenodd">
        <g id="Artboard" transform="translate(-522.000000, -123.000000)" fill-rule="nonzero">
            <g id="Group-3" transform="translate(526.000000, 127.000000)">
                <g id="noun_group_249383" stroke="#FFCC00">
                    <path d="M138.202634,61.7450073 C136.507279,52.5944805 132.882343,44.1086409 127.747203,36.7283977 C130.950531,32.0711562 130.48877,25.656925 126.328459,21.527002 C124.050884,19.26485 121.026014,18.0196693 117.807071,18.0196693 C115.344346,18.0196693 113.002079,18.7596877 111.01673,20.1134339 C103.586169,15.0152833 95.0469352,11.4148944 85.8340211,9.73323587 C84.7744245,4.19860732 79.8757418,0 74.0022303,0 C68.1287187,0 63.2278054,4.20082295 62.1704394,9.73323587 C52.9575254,11.4148944 44.4182917,15.0152833 36.9877308,20.1134339 C35.0001505,18.7596877 32.6578842,18.0196693 30.1973893,18.0196693 C26.9784462,18.0196693 23.9513458,19.2670656 21.6760014,21.527002 C17.5179211,25.656925 17.05616,32.0711562 20.2572573,36.7283977 C15.1221173,44.1086409 11.4971814,52.5944805 9.80182673,61.7450073 C4.22723297,62.7974287 0,67.6651544 0,73.4988922 C0,79.33263 4.2294637,84.2003557 9.799596,85.2505614 C11.4949506,94.4033038 15.1198866,102.886928 20.2550266,110.269387 C17.0539293,114.926628 17.5156904,121.340859 21.6737707,125.472998 C23.9513458,127.73515 26.9762154,128.978115 30.1951585,128.978115 C32.6578842,128.978115 35.0001505,128.240312 36.9855,126.886566 C44.416061,131.984717 52.9575254,135.585106 62.1682087,137.266764 C63.2278054,142.799177 68.126488,147 74,147 C79.8735111,147 84.7744245,142.799177 85.8317904,137.266764 C95.0447045,135.585106 103.583938,131.984717 111.014499,126.886566 C113.002079,128.240312 115.344346,128.978115 117.804841,128.978115 C121.023784,128.978115 124.050884,127.732934 126.326228,125.472998 C130.482078,121.343075 130.943839,114.928844 127.744973,110.269387 C132.880113,102.886928 136.507279,94.4033038 138.200403,85.2505614 C143.770535,84.1981401 148,79.33263 148,73.4988922 C148.00223,67.6651544 143.774997,62.7974287 138.202634,61.7450073 Z M131,73 C131,70.2430295 133.243963,68 136,68 C138.756037,68 141,70.2430295 141,73 C141,75.7569705 138.756037,78 136,78 C133.243963,78 131,75.7548897 131,73 Z M118.172588,105.241516 C114.926621,105.241516 111.874108,106.496994 109.579662,108.771573 C105.962535,112.357378 105.127986,117.653578 107.035526,122.053326 C100.579584,126.383944 93.2126125,129.472465 85.2900248,131 C83.5039559,126.544503 79.1220137,123.382393 74,123.382393 C68.8779863,123.382393 64.4960441,126.544503 62.7099752,131 C54.7873875,129.474695 47.4204158,126.386174 40.9644741,122.053326 C42.8720137,117.653578 42.0374651,112.357378 38.4203382,108.771573 C36.1236426,106.494764 33.0733788,105.241516 29.8274123,105.241516 C28.142569,105.241516 26.5162116,105.593853 25.0158238,106.238317 C20.6518771,99.840508 17.5386286,92.5417879 16,84.6922629 C20.4944151,82.9216599 23.6841452,78.5776614 23.6841452,73.5 C23.6841452,68.4223386 20.4944151,64.0761101 16,62.3077371 C17.5386286,54.4582121 20.6518771,47.159492 25.0158238,40.7616831 C26.5162116,41.403917 28.142569,41.7584836 29.8274123,41.7584836 C33.0733788,41.7584836 36.125892,40.5030056 38.4203382,38.2284274 C40.7170338,35.9516192 41.9812287,32.9277681 41.9812287,29.7099089 C41.9812287,28.0396548 41.6258145,26.4273803 40.9757214,24.9377545 C47.4294136,20.6115959 54.7918864,17.5253054 62.7099752,16 C64.4960441,20.4554974 68.8779863,23.6176071 74,23.6176071 C79.1220137,23.6176071 83.5039559,20.4554974 85.2900248,16 C93.2081136,17.5253054 100.570586,20.6115959 107.024279,24.9377545 C106.374186,26.4273803 106.018771,28.0396548 106.018771,29.7099089 C106.018771,32.9277681 107.285216,35.9538491 109.579662,38.2284274 C111.876357,40.5052356 114.926621,41.7584836 118.172588,41.7584836 C119.857431,41.7584836 121.483788,41.406147 122.984176,40.7616831 C127.348123,47.159492 130.461371,54.4582121 132,62.3077371 C127.507834,64.0783401 124.315855,68.4223386 124.315855,73.5 C124.315855,78.5776614 127.505585,82.9216599 132,84.6922629 C130.461371,92.5417879 127.348123,99.840508 122.984176,106.238317 C121.483788,105.593853 119.857431,105.241516 118.172588,105.241516 Z" id="Shape" stroke-width="7"></path>
                    <path d="M126,73.5 C126,67.158968 130.712323,62 136.5,62 C142.287677,62 147,67.158968 147,73.5 C147,79.841032 142.287677,85 136.5,85 C130.712323,85 126,79.8362464 126,73.5 Z" id="Path" stroke-width="2" fill="#FFCC00"></path>
                </g>
                <g id="noun_List_3324379" transform="translate(49.000000, 44.000000)" fill="#FFCC00">
                    <path d="M10.5456498,10.6134581 L3.64245987,10.6134581 L3.64245987,3.66634513 L10.5456498,3.66634513 L10.5456498,10.6134581 Z M25.4462247,4.69622148 C25.4462247,3.68378823 26.2616171,2.86304892 27.2674546,2.86304892 L50.1785272,2.86304892 C51.1843648,2.86304892 51.9997572,3.68378823 51.9997572,4.69622148 C51.9997572,5.70865473 51.1843648,6.52939405 50.1785272,6.52939405 L27.2674546,6.52939405 C26.2616171,6.52939405 25.4462247,5.70865473 25.4462247,4.69622148 L25.4462247,4.69622148 Z M52,12.4466307 C52,13.4590639 51.1843648,14.2798032 50.1785272,14.2798032 L22.4108415,14.2798032 C21.4050039,14.2798032 20.5896115,13.4590639 20.5896115,12.4466307 C20.5896115,11.4341974 21.4050039,10.6134581 22.4108415,10.6134581 L50.1785272,10.6134581 C50.6615895,10.6133933 51.1248889,10.8065019 51.4664883,11.1502955 C51.8080876,11.4940891 52,11.9604007 52,12.4466307 L52,12.4466307 Z M10.5456498,31.4742286 L3.64245987,31.4742286 L3.64245987,24.5257714 L10.5456498,24.5257714 L10.5456498,31.4742286 Z M52,25.5557699 C52,26.5682032 51.1846076,27.3889425 50.1787701,27.3889425 L27.2676975,27.3889425 C26.2618599,27.3889425 25.4464675,26.5682032 25.4464675,25.5557699 C25.4464675,24.5433367 26.2618599,23.7225973 27.2676975,23.7225973 L50.1787701,23.7225973 C51.1846076,23.7225973 52,24.5433367 52,25.5557699 L52,25.5557699 Z M52,33.3074012 C52,34.3198345 51.1846076,35.1405738 50.1787701,35.1405738 L22.4110843,35.1405738 C21.4052468,35.1405738 20.5898543,34.3198345 20.5898543,33.3074012 C20.5898543,32.294968 21.4052468,31.4742286 22.4110843,31.4742286 L50.1787701,31.4742286 C51.1846076,31.4742286 52,32.294968 52,33.3074012 L52,33.3074012 Z M10.5456498,52.3336549 L3.64245987,52.3336549 L3.64245987,45.3865419 L10.5456498,45.3865419 L10.5456498,52.3336549 Z M52,46.4153183 C52,47.4277516 51.1846076,48.2484909 50.1787701,48.2484909 L27.2676975,48.2484909 C26.2618599,48.2484909 25.4464675,47.4277516 25.4464675,46.4153183 C25.4464675,45.4028851 26.2618599,44.5821458 27.2676975,44.5821458 L50.1787701,44.5821458 C51.1846076,44.5821458 52,45.4028851 52,46.4153183 L52,46.4153183 Z M52,54.1668274 C52,55.1792607 51.1846076,56 50.1787701,56 L22.4110843,56 C21.4052468,56 20.5898543,55.1792607 20.5898543,54.1668274 C20.5898543,53.1543942 21.4052468,52.3336549 22.4110843,52.3336549 L50.1787701,52.3336549 C51.1846076,52.3336549 52,53.1543942 52,54.1668274 L52,54.1668274 Z" id="Shape"></path>
                    <path d="M12.3668798,0 L1.82122994,0 C0.815392417,0 0,0.820739314 0,1.83317257 L0,12.4466307 C0,13.4590639 0.815392417,14.2798032 1.82122994,14.2798032 L12.3668798,14.2798032 C13.3727173,14.2798032 14.1881097,13.4590639 14.1881097,12.4466307 L14.1881097,1.83317257 C14.1881097,1.34698497 13.9962307,0.880710358 13.6546838,0.536923814 C13.3131369,0.19313727 12.8499,0 12.3668798,0 L12.3668798,0 Z" id="Path"></path>
                    <path d="M12.3668798,20.8594262 L1.82122994,20.8594262 C0.815392417,20.8594262 0,21.6801655 0,22.6925988 L0,33.3074012 C0,34.3198345 0.815392417,35.1405738 1.82122994,35.1405738 L12.3668798,35.1405738 C13.3727173,35.1405738 14.1881097,34.3198345 14.1881097,33.3074012 L14.1881097,22.6925988 C14.1881097,22.2064112 13.9962307,21.7401366 13.6546838,21.39635 C13.3131369,21.0525635 12.8499,20.8594262 12.3668798,20.8594262 L12.3668798,20.8594262 Z" id="Path"></path>
                    <path d="M12.3668798,41.7201968 L1.82122994,41.7201968 C0.815392417,41.7201968 0,42.5409361 0,43.5533693 L0,54.1668274 C0,55.1792607 0.815392417,56 1.82122994,56 L12.3668798,56 C13.3727173,56 14.1881097,55.1792607 14.1881097,54.1668274 L14.1881097,43.5533693 C14.1881097,43.0671817 13.9962307,42.6009071 13.6546838,42.2571206 C13.3131369,41.913334 12.8499,41.7201968 12.3668798,41.7201968 L12.3668798,41.7201968 Z" id="Path"></path>
                </g>
            </g>
        </g>
    </g>
</svg>