<?xml version="1.0" encoding="UTF-8"?>
<svg width="182px" height="143px" viewBox="0 0 182 143" version="1.1" xmlns="http://www.w3.org/2000/svg" xmlns:xlink="http://www.w3.org/1999/xlink">
    <title>noun_Listen_1577647</title>
    <g id="PECSS" stroke="none" stroke-width="1" fill="none" fill-rule="evenodd">
        <g id="Artboard" transform="translate(-710.000000, -129.000000)" fill-rule="nonzero">
            <g id="noun_Listen_1577647" transform="translate(710.000000, 129.000000)">
                <path d="M156,65.6565 L156,58.5 C156,26.2448333 129.7595,0 97.5,0 L84.5,0 C52.2405,0 26,26.2448333 26,58.5 L26,65.6565 C11.1843333,68.6768333 0,81.8068333 0,97.5 L0,110.5 C0,128.4205 14.5795,143 32.5,143 L45.5,143 C49.0923333,143 52,140.090167 52,136.5 L52,71.5 C52,67.9098333 49.0923333,65 45.5,65 L39,65 L39,58.5 C39,33.41 59.4143333,13 84.5,13 L97.5,13 C122.585667,13 143,33.41 143,58.5 L143,65 L136.5,65 C132.907667,65 130,67.9098333 130,71.5 L130,136.5 C130,140.090167 132.907667,143 136.5,143 L149.5,143 C167.4205,143 182,128.4205 182,110.5 L182,97.5 C182,81.8068333 170.815667,68.6768333 156,65.6565 Z M39,130 L32.5,130 C21.7468333,130 13,121.253167 13,110.5 L13,97.5 C13,86.7468333 21.7468333,78 32.5,78 L39,78 L39,130 Z M169,110.5 C169,121.253167 160.253167,130 149.5,130 L143,130 L143,78 L149.5,78 C160.253167,78 169,86.7468333 169,97.5 L169,110.5 Z" id="Shape" fill="#FFCC00"></path>
                <path d="M105.235176,82.746632 L95.2356384,77.5465081 C93.6823769,76.7474224 91.842462,76.8254243 90.37253,77.7753136 C88.8975982,78.7234695 87.9993064,80.396176 87.9993064,82.1988856 L87.9993064,103.262854 C80.2096666,101.610948 73,107.838963 73,115.99969 C73,123.167194 78.6047408,129 85.499422,129 C92.3941032,129 97.998844,123.167194 97.998844,115.99969 L97.998844,90.6126859 L100.76205,92.0496535 C103.236935,93.3340841 106.23013,92.2940593 107.470073,89.7234648 C108.706682,87.1546036 107.705062,84.0327959 105.235176,82.746632 Z" id="Path" stroke="#FFCC00" stroke-width="8"></path>
            </g>
        </g>
    </g>
</svg>