<?xml version="1.0" encoding="UTF-8"?>
<svg width="117px" height="157px" viewBox="0 0 117 157" version="1.1" xmlns="http://www.w3.org/2000/svg" xmlns:xlink="http://www.w3.org/1999/xlink">
    <title>noun_test_1077021</title>
    <g id="PECSS" stroke="none" stroke-width="1" fill="none" fill-rule="evenodd">
        <g id="Artboard" transform="translate(-144.000000, -123.000000)" fill-rule="nonzero">
            <g id="Group" transform="translate(149.000000, 128.000000)">
                <path d="M43.852459,83.8568182 C43.852459,85.8613636 45.1053864,87.1977273 46.9847775,87.1977273 L84.5725995,87.1977273 C86.4519906,87.1977273 87.704918,85.8613636 87.704918,83.8568182 C87.704918,81.8522727 86.4519906,80.5159091 84.5725995,80.5159091 L46.9847775,80.5159091 C45.1053864,80.5159091 43.852459,81.8522727 43.852459,83.8568182 Z" id="Path" fill="#FFCC00"></path>
                <path d="M46.9221311,100.561364 L65.3401639,100.561364 C67.1819672,100.561364 68.4098361,99.225 68.4098361,97.2204545 C68.4098361,95.2159091 67.1819672,93.8795455 65.3401639,93.8795455 L46.9221311,93.8795455 C45.0803279,93.8795455 43.852459,95.2159091 43.852459,97.2204545 C43.852459,99.225 45.0803279,100.561364 46.9221311,100.561364 Z" id="Path" fill="#FFCC00"></path>
                <path d="M46.9221311,50.4477273 C45.0803279,50.4477273 43.852459,51.7840909 43.852459,53.7886364 C43.852459,55.7931818 45.0803279,57.1295455 46.9221311,57.1295455 L77.6188525,57.1295455 C79.4606557,57.1295455 80.6885246,55.7931818 80.6885246,53.7886364 C80.6885246,51.7840909 79.4606557,50.4477273 77.6188525,50.4477273 L46.9221311,50.4477273 Z" id="Path" fill="#FFCC00"></path>
                <path d="M47.0098361,70.4931818 L56.4819672,70.4931818 C58.3763934,70.4931818 59.6393443,69.1568182 59.6393443,67.1522727 C59.6393443,65.1477273 58.3763934,63.8113636 56.4819672,63.8113636 L47.0098361,63.8113636 C45.1154098,63.8113636 43.852459,65.1477273 43.852459,67.1522727 C43.852459,69.1568182 45.1154098,70.4931818 47.0098361,70.4931818 Z" id="Path" fill="#FFCC00"></path>
                <path d="M75.7451565,110.584091 L47.0417288,110.584091 C45.1281669,110.584091 43.852459,111.920455 43.852459,113.925 C43.852459,115.929545 45.1281669,117.265909 47.0417288,117.265909 L75.7451565,117.265909 C77.6587183,117.265909 78.9344262,115.929545 78.9344262,113.925 C78.9344262,111.920455 77.6587183,110.584091 75.7451565,110.584091 Z" id="Path" fill="#FFCC00"></path>
                <path d="M61.8946136,123.947727 L46.8594848,123.947727 C45.0552693,123.947727 43.852459,125.284091 43.852459,127.288636 C43.852459,129.293182 45.0552693,130.629545 46.8594848,130.629545 L61.8946136,130.629545 C63.698829,130.629545 64.9016393,129.293182 64.9016393,127.288636 C64.9016393,125.284091 63.698829,123.947727 61.8946136,123.947727 Z" id="Path" fill="#FFCC00"></path>
                <path d="M30.4043716,80.85 L18.7103825,80.85 C16.9562842,80.85 15.7868852,82.075 15.7868852,83.9125 L15.7868852,96.1625 C15.7868852,98 16.9562842,99.225 18.7103825,99.225 L30.4043716,99.225 C32.1584699,99.225 33.3278689,98 33.3278689,96.1625 L33.3278689,83.9125 C33.3278689,82.075 32.1584699,80.85 30.4043716,80.85 Z" id="Shape" fill="#FFCC00"></path>
                <path d="M30.4043716,51.45 L18.7103825,51.45 C16.9562842,51.45 15.7868852,52.675 15.7868852,54.5125 L15.7868852,66.7625 C15.7868852,68.6 16.9562842,69.825 18.7103825,69.825 L30.4043716,69.825 C32.1584699,69.825 33.3278689,68.6 33.3278689,66.7625 L33.3278689,54.5125 C33.3278689,52.675 32.1584699,51.45 30.4043716,51.45 Z" id="Shape" fill="#FFCC00"></path>
                <path d="M46.9221311,21.0477273 C45.0803279,21.0477273 43.852459,22.3840909 43.852459,24.3886364 C43.852459,26.3931818 45.0803279,27.7295455 46.9221311,27.7295455 L77.6188525,27.7295455 C79.4606557,27.7295455 80.6885246,26.3931818 80.6885246,24.3886364 C80.6885246,22.3840909 79.4606557,21.0477273 77.6188525,21.0477273 L46.9221311,21.0477273 Z" id="Path" fill="#FFCC00"></path>
                <path d="M47.0098361,41.0931818 L56.4819672,41.0931818 C58.3763934,41.0931818 59.6393443,39.7568182 59.6393443,37.7522727 C59.6393443,35.7477273 58.3763934,34.4113636 56.4819672,34.4113636 L47.0098361,34.4113636 C45.1154098,34.4113636 43.852459,35.7477273 43.852459,37.7522727 C43.852459,39.7568182 45.1154098,41.0931818 47.0098361,41.0931818 Z" id="Path" fill="#FFCC00"></path>
                <path d="M30.4043716,22.05 L18.7103825,22.05 C16.9562842,22.05 15.7868852,23.275 15.7868852,25.1125 L15.7868852,37.3625 C15.7868852,39.2 16.9562842,40.425 18.7103825,40.425 L30.4043716,40.425 C32.1584699,40.425 33.3278689,39.2 33.3278689,37.3625 L33.3278689,25.1125 C33.3278689,23.275 32.1584699,22.05 30.4043716,22.05 Z" id="Shape" fill="#FFCC00"></path>
                <path d="M30.4043716,112.0875 L18.7103825,112.0875 C16.9562842,112.0875 15.7868852,113.3125 15.7868852,115.15 L15.7868852,127.4 C15.7868852,129.2375 16.9562842,130.4625 18.7103825,130.4625 L30.4043716,130.4625 C32.1584699,130.4625 33.3278689,129.2375 33.3278689,127.4 L33.3278689,115.15 C33.3278689,113.3125 32.1584699,112.0875 30.4043716,112.0875 Z" id="Shape" fill="#FFCC00"></path>
                <path d="M77.7323529,1.00227273 C77.1029412,0.334090909 76.4735294,0 75.5294118,0 L9.44117647,0 C4.09117647,0 0,4.34318182 0,10.0227273 L0,136.977273 C0,142.656818 4.09117647,147 9.44117647,147 L97.5588235,147 C102.908824,147 107,142.656818 107,136.977273 L107,33.4090909 C107,32.4068182 106.685294,31.7386364 106.055882,31.0704545 L77.7323529,1.00227273 Z" id="Shape" stroke="#FFCC00" stroke-width="10"></path>
            </g>
        </g>
    </g>
</svg>