<?xml version="1.0" encoding="UTF-8"?>
<svg width="140px" height="111px" viewBox="0 0 140 111" version="1.1" xmlns="http://www.w3.org/2000/svg" xmlns:xlink="http://www.w3.org/1999/xlink">
    <title>Group</title>
    <g id="Page-1" stroke="none" stroke-width="1" fill="none" fill-rule="evenodd">
        <g id="Artboard" transform="translate(-1401.000000, -1102.000000)">
            <g id="176400-OWDHYS-303" transform="translate(711.000000, 521.000000)">
                <g id="Group" transform="translate(690.000000, 581.000000)">
                    <path d="M126.8,34.6645384 C122.872,34.8135384 120.067,36.3725384 118.094,38.2425384 C116.927,22.4305384 110.864,8.6855384 100.799,3.2885384 C82.155,-6.7104616 56.768,7.4335384 53.358,27.6495384 C52.701,31.5435384 52.409,35.7905384 52.275,40.1435384 C50.164,35.1535384 47.012,30.2025384 42.389,27.7085384 C31.049,21.5905384 22.226,31.5695384 21.213,39.8145384 C20.201,48.0585384 27.578,48.3805384 31.049,45.6155384 C34.52,42.8515384 40.74,40.4265384 43.488,42.5785384 C45.401,44.0775384 50.324,52.3845384 51.971,62.4665384 C51.517,72.2875384 49.918,80.2045384 44.163,82.5795384 C38.871,84.7635384 34.566,81.7515384 29.322,78.7395384 C22.526,74.8375384 14.15,70.9345384 8.52651283e-14,78.3365384 C8.52651283e-14,78.3365384 12.15,74.2865384 29.121,98.2005384 C46.091,122.113538 95.263,106.685538 109.826,79.3005384 C114.496,70.5195384 117.149,60.5845384 117.999,50.8055384 C119.35,49.4185384 121.001,48.0825384 122.557,47.8655384 C124.103,47.6505384 125.63,49.3295384 127.505,51.0085384 C129.84,53.0985384 132.716,55.1895384 136.841,53.6235384 C144.28,50.7985384 137.117,34.2695384 126.8,34.6645384" id="Fill-64" fill="#FFFFFE"></path>
                    <path d="M55.475,110.015538 C45.339,110.015538 36.16,106.875538 30.227,99.6495384 C29.844,99.1825384 29.476,98.7015384 29.121,98.2005384 C16.443,80.3365384 6.456,78.0765384 2.215,78.0765384 C0.778,78.0765384 4.26325641e-14,78.3365384 4.26325641e-14,78.3365384 C5.837,75.2835384 10.689,74.1535384 14.856,74.1535384 C20.79,74.1535384 25.329,76.4465384 29.322,78.7395384 C33.315,81.0325384 36.763,83.3265384 40.517,83.3255384 C41.693,83.3255384 42.9,83.1005384 44.163,82.5795384 C49.918,80.2045384 51.517,72.2875384 51.971,62.4665384 C51.669,60.6165384 51.256,58.8265384 50.772,57.1275384 C48.618,49.5655384 45.05,43.8025384 43.488,42.5785384 C42.75,42.0005384 41.763,41.7525384 40.645,41.7525384 C37.599,41.7525384 33.588,43.5935384 31.049,45.6155384 C29.83,46.5865384 28.129,47.1765384 26.478,47.1765384 C23.728,47.1765384 21.12,45.5375384 21.119,41.2875384 C21.119,40.8275384 21.149,40.3365384 21.213,39.8145384 C22.007,33.3485384 27.604,25.8175384 35.451,25.8175384 C37.611,25.8175384 39.941,26.3875384 42.389,27.7085384 C47.012,30.2025384 50.164,35.1535384 52.275,40.1435384 C52.409,35.7905384 52.701,31.5435384 53.358,27.6495384 C53.36,27.6345384 53.363,27.6215384 53.365,27.6065384 C53.366,27.6025384 53.367,27.5985384 53.367,27.5945384 C53.369,27.5845384 53.371,27.5725384 53.373,27.5625384 C53.373,27.5585384 53.374,27.5545384 53.375,27.5505384 C53.377,27.5405384 53.378,27.5295384 53.38,27.5195384 C53.381,27.5155384 53.382,27.5095384 53.382,27.5055384 C53.384,27.4945384 53.386,27.4835384 53.388,27.4725384 C53.389,27.4695384 53.389,27.4665384 53.39,27.4635384 C53.398,27.4195384 53.406,27.3755384 53.414,27.3305384 C53.414,27.3295384 53.414,27.3275384 53.414,27.3255384 C53.417,27.3135384 53.419,27.2975384 53.422,27.2855384 C53.422,27.2845384 53.422,27.2825384 53.423,27.2805384 C53.425,27.2675384 53.428,27.2545384 53.43,27.2405384 C53.43,27.2385384 53.43,27.2385384 53.431,27.2355384 C53.445,27.1605384 53.459,27.0845384 53.473,27.0105384 L53.473,27.0095384 C53.702,25.8255384 54.005,24.6645384 54.378,23.5275384 C54.378,23.5275384 54.378,23.5275384 54.378,23.5265384 C54.383,23.5125384 54.387,23.4995384 54.392,23.4845384 C54.392,23.4845384 54.392,23.4835384 54.393,23.4825384 C54.412,23.4255384 54.431,23.3675384 54.45,23.3095384 C54.451,23.3095384 54.451,23.3085384 54.451,23.3075384 C54.455,23.2945384 54.46,23.2815384 54.464,23.2685384 C54.465,23.2665384 54.466,23.2645384 54.466,23.2625384 C54.471,23.2495384 54.474,23.2385384 54.479,23.2255384 C54.48,23.2235384 54.48,23.2225384 54.481,23.2195384 C54.486,23.2055384 54.49,23.1935384 54.495,23.1795384 C54.495,23.1785384 54.495,23.1785384 54.495,23.1785384 C54.505,23.1505384 54.514,23.1225384 54.524,23.0945384 C54.525,23.0905384 54.526,23.0875384 54.528,23.0835384 C54.531,23.0725384 54.534,23.0645384 54.538,23.0535384 C54.54,23.0485384 54.541,23.0435384 54.543,23.0395384 C54.546,23.0315384 54.549,23.0205384 54.552,23.0125384 C54.554,23.0075384 54.556,23.0035384 54.557,22.9975384 C54.56,22.9895384 54.563,22.9815384 54.566,22.9735384 C54.568,22.9675384 54.57,22.9615384 54.572,22.9555384 C54.575,22.9475384 54.578,22.9385384 54.581,22.9305384 C54.583,22.9255384 54.584,22.9215384 54.586,22.9155384 C54.591,22.9025384 54.595,22.8905384 54.6,22.8775384 C54.602,22.8705384 54.605,22.8635384 54.607,22.8575384 C54.609,22.8515384 54.612,22.8435384 54.614,22.8375384 C54.616,22.8305384 54.619,22.8215384 54.622,22.8145384 C54.624,22.8105384 54.626,22.8035384 54.628,22.7995384 C54.631,22.7905384 54.633,22.7835384 54.636,22.7755384 C54.638,22.7695384 54.64,22.7645384 54.642,22.7585384 C54.645,22.7505384 54.648,22.7435384 54.65,22.7355384 C54.652,22.7295384 54.654,22.7255384 54.656,22.7195384 C54.659,22.7115384 54.662,22.7035384 54.665,22.6955384 C54.667,22.6905384 54.668,22.6875384 54.669,22.6835384 C54.68,22.6525384 54.691,22.6225384 54.702,22.5925384 C54.704,22.5885384 54.705,22.5855384 54.706,22.5815384 C54.71,22.5715384 54.713,22.5635384 54.717,22.5535384 C54.718,22.5505384 54.719,22.5465384 54.72,22.5445384 C54.724,22.5345384 54.728,22.5235384 54.732,22.5135384 C54.732,22.5105384 54.733,22.5105384 54.734,22.5075384 C54.738,22.4965384 54.741,22.4865384 54.746,22.4745384 C54.746,22.4735384 54.746,22.4745384 54.746,22.4735384 C54.764,22.4265384 54.782,22.3765384 54.8,22.3295384 C54.8,22.3285384 54.8,22.3285384 54.801,22.3275384 C54.805,22.3155384 54.809,22.3045384 54.814,22.2925384 L54.815,22.2915384 C58.872,11.5675384 69.123,3.3135384 80.371,0.797538404 C77.095,3.5405384 74.141,7.2925384 72.066,12.4345384 C63.581,33.4695384 80.197,64.5795384 73.834,89.8555384 C71.316,99.8535384 65.23,106.052538 58.795,109.906538 C57.678,109.978538 56.572,110.015538 55.475,110.015538" id="Fill-69" fill="#EEEEEE"></path>
                    <path d="M134.035,54.1695384 C131.345,54.1695384 129.27,52.5885384 127.505,51.0085384 C125.739,49.4275384 124.282,47.8465384 122.828,47.8465384 C122.738,47.8465384 122.647,47.8525384 122.557,47.8655384 C121.001,48.0825384 119.35,49.4175384 118,50.8055384 L118,44.4725384 C118,44.4725384 120.879,42.3645384 124.103,42.3645384 C126.162,42.3645384 128.363,43.2255384 130.043,46.0485384 C131.995,49.3285384 134.664,50.5335384 137.046,50.5335384 C138.026,50.5335384 138.957,50.3295384 139.77,49.9815384 C139.444,51.6555384 138.515,52.9875384 136.841,53.6235384 C135.835,54.0055384 134.903,54.1695384 134.035,54.1695384" id="Fill-73" fill="#EEEEEE"></path>
                    <path d="M89.97,24.8895384 C89.97,28.9905384 86.646,32.3145384 82.546,32.3145384 C78.446,32.3145384 75.123,28.9905384 75.123,24.8895384 C75.123,20.7905384 78.446,17.4665384 82.546,17.4665384 C86.646,17.4665384 89.97,20.7905384 89.97,24.8895384" id="Fill-74" fill="#181818"></path>
                    <path d="M111.13,22.5045384 C111.13,26.6045384 107.806,29.9275384 103.706,29.9275384 C99.606,29.9275384 96.282,26.6045384 96.282,22.5045384 C96.282,18.4035384 99.606,15.0805384 103.706,15.0805384 C107.806,15.0805384 111.13,18.4035384 111.13,22.5045384" id="Fill-75" fill="#181818"></path>
                    <path d="M103.706,46.0485384 C103.706,51.6215384 101.856,56.1385384 99.574,56.1385384 C97.292,56.1385384 95.442,51.6215384 95.442,46.0485384 C95.442,40.4755384 97.292,35.9575384 99.574,35.9575384 C101.856,35.9575384 103.706,40.4755384 103.706,46.0485384" id="Fill-76" fill="#181818"></path>
                </g>
            </g>
        </g>
    </g>
</svg>