<?xml version="1.0" encoding="UTF-8"?>
<svg width="36px" height="41px" viewBox="0 0 36 41" version="1.1" xmlns="http://www.w3.org/2000/svg" xmlns:xlink="http://www.w3.org/1999/xlink">
    <!-- Generator: Sketch 61.2 (89653) - https://sketch.com -->
    <title>Group 3</title>
    <desc>Created with Sketch.</desc>
    <g id="Page-2" stroke="none" stroke-width="1" fill="none" fill-rule="evenodd">
        <g id="Desktop" transform="translate(-158.000000, -1570.000000)">
            <g id="Group-3" transform="translate(158.000000, 1570.000000)">
                <path d="M37.8774904,19.9971639 L28.3357052,3.42234149 C28.1719554,3.13719423 27.8695338,3 27.5420342,3 L8.45791692,3 C8.13041732,3 7.82799582,3.13719423 7.66424601,3.42234149 L-1.87753921,20.0163255 C-2.04082026,20.3014728 -2.04082026,20.6426914 -1.87753921,20.9278387 L7.66424601,37.5399635 C7.82799582,37.8251893 8.13041732,38 8.45791692,38 L27.5419561,38 C27.8694557,38 28.1718772,37.8203203 28.335627,37.5351731 L37.8774123,20.9203782 C38.0408496,20.6352309 38.0408496,20.2823112 37.8774904,19.9971639 Z" id="Path" fill="#006D57" fill-rule="nonzero" transform="translate(18.000000, 20.500000) rotate(-90.000000) translate(-18.000000, -20.500000) "></path>
                <text id="3" font-family="IBMPlexSans-Medium, IBM Plex Sans" font-size="20" font-weight="400" fill="#FFFFFF">
                    <tspan x="12" y="28">3</tspan>
                </text>
            </g>
        </g>
    </g>
</svg>