<?xml version="1.0" encoding="UTF-8"?>
<svg width="141px" height="130px" viewBox="0 0 141 130" version="1.1" xmlns="http://www.w3.org/2000/svg" xmlns:xlink="http://www.w3.org/1999/xlink">
    <title>Group</title>
    <g id="Page-1" stroke="none" stroke-width="1" fill="none" fill-rule="evenodd">
        <g id="Artboard" transform="translate(-1568.000000, -1107.000000)">
            <g id="Group" transform="translate(1568.000000, 1107.000000)">
                <path d="M119.094,38.2425384 C117.927,22.4305384 111.864,8.6855384 101.799,3.2885384 C83.155,-6.7104616 57.768,7.4335384 54.358,27.6495384 C53.701,31.5435384 53.409,35.7905384 53.275,40.1435384 C51.164,35.1535384 48.012,30.2025384 43.389,27.7085384 C32.049,21.5905384 23.226,31.5695384 22.213,39.8145384 C21.201,48.0585384 28.578,48.3805384 32.049,45.6155384 C35.52,42.8515384 41.74,40.4265384 44.488,42.5785384 C46.401,44.0775384 51.324,52.3845384 52.971,62.4665384 C52.517,72.2875384 50.918,80.2045384 45.163,82.5795384 C39.871,84.7635384 55.5004006,98.1152594 50.2564006,95.1032594 C43.4604006,91.2012594 66.0247451,92.475648 51.8747451,99.877648 C51.8747451,99.877648 13.15,74.2865384 30.121,98.2005384 C47.091,122.113538 96.263,106.685538 110.826,79.3005384 C115.496,70.5195384 118.149,60.5845384 118.999,50.8055384 C120.35,49.4185384 122.001,48.0825384 123.557,47.8655384 C125.103,47.6505384 126.63,49.3295384 128.505,51.0085384 C130.84,53.0985384 133.716,55.1895384 137.841,53.6235384 C145.28,50.7985384 138.117,34.2695384 127.8,34.6645384 C123.872,34.8135384 121.067,36.3725384 119.094,38.2425384 Z" id="Fill-64" fill="#FFFFFE"></path>
                <path d="M31.227,99.6495384 C30.844,99.1825384 30.476,98.7015384 30.121,98.2005384 C25.530822,91.7327249 25.2244395,90.49777 29.2941363,91.7480397 C34.2908543,93.2831036 41.8908811,85.9168751 45.163,82.5795384 C50.3231977,77.316491 52.517,72.2875384 52.971,62.4665384 C52.669,60.6165384 52.256,58.8265384 51.772,57.1275384 C49.618,49.5655384 46.05,43.8025384 44.488,42.5785384 C43.75,42.0005384 42.763,41.7525384 41.645,41.7525384 C38.599,41.7525384 34.588,43.5935384 32.049,45.6155384 C30.83,46.5865384 29.129,47.1765384 27.478,47.1765384 C24.728,47.1765384 22.12,45.5375384 22.119,41.2875384 C22.119,40.8275384 22.149,40.3365384 22.213,39.8145384 C23.007,33.3485384 28.604,25.8175384 36.451,25.8175384 C38.611,25.8175384 40.941,26.3875384 43.389,27.7085384 C48.012,30.2025384 51.164,35.1535384 53.275,40.1435384 C53.409,35.7905384 53.701,31.5435384 54.358,27.6495384 C54.36,27.6345384 54.363,27.6215384 54.365,27.6065384 C54.366,27.6025384 54.367,27.5985384 54.367,27.5945384 C54.369,27.5845384 54.371,27.5725384 54.373,27.5625384 C54.373,27.5585384 54.374,27.5545384 54.375,27.5505384 C54.377,27.5405384 54.378,27.5295384 54.38,27.5195384 C54.381,27.5155384 54.382,27.5095384 54.382,27.5055384 C54.384,27.4945384 54.386,27.4835384 54.388,27.4725384 C54.389,27.4695384 54.389,27.4665384 54.39,27.4635384 C54.398,27.4195384 54.406,27.3755384 54.414,27.3305384 C54.417,27.3135384 54.419,27.2975384 54.422,27.2855384 C54.422,27.2845384 54.422,27.2825384 54.423,27.2805384 C54.425,27.2675384 54.428,27.2545384 54.43,27.2405384 C54.445,27.1605384 54.459,27.0845384 54.473,27.0105384 C54.702,25.8255384 55.005,24.6645384 55.378,23.5275384 C55.383,23.5125384 55.387,23.4995384 55.392,23.4845384 C55.412,23.4255384 55.431,23.3675384 55.45,23.3095384 C55.455,23.2945384 55.46,23.2815384 55.464,23.2685384 C55.465,23.2665384 55.466,23.2645384 55.466,23.2625384 C55.471,23.2495384 55.474,23.2385384 55.479,23.2255384 C55.48,23.2235384 55.48,23.2225384 55.481,23.2195384 C55.486,23.2055384 55.49,23.1935384 55.495,23.1795384 C55.505,23.1505384 55.514,23.1225384 55.524,23.0945384 C55.525,23.0905384 55.526,23.0875384 55.528,23.0835384 C55.531,23.0725384 55.534,23.0645384 55.538,23.0535384 C55.54,23.0485384 55.541,23.0435384 55.543,23.0395384 C55.546,23.0315384 55.549,23.0205384 55.552,23.0125384 C55.554,23.0075384 55.556,23.0035384 55.557,22.9975384 C55.56,22.9895384 55.563,22.9815384 55.566,22.9735384 C55.568,22.9675384 55.57,22.9615384 55.572,22.9555384 C55.575,22.9475384 55.578,22.9385384 55.581,22.9305384 C55.583,22.9255384 55.584,22.9215384 55.586,22.9155384 C55.591,22.9025384 55.595,22.8905384 55.6,22.8775384 C55.602,22.8705384 55.605,22.8635384 55.607,22.8575384 C55.609,22.8515384 55.612,22.8435384 55.614,22.8375384 C55.616,22.8305384 55.619,22.8215384 55.622,22.8145384 C55.624,22.8105384 55.626,22.8035384 55.628,22.7995384 C55.631,22.7905384 55.633,22.7835384 55.636,22.7755384 C55.638,22.7695384 55.64,22.7645384 55.642,22.7585384 C55.645,22.7505384 55.648,22.7435384 55.65,22.7355384 C55.652,22.7295384 55.654,22.7255384 55.656,22.7195384 C55.659,22.7115384 55.662,22.7035384 55.665,22.6955384 C55.667,22.6905384 55.668,22.6875384 55.669,22.6835384 C55.68,22.6525384 55.691,22.6225384 55.702,22.5925384 C55.704,22.5885384 55.705,22.5855384 55.706,22.5815384 C55.71,22.5715384 55.713,22.5635384 55.717,22.5535384 C55.718,22.5505384 55.719,22.5465384 55.72,22.5445384 C55.724,22.5345384 55.728,22.5235384 55.732,22.5135384 C55.732,22.5105384 55.733,22.5105384 55.734,22.5075384 C55.738,22.4965384 55.741,22.4865384 55.746,22.4745384 C55.764,22.4265384 55.782,22.3765384 55.8,22.3295384 C55.805,22.3155384 55.809,22.3045384 55.814,22.2925384 L55.815,22.2915384 C59.872,11.5675384 70.123,3.3135384 81.371,0.797538404 C78.095,3.5405384 75.141,7.2925384 73.066,12.4345384 C64.581,33.4695384 81.197,64.5795384 74.834,89.8555384 C72.316,99.8535384 66.23,106.052538 59.795,109.906538 C58.678,109.978538 57.572,110.015538 56.475,110.015538 C46.339,110.015538 37.16,106.875538 31.227,99.6495384 Z" id="Fill-69" fill="#EEEEEE"></path>
                <path d="M33.6699432,105.002357 C21.7686256,86.9478956 11.6515202,84.616525 7.41052015,84.616525 C5.97352015,84.616525 5.19552015,84.876525 5.19552015,84.876525 C11.0325202,81.823525 15.8845202,80.693525 20.0515202,80.693525 C25.9855202,80.693525 30.5245202,82.986525 34.5175202,85.279525 C37.6447082,87.0753282 40.4376197,88.8717448 43.3050385,89.5658752 C44.0989291,89.7580563 47.8957114,90.1778854 51.9478821,89.4408033 C53.4191246,89.1731871 56.0042119,88.0691378 59.7031439,86.1286553 C65.4969355,104.582437 66.926061,114.688394 63.9905202,116.446525 C62.8735202,116.518525 61.7675202,116.555525 60.6705202,116.555525 C50.5345202,116.555525 36.3165747,109.017333 33.6699432,105.002357 Z" id="Fill-69" fill="#EEEEEE" transform="translate(35.333403, 98.624525) rotate(-30.000000) translate(-35.333403, -98.624525) "></path>
                <path d="M135.035,54.1695384 C132.345,54.1695384 130.27,52.5885384 128.505,51.0085384 C126.739,49.4275384 125.282,47.8465384 123.828,47.8465384 C123.738,47.8465384 123.647,47.8525384 123.557,47.8655384 C122.001,48.0825384 120.35,49.4175384 119,50.8055384 L119,44.4725384 C119,44.4725384 121.879,42.3645384 125.103,42.3645384 C127.162,42.3645384 129.363,43.2255384 131.043,46.0485384 C132.995,49.3285384 135.664,50.5335384 138.046,50.5335384 C139.026,50.5335384 139.957,50.3295384 140.77,49.9815384 C140.444,51.6555384 139.515,52.9875384 137.841,53.6235384 C136.835,54.0055384 135.903,54.1695384 135.035,54.1695384" id="Fill-73" fill="#EEEEEE"></path>
                <path d="M90.97,24.8895384 C90.97,28.9905384 87.646,32.3145384 83.546,32.3145384 C79.446,32.3145384 76.123,28.9905384 76.123,24.8895384 C76.123,20.7905384 79.446,17.4665384 83.546,17.4665384 C87.646,17.4665384 90.97,20.7905384 90.97,24.8895384" id="Fill-74" fill="#181818"></path>
                <path d="M112.13,22.5045384 C112.13,26.6045384 108.806,29.9275384 104.706,29.9275384 C100.606,29.9275384 97.282,26.6045384 97.282,22.5045384 C97.282,18.4035384 100.606,15.0805384 104.706,15.0805384 C108.806,15.0805384 112.13,18.4035384 112.13,22.5045384" id="Fill-75" fill="#181818"></path>
                <path d="M104.706,46.0485384 C104.706,51.6215384 102.856,56.1385384 100.574,56.1385384 C98.292,56.1385384 96.442,51.6215384 96.442,46.0485384 C96.442,40.4755384 98.292,35.9575384 100.574,35.9575384 C102.856,35.9575384 104.706,40.4755384 104.706,46.0485384" id="Fill-76" fill="#181818"></path>
            </g>
        </g>
    </g>
</svg>