<svg width="12" height="12" viewBox="0 0 12 12" fill="none" xmlns="http://www.w3.org/2000/svg">
<path fill-rule="evenodd" clip-rule="evenodd" d="M11.6959 10.2273C12.1014 10.6327 12.1014 11.2904 11.6959 11.6959C11.4931 11.8987 11.2274 12.0001 10.9616 12.0001C10.6957 12.0001 10.4301 11.8987 10.2273 11.6959L6 7.46863L1.77273 11.6959C1.56988 11.8987 1.30426 12.0001 1.03841 12.0001C0.772565 12.0001 0.506947 11.8987 0.304099 11.6959C-0.101366 11.2904 -0.101366 10.6327 0.304099 10.2273L4.53137 6L0.304099 1.77273C-0.101366 1.36726 -0.101366 0.709565 0.304099 0.304099C0.709795 -0.101366 1.36703 -0.101366 1.77273 0.304099L6 4.53137L10.2273 0.304099C10.633 -0.101366 11.2902 -0.101366 11.6959 0.304099C12.1014 0.709565 12.1014 1.36726 11.6959 1.77273L7.46863 6L11.6959 10.2273Z" fill="black"/>
</svg>
