<svg width="39" height="39" viewBox="0 0 39 39" fill="none" xmlns="http://www.w3.org/2000/svg">
<circle cx="19.5" cy="19.4999" r="18.537" fill="#196440"/>
<path d="M18.398 29.9488H19.9126L19.9207 28.1361C23.3287 27.8863 25.2784 25.9366 25.2784 23.3262C25.2784 20.3533 22.6277 19.2012 20.533 18.6856L19.9449 18.5325L19.961 13.3601C21.4676 13.5615 22.4988 14.3994 22.6519 15.7207H25.0528C24.9883 13.2635 22.9581 11.4265 19.969 11.1848L19.9771 9.32373H18.4624L18.4544 11.2009C15.562 11.491 13.4431 13.2957 13.4431 15.898C13.4431 18.1941 15.0867 19.5396 17.7373 20.2567L18.4302 20.442L18.4141 25.9286C16.843 25.7352 15.6265 24.8812 15.4976 23.3262H13C13.1531 26.1058 15.1592 27.8944 18.406 28.1361L18.398 29.9488ZM19.9287 25.9286L19.9449 20.8609C21.5804 21.3121 22.813 21.9083 22.813 23.3021C22.813 24.712 21.6368 25.703 19.9287 25.9286ZM18.4383 18.1297C17.2378 17.7752 15.9165 17.1387 15.9246 15.753C15.9246 14.5445 16.8833 13.6018 18.4463 13.3682L18.4383 18.1297Z" fill="#71FFBB"/>
</svg>
