<svg width="39" height="39" viewBox="0 0 39 39" fill="none" xmlns="http://www.w3.org/2000/svg">
<circle cx="19.5" cy="19.5" r="18.537" fill="#641919"/>
<path fill-rule="evenodd" clip-rule="evenodd" d="M19.5003 13.4315C17.2393 13.4315 15.3997 15.3002 15.3997 17.5973C15.3997 19.8944 17.2393 21.7631 19.5003 21.7631C21.7615 21.7631 23.6014 19.8944 23.6014 17.5973C23.6014 15.3002 21.7615 13.4315 19.5003 13.4315ZM25.2823 11.0446C23.8028 9.72636 21.7492 9 19.5 9C17.2508 9 15.1972 9.72636 13.7177 11.0446C11.9396 12.6292 11 15.0378 11 18.0105C11 24.4855 18.4514 32.0726 18.7685 32.3923C18.9619 32.5875 19.2254 32.697 19.5 32.697C19.7746 32.697 20.0381 32.5875 20.2315 32.3923C20.5486 32.0726 28 24.4855 28 18.0105C28 15.0378 27.0604 12.6292 25.2823 11.0446Z" fill="#F96060"/>
</svg>
