<svg width="13" height="12" viewBox="0 0 13 12" fill="none" xmlns="http://www.w3.org/2000/svg">
<path fill-rule="evenodd" clip-rule="evenodd" d="M9.56389 10.7404L7.19743 8.37367L7.84829 7.72294L8.24494 8.11946C8.34681 8.22133 8.48025 8.27233 8.61381 8.27233C8.74737 8.27233 8.88094 8.22133 8.98281 8.11946C9.18655 7.91572 9.18655 7.58533 8.98281 7.38159L8.58616 6.98494L9.23728 6.33408L11.6037 8.70054L9.56389 10.7404ZM4.48949 5.66586L2.12302 3.29926L4.16288 1.25954L6.52935 3.626L5.87822 4.27713L5.4817 3.88061C5.27796 3.67687 4.94757 3.67687 4.74384 3.88061C4.5401 4.08448 4.5401 4.41474 4.74384 4.61847L5.14036 5.01499L4.48949 5.66586ZM12.7105 8.33167L9.60615 5.22721C9.40254 5.0236 9.07215 5.0236 8.86828 5.22721L7.84829 6.2472L6.61608 5.01499L7.63607 3.995C7.83981 3.79113 7.83981 3.46087 7.63607 3.25713L4.53187 0.152804C4.32826 -0.0509345 3.99787 -0.0509345 3.79413 0.152804L1.01615 2.93027C0.918324 3.02809 0.863281 3.16087 0.863281 3.29926C0.863281 3.43765 0.918324 3.57031 1.01615 3.66826L4.12061 6.77259C4.22248 6.87446 4.35591 6.92546 4.48948 6.92546C4.62304 6.92546 4.75661 6.87446 4.85848 6.77259L5.87821 5.75286L7.11042 6.98507L6.09069 8.0048C5.88695 8.20854 5.88695 8.53893 6.09069 8.74267L9.19489 11.8471C9.29271 11.945 9.4255 12 9.56389 12C9.70228 12 9.83493 11.945 9.93288 11.8471L12.7105 9.06954C12.9142 8.86567 12.9142 8.53541 12.7105 8.33167Z" fill="#0A0A0A"/>
</svg>
