<svg width="39" height="39" viewBox="0 0 39 39" fill="none" xmlns="http://www.w3.org/2000/svg">
<mask id="mask0" mask-type="alpha" maskUnits="userSpaceOnUse" x="0" y="0" width="39" height="39">
<circle cx="19.5" cy="19.5" r="18.537" fill="#966D1A"/>
</mask>
<g mask="url(#mask0)">
<circle cx="19.5" cy="19.5" r="18.537" fill="#192964"/>
<path fill-rule="evenodd" clip-rule="evenodd" d="M23.0567 20.642C22.7403 20.5405 22.3943 20.6102 22.1414 20.8254L20.0596 22.5957L17.978 20.8254C17.725 20.6102 17.3791 20.5405 17.0627 20.642C15.7163 21.0714 9 23.3828 9 26.7149C9 27.246 9.5 27.5 9.9617 27.6766L20 32.5L30.1574 27.6766C30.5 27.5 31.1191 27.246 31.1191 26.7149C31.1191 23.3828 24.4028 21.0714 23.0567 20.642ZM20.0595 20.0056C23.6291 20.0056 26.5332 17.0882 26.5332 13.5023C26.5332 9.91684 23.6291 7 20.0595 7C16.4902 7 13.5861 9.91684 13.5861 13.5023C13.5861 17.0882 16.4902 20.0056 20.0595 20.0056Z" fill="#7188FF"/>
</g>
</svg>
