<svg width="39" height="39" viewBox="0 0 39 39" fill="none" xmlns="http://www.w3.org/2000/svg">
<circle cx="19.5" cy="19.5" r="18.537" fill="#966D1A"/>
<path fill-rule="evenodd" clip-rule="evenodd" d="M23.3408 14.6251C23.3408 14.1418 22.949 13.7501 22.4658 13.7501H16.4658C15.9825 13.7501 15.5908 14.1418 15.5908 14.6251V18.1251C15.5908 18.6083 15.9825 19.0001 16.4658 19.0001H22.4658C22.949 19.0001 23.3408 18.6083 23.3408 18.1251V14.6251ZM15.5965 21.8751C15.5965 21.3918 15.9882 21.0001 16.4715 21.0001H22.4225C22.9058 21.0001 23.2975 21.3918 23.2975 21.8751C23.2975 22.3583 22.9058 22.7501 22.4225 22.7501H16.4715C15.9882 22.7501 15.5965 22.3583 15.5965 21.8751ZM15.5965 25.375C15.5965 24.8918 15.9882 24.5 16.4715 24.5H22.4225C22.9058 24.5 23.2975 24.8918 23.2975 25.375C23.2975 25.8583 22.9058 26.25 22.4225 26.25H16.4715C15.9882 26.25 15.5965 25.8583 15.5965 25.375ZM27.0909 9H12.0908C11.5386 9 11.0908 9.44775 11.0908 10V30.0001C11.0908 30.5523 11.5386 31.0001 12.0908 31.0001H27.0909C27.6431 31.0001 28.0909 30.5523 28.0909 30.0001V10C28.0909 9.44775 27.6431 9 27.0909 9Z" fill="#FFD071"/>
</svg>
