<svg width="39" height="39" viewBox="0 0 39 39" fill="none" xmlns="http://www.w3.org/2000/svg">
<circle cx="19.5" cy="19.5" r="18.537" fill="#644219"/>
<path d="M27.1367 9H14.3856C14.2069 9 14.0356 9.07102 13.9092 9.19739L11.3868 11.7197C11.2605 11.8461 11.1895 12.0175 11.1895 12.1962V31.3262C11.1895 31.6983 11.4911 32 11.8633 32H27.1367C27.5089 32 27.8105 31.6983 27.8105 31.3262V9.67383C27.8105 9.3017 27.5089 9 27.1367 9ZM18.1523 24.7227H14.5586C14.1865 24.7227 13.8848 24.421 13.8848 24.0488C13.8848 23.6767 14.1865 23.375 14.5586 23.375H18.1523C18.5245 23.375 18.8262 23.6767 18.8262 24.0488C18.8262 24.421 18.5245 24.7227 18.1523 24.7227ZM24.7973 27.7189C24.3672 27.9865 23.8587 28.0701 23.3653 27.9545C23.0142 27.8722 22.701 27.6959 22.4536 27.4456L21.734 28.9255C21.5721 29.2586 21.1696 29.4004 20.8334 29.2369C20.4987 29.0741 20.3593 28.6709 20.522 28.3362L21.7519 25.8067C21.9837 25.3299 22.6523 25.2959 22.931 25.747L23.3336 26.3983C23.4924 26.6551 23.829 26.7341 24.0854 26.5746C24.4015 26.378 24.817 26.4749 25.0135 26.7909C25.2101 27.1068 25.1133 27.5224 24.7973 27.7189ZM24.4414 22.0273H14.5586C14.1865 22.0273 13.8848 21.7256 13.8848 21.3535C13.8848 20.9814 14.1865 20.6797 14.5586 20.6797H24.4414C24.8135 20.6797 25.1152 20.9814 25.1152 21.3535C25.1152 21.7256 24.8135 22.0273 24.4414 22.0273ZM24.4414 19.332H14.5586C14.1865 19.332 13.8848 19.0303 13.8848 18.6582C13.8848 18.2861 14.1865 17.9844 14.5586 17.9844H24.4414C24.8135 17.9844 25.1152 18.2861 25.1152 18.6582C25.1152 19.0303 24.8135 19.332 24.4414 19.332ZM25.1152 15.9629C25.1152 16.335 24.8135 16.6367 24.4414 16.6367H20.8477C20.4755 16.6367 20.1738 16.335 20.1738 15.9629V12.3691C20.1738 11.997 20.4755 11.6953 20.8477 11.6953H24.4414C24.8135 11.6953 25.1152 11.997 25.1152 12.3691V15.9629Z" fill="#FFB571"/>
</svg>
