<?xml version="1.0" encoding="UTF-8"?>
<svg width="196px" height="191px" viewBox="0 0 196 191" version="1.1" xmlns="http://www.w3.org/2000/svg" xmlns:xlink="http://www.w3.org/1999/xlink">
    <!-- Generator: Sketch 49.3 (51167) - http://www.bohemiancoding.com/sketch -->
    <title>github</title>
    <desc>Created with Sketch.</desc>
    <defs></defs>
    <g id="contactIcons" stroke="none" stroke-width="1" fill="none" fill-rule="evenodd">
        <g id="github" fill="#8D8F91" fill-rule="nonzero">
            <path d="M98,0 C43.855,0 0,43.8457932 0,97.9247196 C0,141.199285 28.077,177.896574 67.0075,190.830797 C71.9075,191.752922 73.7041667,188.725416 73.7041667,186.12225 C73.7041667,183.796538 73.6225,177.635441 73.5816667,169.475048 C46.3213333,175.383173 40.572,156.336815 40.572,156.336815 C36.113,145.03467 29.6695,142.015325 29.6695,142.015325 C20.7923333,135.943992 30.3555,136.066398 30.3555,136.066398 C40.1963333,136.751871 45.3658333,146.152644 45.3658333,146.152644 C54.1041667,161.126966 68.306,156.801957 73.9083333,154.296716 C74.7903333,147.964251 77.3138333,143.647403 80.115,141.199285 C58.3508333,138.751167 35.476,130.329641 35.476,92.808153 C35.476,82.1180378 39.2735,73.3864169 45.5618333,66.5316866 C44.4593333,64.0590874 41.1518333,54.1034076 46.4193333,40.6142774 C46.4193333,40.6142774 54.6268333,37.9866308 73.3693333,50.6515612 C81.2093333,48.4727362 89.5393333,47.3955643 97.8693333,47.3466019 C106.199333,47.3955643 114.529333,48.4727362 122.369333,50.6515612 C140.989333,37.9866308 149.196833,40.6142774 149.196833,40.6142774 C154.464333,54.1034076 151.156833,64.0590874 150.176833,66.5316866 C156.424333,73.3864169 160.221833,82.1180378 160.221833,92.808153 C160.221833,130.427566 137.314333,138.710365 115.509333,141.117681 C118.939333,144.055423 122.124333,150.061472 122.124333,159.233754 C122.124333,172.339346 122.001833,182.866253 122.001833,186.048807 C122.001833,188.619331 123.716833,191.679478 128.739333,190.700231 C167.9475,177.855772 196,141.134002 196,97.9247196 C196,43.8457932 152.1205,4.98292109e-15 98,4.98292109e-15" id="Shape"></path>
        </g>
    </g>
</svg>