<?xml version="1.0" encoding="UTF-8"?>
<svg width="195px" height="199px" viewBox="0 0 195 199" version="1.1" xmlns="http://www.w3.org/2000/svg" xmlns:xlink="http://www.w3.org/1999/xlink">
    <!-- Generator: Sketch 49.3 (51167) - http://www.bohemiancoding.com/sketch -->
    <title>instagram</title>
    <desc>Created with Sketch.</desc>
    <defs></defs>
    <g id="contactIcons" stroke="none" stroke-width="1" fill="none" fill-rule="evenodd">
        <g id="instagram" fill="#8D8F91" fill-rule="nonzero">
            <path d="M97.5,0 C71.0125,0 67.705625,0.124375 57.305625,0.597 C46.921875,1.0945 39.853125,2.761125 33.6375,5.22375 C27.226875,7.761 21.783125,11.168875 16.36375,16.6994167 C10.944375,22.2299583 7.596875,27.7770833 5.11875,34.3275 C2.705625,40.670625 1.064375,47.884375 0.585,58.481125 C0.0975,69.0944583 0,72.4691667 0,99.5 C0,126.530833 0.121875,129.905542 0.585,140.518875 C1.0725,151.107333 2.705625,158.329375 5.11875,164.6725 C7.605,171.206333 10.944375,176.770042 16.36375,182.300583 C21.783125,187.822833 27.21875,191.247292 33.6375,193.77625 C39.86125,196.230583 46.93,197.913792 57.305625,198.403 C67.705625,198.9005 71.0125,199 97.5,199 C123.9875,199 127.294375,198.875625 137.694375,198.403 C148.07,197.9055 155.146875,196.230583 161.3625,193.77625 C167.765,191.239 173.216875,187.822833 178.63625,182.300583 C184.0475,176.770042 187.403125,171.231208 189.88125,164.6725 C192.28625,158.329375 193.935625,151.107333 194.415,140.518875 C194.9025,129.905542 195,126.530833 195,99.5 C195,72.4691667 194.878125,69.0944583 194.415,58.481125 C193.9275,47.8926667 192.28625,40.6623333 189.88125,34.3275 C187.395,27.785375 184.0475,22.2299583 178.63625,16.6994167 C173.216875,11.168875 167.789375,7.75270833 161.3625,5.22375 C155.146875,2.761125 148.07,1.08620833 137.694375,0.597 C127.294375,0.0995 123.9875,0 97.5,0 Z M97.5,17.91 C123.524375,17.91 126.628125,18.0426667 136.90625,18.4987083 C146.4125,18.95475 151.571875,20.5633333 155.000625,21.93975 C159.566875,23.7390417 162.800625,25.894875 166.229375,29.3690833 C169.63375,32.8515833 171.74625,36.1599583 173.509375,40.819875 C174.841875,44.3189583 176.434375,49.5841667 176.865,59.2854167 C177.328125,69.7826667 177.43375,72.9335 177.43375,99.5 C177.43375,126.0665 177.311875,129.225625 176.8325,139.714583 C176.336875,149.415833 174.7525,154.681042 173.411875,158.180125 C171.591875,162.840042 169.52,166.140125 166.1075,169.639208 C162.703125,173.113417 159.4125,175.26925 154.895,177.068542 C151.4825,178.428375 146.241875,180.053542 136.735625,180.493 C126.384375,180.965625 123.3375,181.073417 97.25625,181.073417 C71.166875,181.073417 68.12,180.949042 57.776875,180.459833 C48.2625,179.954042 43.021875,178.337167 39.609375,176.969042 C34.98625,175.111708 31.809375,172.997333 28.405,169.514833 C24.984375,166.040625 22.79875,162.6825 21.0925,158.072333 C19.751875,154.589833 18.175625,149.241708 17.68,139.540458 C17.314375,129.092958 17.184375,125.8675 17.184375,99.375625 C17.184375,72.8754583 17.314375,69.6417083 17.68,59.0698333 C18.175625,49.3685833 19.751875,44.02875 21.0925,40.54625 C22.79875,35.82 24.984375,32.58625 28.405,29.0954583 C31.809375,25.62125 34.98625,23.3825 39.609375,21.6495417 C43.021875,20.273125 48.14875,18.65625 57.655,18.15875 C68.014375,17.785625 71.06125,17.66125 97.134375,17.66125 L97.5,17.91 Z M97.5,48.40675 C69.834375,48.40675 47.43375,71.29175 47.43375,99.5 C47.43375,127.733125 69.85875,150.59325 97.5,150.59325 C125.165625,150.59325 147.56625,127.70825 147.56625,99.5 C147.56625,71.266875 125.14125,48.40675 97.5,48.40675 Z M97.5,132.666667 C79.54375,132.666667 65,117.824583 65,99.5 C65,81.1754167 79.54375,66.3333333 97.5,66.3333333 C115.45625,66.3333333 130,81.1754167 130,99.5 C130,117.824583 115.45625,132.666667 97.5,132.666667 Z M161.24875,46.391875 C161.24875,52.98375 156,58.331875 149.54875,58.331875 C143.089375,58.331875 137.84875,52.9754583 137.84875,46.391875 C137.84875,39.8082917 143.0975,34.4601667 149.54875,34.4601667 C155.991875,34.451875 161.24875,39.8082917 161.24875,46.391875 Z" id="Shape"></path>
        </g>
    </g>
</svg>