<?xml version="1.0" encoding="UTF-8"?>
<svg width="195px" height="195px" viewBox="0 0 195 195" version="1.1" xmlns="http://www.w3.org/2000/svg" xmlns:xlink="http://www.w3.org/1999/xlink">
    <!-- Generator: Sketch 49.3 (51167) - http://www.bohemiancoding.com/sketch -->
    <title>linkedin</title>
    <desc>Created with Sketch.</desc>
    <defs></defs>
    <g id="contactIcons" stroke="none" stroke-width="1" fill="none" fill-rule="evenodd">
        <g id="linkedin" fill="#8D8F91" fill-rule="nonzero">
            <path d="M166.131875,166.1725 L137.255625,166.1725 L137.255625,120.924375 C137.255625,110.134375 137.03625,96.24875 122.208125,96.24875 C107.1525,96.24875 104.853125,107.989375 104.853125,120.128125 L104.853125,166.1725 L75.976875,166.1725 L75.976875,73.125 L103.715625,73.125 L103.715625,85.808125 L104.089375,85.808125 C107.965,78.495625 117.39,70.776875 131.470625,70.776875 C160.72875,70.776875 166.14,90.033125 166.14,115.09875 L166.14,166.1725 L166.131875,166.1725 Z M43.363125,60.393125 C34.068125,60.393125 26.60125,52.869375 26.60125,43.615 C26.60125,34.36875 34.07625,26.853125 43.363125,26.853125 C52.625625,26.853125 60.133125,34.36875 60.133125,43.615 C60.133125,52.869375 52.6175,60.393125 43.363125,60.393125 Z M57.841875,166.1725 L28.884375,166.1725 L28.884375,73.125 L57.841875,73.125 L57.841875,166.1725 Z M180.578125,0 L14.389375,0 C6.435,0 0,6.28875 0,14.048125 L0,180.951875 C0,188.719375 6.435,195 14.389375,195 L180.55375,195 C188.5,195 195,188.719375 195,180.951875 L195,14.048125 C195,6.28875 188.5,0 180.55375,0 L180.578125,0 Z" id="Shape"></path>
        </g>
    </g>
</svg>