<?xml version="1.0" encoding="UTF-8"?>
<svg width="204px" height="192px" viewBox="0 0 204 192" version="1.1" xmlns="http://www.w3.org/2000/svg" xmlns:xlink="http://www.w3.org/1999/xlink">
    <!-- Generator: Sketch 49.3 (51167) - http://www.bohemiancoding.com/sketch -->
    <title>mail</title>
    <desc>Created with Sketch.</desc>
    <defs></defs>
    <g id="contactIcons" stroke="none" stroke-width="1" fill="none" fill-rule="evenodd">
        <g id="mail" transform="translate(5.000000, 5.000000)" fill="#8D8F91" fill-rule="nonzero" stroke="#8D8F91" stroke-width="10">
            <path d="M178.360893,182 L15.6391074,182 C7.01883142,182 0,172.746043 0,161.362272 L0,20.6377285 C0,9.25395745 7.01883142,0 15.6391074,0 L178.360893,0 C186.981169,0 194,9.25395745 194,20.6377285 L194,161.362272 C194,172.746043 186.981169,182 178.360893,182 Z M15.6391074,8.2550914 C10.4656907,8.2550914 6.25564298,13.8107679 6.25564298,20.6377285 L6.25564298,161.362272 C6.25564298,168.189232 10.4656907,173.744909 15.6391074,173.744909 L178.360893,173.744909 C183.534309,173.744909 187.744357,168.189232 187.744357,161.362272 L187.744357,20.6377285 C187.744357,13.8107679 183.534309,8.2550914 178.360893,8.2550914 L15.6391074,8.2550914 Z" id="Shape"></path>
            <path d="M98.0519144,91 C93.8842663,91 89.7166182,89.577463 86.5454454,86.7388258 L6.0753678,14.6400163 C4.77180268,13.474952 4.6339256,11.4409172 5.76827794,10.0956221 C6.91516456,8.7567637 8.88931365,8.63446414 10.1928788,9.78665474 L90.6629563,81.8790275 C94.6676588,85.4643357 101.43617,85.4643357 105.434605,81.8790275 L185.804409,9.90251748 C187.101707,8.73745324 189.075856,8.86618962 190.229009,10.2114848 C191.363362,11.55678 191.231752,13.5843779 189.928187,14.755879 L109.558383,86.732389 C106.380943,89.577463 102.219563,91 98.0519144,91 Z" id="Shape"></path>
        </g>
    </g>
</svg>