<?xml version="1.0" encoding="UTF-8"?>
<svg width="103px" height="159px" viewBox="0 0 103 159" version="1.1" xmlns="http://www.w3.org/2000/svg" xmlns:xlink="http://www.w3.org/1999/xlink">
    <title>noun_Hiker_31779</title>
    <g id="PECSS" stroke="none" stroke-width="1" fill="none" fill-rule="evenodd">
        <g id="Artboard" transform="translate(-944.000000, -118.000000)" fill-rule="nonzero" stroke="#FFCC00" stroke-width="7">
            <g id="Group" transform="translate(948.000000, 122.000000)">
                <path d="M82.7763158,11.7727508 C82.7763158,18.2737331 77.5397382,23.5483871 71.0629185,23.5483871 C64.5947117,23.5483871 59.3552632,18.2766185 59.3552632,11.7727508 C59.3552632,5.27176856 64.5947117,7.10542736e-15 71.0629185,7.10542736e-15 C77.5397382,7.10542736e-15 82.7763158,5.27176856 82.7763158,11.7727508 Z" id="Path"></path>
                <path d="M33.9597711,25.9538283 C34.0310599,19.6566695 29.0465472,14.4923635 22.8273126,14.4201153 C17.3380752,14.3565368 12.7271159,18.2868424 11.6720417,23.5465161 L0.262982642,68.7565906 C0.126108152,69.2767781 0.0719286669,69.7969657 0.0519678038,70.3113733 C0.0291553889,70.5974764 0.00349142208,70.8806896 0.000639870208,71.1639028 C-0.0649458228,77.4697314 4.91956684,82.6340374 11.1388015,82.7096774 C15.7839795,82.7554145 20.3464625,79.5996103 21.5498173,75.8976092 C21.8378241,75.0942085 33.5634054,28.8784381 33.5947724,28.7079322 C33.8171935,27.8207235 33.9512164,26.9075054 33.9597711,25.9538283 Z" id="Path"></path>
                <path d="M92.0480592,67.0630291 L73.0388745,60.2097331 L64.5100279,36.5152577 C62.3928167,32.3743632 58.9841353,29.4942439 54.9668629,28.7452973 C45.5408445,26.9640186 42.2493097,37.8541083 42.2493097,37.8541083 L35.2319405,67.6963083 L55.1468687,55.9416045 L53.3382389,51.985778 C52.9439405,51.1240556 53.315381,50.1032904 54.1668371,49.7129128 C55.0125786,49.3080767 56.0211826,49.6839959 56.415481,50.5486101 L58.7927006,55.7362948 C58.7955578,55.7507533 58.8069868,55.7594283 58.8127012,55.7652117 C58.8327019,55.7941285 58.8298446,55.8201537 58.8412736,55.8490706 L63.4299931,65.8629794 L63.8900079,66.8114524 C64.158588,67.3464143 65.1300479,68.3498294 66.0300769,68.7228569 L84.4906725,75.850863 L72.7017207,96.3644838 L57.2440792,81.6747187 L60.3384647,67.2885806 L56.5783434,59.0704088 L34.1433339,72.3143309 L25.4601966,109.200678 L7.08531812,138.296823 C6.40529619,139.265538 6.06242798,140.419321 6.06242798,141.798655 C5.79099065,144.129354 6.40529619,146.150642 7.89391564,147.879871 C9.38253509,149.591749 11.2883109,150.583597 13.5912423,150.864091 C16.9827803,151.130126 19.5600063,149.756575 21.3200631,146.737655 L40.9235527,115.602871 C41.32928,114.770066 41.8692975,113.613391 42.5550339,112.083689 L46.4523025,95.4680611 L64.5700298,110.50772 L43.152196,147.767095 C42.5636056,148.790752 42.909331,150.106469 43.9207922,150.705048 C44.257946,150.904574 44.623672,151 44.9865409,151 C45.7151358,151 46.4265873,150.612514 46.8208858,149.930076 L65.118619,118.092613 L65.0929038,143.331249 C65.9129303,147.315992 68.4215827,149.513673 72.6274326,149.930076 C74.9303641,150.065985 76.9304286,149.383547 78.6276262,147.871196 C80.3191094,146.347277 81.2334246,144.49949 81.3677146,142.310483 C81.3677146,141.888297 81.3677146,141.283935 81.3677146,140.451129 L81.2134239,108.969343 C81.2134239,106.482493 80.6448342,104.001427 79.0847838,102.425458 L75.8846806,99.3718373 L88.6393778,77.1665801 C92.0280585,77.3718898 94.4624228,75.4200018 94.9538672,72.0338374 C95.2824492,69.7985641 93.808116,67.7310086 92.0480592,67.0630291 Z" id="Path"></path>
            </g>
        </g>
    </g>
</svg>