<?xml version="1.0" encoding="UTF-8"?>
<svg width="148px" height="148px" viewBox="0 0 148 148" version="1.1" xmlns="http://www.w3.org/2000/svg" xmlns:xlink="http://www.w3.org/1999/xlink">
    <title>Group 2</title>
    <g id="PECSS" stroke="none" stroke-width="1" fill="none" fill-rule="evenodd">
        <g id="Artboard" transform="translate(-323.000000, -127.000000)" fill="#FFCC00" fill-rule="nonzero" stroke="#FFCC00" stroke-width="2">
            <g id="Group-2" transform="translate(324.000000, 128.000000)">
                <g id="noun_Record_2265518" transform="translate(36.000000, 62.000000)">
                    <path d="M22,23.7948718 C22,28.3076923 18.7073171,32 14.6829268,32 L14.3170732,32 C10.2926829,32 7,28.3076923 7,23.7948718 L7,8.20512821 C7,3.69230769 10.2926829,0 14.3170732,0 L14.6829268,0 C18.7073171,0 22,3.69230769 22,8.20512821 L22,23.7948718 Z" id="Path"></path>
                    <path d="M17,40 L17,44 L22.0609167,44 L22.2056445,44.0054852 C23.2090583,44.0818264 24,44.9455455 24,46 C24,47.1046667 23.131937,48 22.0609167,48 L22.0609167,48 L6.9390833,48 C5.86827841,48 5,47.1046667 5,46 C5,44.8953333 5.86806296,44 6.9390833,44 L6.9390833,44 L13,44 L13,40 L17,40 Z M27.134664,26 C28.1643784,25.999369 28.9993772,26.8468016 29,27.8928872 L29,27.8928872 L28.9945788,28.2275339 C28.9065597,30.9016234 27.7495926,33.4955462 25.7142754,35.5654448 C22.9447557,38.3817322 18.8596625,39.9978936 14.5056959,40 C10.1523507,40.0021023 6.06560031,38.3897289 3.29359494,35.576598 C1.17098703,33.422558 0.00124302017,30.6986527 0,27.9069866 L0,27.9069866 L0.00555062108,27.7589616 C0.0794928462,26.7820349 0.882987368,26.0125966 1.86347051,26.0119953 C2.89297781,26.011364 3.72818373,26.8590069 3.72859802,27.9048822 L3.72859802,27.9048822 L3.73579178,28.2050746 C3.81626291,29.9016285 4.57038653,31.5179801 5.92888505,32.8968847 C8.00654264,35.0054702 11.1321434,36.2138033 14.5040387,36.2121198 C17.8765555,36.2104363 21.0009134,34.9989466 23.0767066,32.8882567 C24.5136668,31.4269775 25.2726436,29.7003364 25.2718151,27.8947812 C25.2711936,26.8489059 26.1049496,26.0006317 27.134664,26 Z" id="Path-2"></path>
                </g>
                <g id="noun_chat_2132223">
                    <path d="M30.6057455,0 C23.9134229,0 18.4693793,5.42367195 18.4693793,12.0891992 L18.4693793,42.8646875 L10.299735,42.8646875 C4.62092339,42.8646875 0,47.4671094 0,53.1231836 L0,143.08 C0,144.170723 0.609824455,145.170195 1.58325337,145.67207 C2.00698104,145.891641 2.47079114,146 2.9317384,146 C3.52581619,146 4.11846271,145.820352 4.62235525,145.465332 L29.0611433,128.283242 L92.8407686,128.283242 C98.5181486,128.283242 103.139072,123.682246 103.140504,118.024746 L103.140504,105.382344 L110.62159,105.382344 L141.377645,127.011446 C141.881537,127.366465 142.474184,127.546114 143.068262,127.546114 C143.529209,127.546114 143.991587,127.437754 144.416747,127.218184 C145.388744,126.716309 146,125.716836 146,124.626114 L146,12.0891992 C146,5.42367195 140.554525,0 133.862202,0 L30.6057455,0 Z M96.6756757,103.094902 C96.6756757,103.099895 96.6728331,103.103996 96.6728331,103.108989 C96.6728331,103.113982 96.6756757,103.118083 96.6756757,103.123076 L96.6756757,118.677784 C96.6742544,121.115669 94.698748,123.099927 92.2712911,123.099927 L28.0261155,123.099927 C27.4249361,123.099927 26.8379693,123.286798 26.3476455,123.634863 L5.91891892,138.108108 L5.9203402,53.7450404 C5.9203402,51.3071559 7.89584656,49.3243243 10.3233035,49.3243243 L21.337818,49.3243243 C21.3403052,49.3243243 21.3424369,49.3257509 21.3449241,49.3257509 C21.3474113,49.3257509 21.3495431,49.3243243 21.3520302,49.3243243 L92.2712911,49.3243243 C94.7001693,49.3243243 96.6756757,51.3071559 96.6756757,53.7450404 L96.6756757,103.094902 Z M140.081081,12.12998 L140.081081,118.378378 L113.047503,99.5808137 C112.551065,99.2350463 111.956778,99.0494086 111.348101,99.0494086 L102.892823,99.0494086 L102.892823,52.9135391 C102.892823,47.2919832 98.2478885,42.7176493 92.5395687,42.7176493 L23.6756757,42.7176493 L23.6756757,12.12998 C23.6756757,8.70489786 26.5046541,5.91891892 29.9811605,5.91891892 L133.774158,5.91891892 C137.252103,5.91891892 140.081081,8.70489786 140.081081,12.12998 Z" id="Shape"></path>
                </g>
            </g>
        </g>
    </g>
</svg>