<?xml version="1.0" encoding="UTF-8"?>
<svg width="198px" height="136px" viewBox="0 0 198 136" version="1.1" xmlns="http://www.w3.org/2000/svg" xmlns:xlink="http://www.w3.org/1999/xlink">
    <title>noun_choosing_3096000</title>
    <g id="PECSS-Copy" stroke="none" stroke-width="1" fill="none" fill-rule="evenodd">
        <g id="Artboard-Copy" transform="translate(-701.000000, -441.000000)" fill="#FFCC00" fill-rule="nonzero">
            <g id="noun_choosing_3096000" transform="translate(701.000000, 441.000000)">
                <path d="M16.499352,85 C23.1729185,85 29.1894542,80.9802317 31.7434316,74.8147075 C34.297409,68.6491832 32.8858601,61.552276 28.1669941,56.8332937 C23.4481282,52.1143113 16.3512558,50.7025874 10.1856685,53.2564128 C4.02008122,55.8102381 0,61.8266746 0,68.5002412 C0.010256357,77.6083958 7.39119756,84.989519 16.499352,85 Z M16.499352,60.1385067 C19.8813962,60.1385067 22.9305121,62.1755158 24.2248758,65.3000711 C25.5192395,68.4246263 24.8039423,72.0212249 22.4125323,74.4127477 C20.0211224,76.8042705 16.4245576,77.5197375 13.2999412,76.2255213 C10.1753248,74.9313051 8.13801218,71.8822854 8.13801218,68.5002412 C8.14327231,63.8845174 11.8836284,60.1439847 16.499352,60.1385067 Z" id="Shape"></path>
                <path d="M91.9075602,64 L41.0924193,64 C38.8322385,64 37,65.790861 37,68 C37,70.209139 38.8322385,72 41.0924193,72 L91.9075807,72 C94.1677615,72 96,70.209139 96,68 C96,65.790861 94.1677615,64 91.9075807,64 L91.9075602,64 Z" id="Path"></path>
                <path d="M24.500379,1.130053 C18.2834786,-1.29665392 11.2168861,0.260532628 6.59582147,5.07548159 C1.97475686,9.89043055 0.709286787,17.014892 3.3895121,23.126661 C6.06973741,29.23843 12.1678179,33.1338625 18.8401601,32.9964809 C25.5125022,32.8590994 31.4450634,28.7159595 33.8714332,22.4990472 C37.1743136,14.0106925 32.981943,4.45074965 24.500379,1.130053 Z M26.2905093,19.5403386 C25.0608595,22.6911524 22.054193,24.7909688 18.6725856,24.8605968 C15.2909782,24.9302247 12.2004217,22.9559511 10.8421115,19.8584239 C9.48380133,16.7608967 10.1252504,13.1501594 12.4673367,10.7099794 C14.809423,8.26979939 18.3908834,7.48075877 21.5416032,8.71080479 C25.8395282,10.3941296 27.9639076,15.2386216 26.2905093,19.5403386 L26.2905093,19.5403386 Z" id="Shape"></path>
                <path d="M40.6279463,29.0059047 L88.3716865,47.7163318 C89.7453925,48.254645 91.3007805,48.0162433 92.4519509,47.0909303 C93.6031212,46.1656172 94.1751838,44.6939699 93.9526482,43.2303437 C93.7301125,41.7667174 92.7467871,40.5334719 91.3730811,39.9951588 L43.6293368,21.2847318 C41.5057714,20.4525729 39.1123974,21.5064183 38.2835863,23.6385613 C37.4547752,25.7707044 38.504381,28.1737458 40.6279463,29.0059047 Z" id="Path"></path>
                <path d="M24.780584,104.69497 C17.7173296,101.221098 9.18376511,103.220472 4.39872709,109.470342 C-0.386310923,115.720213 -0.090105892,124.479882 5.1061933,130.392236 C10.3024925,136.30459 18.9516259,137.722934 25.7640789,133.779858 C32.5765318,129.836782 35.6549174,121.630501 33.1166001,114.179696 C31.716149,110.0317 28.7144511,106.616366 24.780584,104.69497 Z M25.002693,123.189607 C23.2425551,126.769361 19.1987988,128.607232 15.3444653,127.579233 C11.4901319,126.551234 8.89873086,122.943684 9.15508617,118.962853 C9.41144149,114.982021 12.4441531,111.736651 16.3985045,111.211514 C20.3528559,110.686377 24.1274807,113.027734 25.4139303,116.803681 C26.135003,118.90185 25.9869267,121.201267 25.002693,123.189619 L25.002693,123.189607 Z" id="Shape"></path>
                <path d="M88.5229185,89.2219377 L39.8131826,105.893382 C38.409804,106.371606 37.3673899,107.566272 37.0792122,109.026668 C36.7910346,110.487064 37.3009548,111.990913 38.4165952,112.970858 C39.5322356,113.950803 41.0837924,114.257692 42.4859092,113.775747 L91.1956492,97.1043027 C93.3594973,96.3608397 94.5149345,93.9969453 93.7775018,91.8221231 C93.040069,89.6473009 90.6885245,88.4836593 88.5229185,89.2219377 L88.5229185,89.2219377 Z" id="Path"></path>
                <path d="M181.202156,20 L119.797844,20 C110.525004,20.0105012 103.010501,27.525004 103,36.7978437 L103,98.2021563 C103.010499,107.474997 110.525003,114.989501 119.797844,115 L181.202156,115 C190.474997,114.989501 197.989501,107.474997 198,98.2021563 L198,36.7978437 C197.989501,27.5250031 190.474997,20.0104989 181.202156,20 Z M189.80593,63.402965 L111.19407,63.402965 L111.19407,52.8226956 L189.80593,52.8226956 L189.80593,63.402965 Z M111.19407,71.597035 L189.80593,71.597035 L189.80593,82.1773085 L111.19407,82.1773085 L111.19407,71.597035 Z M119.797844,28.1940701 L181.202156,28.1940701 C185.951623,28.1995361 189.800464,32.0483767 189.80593,36.7978437 L189.80593,44.6286256 L111.19407,44.6286256 L111.19407,36.7978437 C111.199538,32.0483776 115.048378,28.1995383 119.797844,28.1940701 L119.797844,28.1940701 Z M181.202156,106.80593 L119.797844,106.80593 C115.048377,106.800464 111.199536,102.951623 111.19407,98.2021563 L111.19407,90.3713785 L189.80593,90.3713785 L189.80593,98.2021563 C189.800464,102.951623 185.951623,106.800464 181.202156,106.80593 L181.202156,106.80593 Z" id="Shape"></path>
            </g>
        </g>
    </g>
</svg>