<?xml version="1.0" encoding="UTF-8"?>
<svg width="138px" height="138px" viewBox="0 0 138 138" version="1.1" xmlns="http://www.w3.org/2000/svg" xmlns:xlink="http://www.w3.org/1999/xlink">
    <title>noun_Safety_3377380</title>
    <g id="PECSS-Copy" stroke="none" stroke-width="1" fill="none" fill-rule="evenodd">
        <g id="Artboard-Copy" transform="translate(-140.000000, -440.000000)" fill="#FFCC00" fill-rule="nonzero" stroke="#FFCC00" stroke-width="2">
            <g id="noun_Safety_3377380" transform="translate(141.000000, 441.000000)">
                <path d="M68.9224138,114.75 L7.42241379,114.75 C5.66557696,114.75 4.24137931,113.322908 4.24137931,111.5625 L4.24137931,25.5 L118.758621,25.5 L118.758621,48.875 C118.758621,50.0486051 119.708086,51 120.87931,51 C122.050535,51 123,50.0486051 123,48.875 L123,7.4375 C123,3.32988217 119.676872,0 115.577586,0 L7.42241379,0 C3.32312785,0 0,3.32988217 0,7.4375 L0,111.5625 C0,115.670118 3.32312785,119 7.42241379,119 L68.9224138,119 C70.0936383,119 71.0431034,118.048605 71.0431034,116.875 C71.0431034,115.701395 70.0936383,114.75 68.9224138,114.75 Z M4.24137931,7.4375 C4.24137931,5.67709236 5.66557696,4.25 7.42241379,4.25 L115.683621,4.25 C117.440458,4.25 118.864655,5.67709236 118.864655,7.4375 L118.864655,21.25 L4.24137931,21.25 L4.24137931,7.4375 Z" id="Shape"></path>
                <circle id="Oval" cx="108" cy="13" r="2"></circle>
                <circle id="Oval" cx="100" cy="13" r="2"></circle>
                <circle id="Oval" cx="91" cy="13" r="2"></circle>
                <path d="M135.484173,57.3196458 C135.417015,56.1833393 134.490262,55.2973947 133.370919,55.2994455 C133.244124,55.2994455 119.972886,55.2027338 112.967448,52.441077 C107.515252,50.2919278 103.764225,44.9190546 103.732526,44.9190546 C103.337261,44.3431563 102.690243,44 101.999658,44 C101.309073,44 100.662055,44.3431563 100.266789,44.9190546 C100.266789,44.9727834 96.5157627,50.2919278 91.0424339,52.441077 C84.0369956,55.2027338 70.7551918,55.2994455 70.6283966,55.2994455 C69.5090538,55.2973947 68.5823011,56.1833393 68.5151422,57.3196458 C68.2509854,61.7254018 66.1060322,100.657241 73.0903379,110.66153 C77.4753408,116.958538 84.5864418,121.643683 90.3027948,125.404694 C94.7934604,128.359774 99.8969697,131.701701 99.8969697,133.850851 C99.8969697,135.037793 100.843106,136 102.010224,136 C103.177342,136 104.123478,135.037793 104.123478,133.850851 C104.123478,131.701701 109.216422,128.359774 113.696521,125.404694 C119.412874,121.643683 126.523975,116.958538 130.919544,110.66153 C137.893283,100.657241 135.74833,61.7254018 135.484173,57.3196458 Z M127.464373,108.179263 C123.544286,113.799288 117.09886,118.043858 111.40364,121.794123 C107.494119,124.362357 104.081213,126.608218 102.010224,128.983028 C99.8969697,126.608218 96.526329,124.362357 92.6168084,121.794123 C86.9321541,118.043858 80.476162,113.799288 76.5560751,108.179263 C71.6427587,101.130053 72.0020119,72.3744363 72.6465545,59.554761 C76.8307982,59.4150663 86.5095032,58.834796 92.5745433,56.4814776 C96.1962033,54.9342719 99.4232383,52.5675192 102.010224,49.561217 C104.599464,52.5649989 107.825885,54.9313008 111.445905,56.4814776 C117.510945,58.8670333 127.210783,59.4473036 131.373894,59.5869983 C132.018436,72.3744363 132.37769,101.130053 127.464373,108.179263 Z" id="Shape"></path>
                <path d="M113.420357,77.5487022 L97.9993961,92.8633044 L88.579643,83.5191621 C87.7314916,82.7586285 86.4316792,82.7926764 85.6250778,83.5965552 C84.8184763,84.4004341 84.7887933,85.691394 85.5576062,86.5309984 L96.4776612,97.3757375 C96.8796741,97.7754221 97.4251893,98 97.9940379,98 C98.5628864,98 99.1084016,97.7754221 99.5104145,97.3757375 L116.442394,80.5605385 C117.211207,79.7209341 117.181524,78.4299742 116.374922,77.6260953 C115.568321,76.8222165 114.268508,76.7881686 113.420357,77.5487022 L113.420357,77.5487022 Z" id="Path"></path>
                <path d="M52.8947368,85 L17.1052632,85 C15.9425584,85 15,85.8954305 15,87 C15,88.1045695 15.9425584,89 17.1052632,89 L52.8947368,89 C54.0574416,89 55,88.1045695 55,87 C55,85.8954305 54.0574416,85 52.8947368,85 Z" id="Path"></path>
                <path d="M52.8947368,98 L17.1052632,98 C15.9425584,98 15,98.8954305 15,100 C15,101.104569 15.9425584,102 17.1052632,102 L52.8947368,102 C54.0574416,102 55,101.104569 55,100 C55,98.8954305 54.0574416,98 52.8947368,98 Z" id="Path"></path>
                <path d="M39.2105263,76 L30.7894737,76 C28.4874426,75.9445054 26.634442,74.0915048 26.5789474,71.7894737 L26.5789474,64.4210526 L19.2105263,64.4210526 C16.9084952,64.365558 15.0554946,62.5125574 15,60.2105263 L15,51.7894737 C15.0607697,49.4897061 16.9107587,47.6397171 19.2105263,47.5789474 L26.5789474,47.5789474 L26.5789474,40.2105263 C26.6397171,37.9107587 28.4897061,36.0607697 30.7894737,36 L39.2105263,36 C41.5102939,36.0607697 43.3602829,37.9107587 43.4210526,40.2105263 L43.4210526,47.5789474 L50.7894737,47.5789474 C53.0892413,47.6397171 54.9392303,49.4897061 55,51.7894737 L55,60.2105263 C54.9392303,62.5102939 53.0892413,64.3602829 50.7894737,64.4210526 L43.4210526,64.4210526 L43.4210526,71.7894737 C43.365558,74.0915048 41.5125574,75.9445054 39.2105263,76 Z M39.2105263,62.3157895 C39.2105263,61.1530847 40.1530847,60.2105263 41.3157895,60.2105263 L50.7894737,60.2105263 L50.7894737,51.7894737 L41.3157895,51.7894737 C40.1530847,51.7894737 39.2105263,50.8469153 39.2105263,49.6842105 L39.2105263,40.2105263 L30.7894737,40.2105263 L30.7894737,49.6842105 C30.7894737,50.8469153 29.8469153,51.7894737 28.6842105,51.7894737 L19.2105263,51.7894737 L19.2105263,60.2105263 L28.6842105,60.2105263 C29.8469153,60.2105263 30.7894737,61.1530847 30.7894737,62.3157895 L30.7894737,71.7894737 L39.2105263,71.7894737 L39.2105263,62.3157895 Z" id="Shape"></path>
            </g>
        </g>
    </g>
</svg>