<svg version="1.1" viewBox="0.0 0.0 600.0 371.0" fill="none" stroke="none" stroke-linecap="square" stroke-miterlimit="10" width="600" height="371" xmlns:xlink="http://www.w3.org/1999/xlink" xmlns="http://www.w3.org/2000/svg"><path fill="#ffffff" d="M0 0L600.0 0L600.0 371.0L0 371.0L0 0Z" fill-rule="nonzero"/><path stroke="#cccccc" stroke-width="1.0" stroke-linecap="butt" d="M41.5 278.5L467.5 278.5" fill-rule="nonzero"/><path stroke="#cccccc" stroke-width="1.0" stroke-linecap="butt" d="M41.5 215.5L467.5 215.5" fill-rule="nonzero"/><path stroke="#cccccc" stroke-width="1.0" stroke-linecap="butt" d="M41.5 151.5L467.5 151.5" fill-rule="nonzero"/><path stroke="#cccccc" stroke-width="1.0" stroke-linecap="butt" d="M41.5 88.5L467.5 88.5" fill-rule="nonzero"/><path stroke="#cccccc" stroke-width="1.0" stroke-linecap="butt" d="M41.5 25.5L467.5 25.5" fill-rule="nonzero"/><clipPath id="id_0"><path d="M41.55 25.05L467.19 25.05L467.19 278.9213L41.55 278.9213L41.55 25.05Z" clip-rule="nonzero"/></clipPath><path stroke="#000000" stroke-width="0.0" stroke-linecap="butt" stroke-opacity="0.0" clip-path="url(#id_0)" d="M121.0 279.0L69.0 279.0L69.0 129.0C69.0 127.89543 69.89543 127.0 71.0 127.0L119.0 127.0C120.10457 127.0 121.0 127.89543 121.0 129.0Z" fill-rule="nonzero"/><path fill="#edb03c" clip-path="url(#id_0)" d="M121.0 279.0L69.0 279.0L69.0 129.0C69.0 127.89543 69.89543 127.0 71.0 127.0L119.0 127.0C120.10457 127.0 121.0 127.89543 121.0 129.0Z" fill-rule="nonzero"/><path stroke="#000000" stroke-width="0.0" stroke-linecap="butt" stroke-opacity="0.0" clip-path="url(#id_0)" d="M201.0 279.0L149.0 279.0L149.0 78.0C149.0 76.89543 149.89543 76.0 151.0 76.0L199.0 76.0C200.10457 76.0 201.0 76.89543 201.0 78.0Z" fill-rule="nonzero"/><path fill="#edb03c" clip-path="url(#id_0)" d="M201.0 279.0L149.0 279.0L149.0 78.0C149.0 76.89543 149.89543 76.0 151.0 76.0L199.0 76.0C200.10457 76.0 201.0 76.89543 201.0 78.0Z" fill-rule="nonzero"/><path stroke="#000000" stroke-width="0.0" stroke-linecap="butt" stroke-opacity="0.0" clip-path="url(#id_0)" d="M280.0 279.0L228.0 279.0L228.0 129.0C228.0 127.89543 228.89543 127.0 230.0 127.0L278.0 127.0C279.10458 127.0 280.0 127.89543 280.0 129.0Z" fill-rule="nonzero"/><path fill="#edb03c" clip-path="url(#id_0)" d="M280.0 279.0L228.0 279.0L228.0 129.0C228.0 127.89543 228.89543 127.0 230.0 127.0L278.0 127.0C279.10458 127.0 280.0 127.89543 280.0 129.0Z" fill-rule="nonzero"/><path stroke="#000000" stroke-width="0.0" stroke-linecap="butt" stroke-opacity="0.0" clip-path="url(#id_0)" d="M360.0 279.0L308.0 279.0L308.0 103.0C308.0 101.89543 308.89542 101.0 310.0 101.0L358.0 101.0C359.10458 101.0 360.0 101.89543 360.0 103.0Z" fill-rule="nonzero"/><path fill="#edb03c" clip-path="url(#id_0)" d="M360.0 279.0L308.0 279.0L308.0 103.0C308.0 101.89543 308.89542 101.0 310.0 101.0L358.0 101.0C359.10458 101.0 360.0 101.89543 360.0 103.0Z" fill-rule="nonzero"/><path stroke="#000000" stroke-width="0.0" stroke-linecap="butt" stroke-opacity="0.0" clip-path="url(#id_0)" d="M439.0 279.0L387.0 279.0L387.0 103.0C387.0 101.89543 387.89542 101.0 389.0 101.0L437.0 101.0C438.10458 101.0 439.0 101.89543 439.0 103.0Z" fill-rule="nonzero"/><path fill="#edb03c" clip-path="url(#id_0)" d="M439.0 279.0L387.0 279.0L387.0 103.0C387.0 101.89543 387.89542 101.0 389.0 101.0L437.0 101.0C438.10458 101.0 439.0 101.89543 439.0 103.0Z" fill-rule="nonzero"/><path stroke="#edb03c" stroke-width="3.0" stroke-linejoin="round" stroke-linecap="round" d="M88.78125 138.60164L89.59375 138.60164Q90.375 138.58601 90.8125 138.19539Q91.25 137.80476 91.25 137.13289Q91.25 135.63289 89.75 135.63289Q89.046875 135.63289 88.625 136.03914Q88.21875 136.44539 88.21875 137.10164L87.125 137.10164Q87.125 136.08601 87.859375 135.41414Q88.609375 134.74226 89.75 134.74226Q90.953125 134.74226 91.640625 135.38289Q92.328125 136.02351 92.328125 137.16414Q92.328125 137.72664 91.96875 138.24226Q91.609375 138.75789 90.984375 139.02351Q91.6875 139.24226 92.0625 139.75789Q92.453125 140.27351 92.453125 141.02351Q92.453125 142.16414 91.703125 142.85164Q90.953125 143.52351 89.75 143.52351Q88.5625 143.52351 87.796875 142.86726Q87.046875 142.21101 87.046875 141.14851L88.140625 141.14851Q88.140625 141.82039 88.578125 142.22664Q89.015625 142.63289 89.765625 142.63289Q90.546875 142.63289 90.953125 142.22664Q91.375 141.80476 91.375 141.03914Q91.375 140.30476 90.921875 139.91414Q90.46875 139.50789 89.59375 139.49226L88.78125 139.49226L88.78125 138.60164ZM94.34375 142.83601Q94.34375 142.55476 94.5 142.36726Q94.671875 142.17976 95.0 142.17976Q95.34375 142.17976 95.515625 142.36726Q95.6875 142.55476 95.6875 142.83601Q95.6875 143.10164 95.515625 143.28914Q95.34375 143.46101 95.0 143.46101Q94.671875 143.46101 94.5 143.28914Q94.34375 143.10164 94.34375 142.83601ZM101.78125 140.53914L102.96875 140.53914L102.96875 141.41414L101.78125 141.41414L101.78125 143.39851L100.703125 143.39851L100.703125 141.41414L96.8125 141.41414L96.8125 140.77351L100.625 134.86726L101.78125 134.86726L101.78125 140.53914ZM98.046875 140.53914L100.703125 140.53914L100.703125 136.35164L100.5625 136.58601L98.046875 140.53914Z" fill-rule="nonzero"/><path fill="#434343" d="M88.78125 138.60164L89.59375 138.60164Q90.375 138.58601 90.8125 138.19539Q91.25 137.80476 91.25 137.13289Q91.25 135.63289 89.75 135.63289Q89.046875 135.63289 88.625 136.03914Q88.21875 136.44539 88.21875 137.10164L87.125 137.10164Q87.125 136.08601 87.859375 135.41414Q88.609375 134.74226 89.75 134.74226Q90.953125 134.74226 91.640625 135.38289Q92.328125 136.02351 92.328125 137.16414Q92.328125 137.72664 91.96875 138.24226Q91.609375 138.75789 90.984375 139.02351Q91.6875 139.24226 92.0625 139.75789Q92.453125 140.27351 92.453125 141.02351Q92.453125 142.16414 91.703125 142.85164Q90.953125 143.52351 89.75 143.52351Q88.5625 143.52351 87.796875 142.86726Q87.046875 142.21101 87.046875 141.14851L88.140625 141.14851Q88.140625 141.82039 88.578125 142.22664Q89.015625 142.63289 89.765625 142.63289Q90.546875 142.63289 90.953125 142.22664Q91.375 141.80476 91.375 141.03914Q91.375 140.30476 90.921875 139.91414Q90.46875 139.50789 89.59375 139.49226L88.78125 139.49226L88.78125 138.60164ZM94.34375 142.83601Q94.34375 142.55476 94.5 142.36726Q94.671875 142.17976 95.0 142.17976Q95.34375 142.17976 95.515625 142.36726Q95.6875 142.55476 95.6875 142.83601Q95.6875 143.10164 95.515625 143.28914Q95.34375 143.46101 95.0 143.46101Q94.671875 143.46101 94.5 143.28914Q94.34375 143.10164 94.34375 142.83601ZM101.78125 140.53914L102.96875 140.53914L102.96875 141.41414L101.78125 141.41414L101.78125 143.39851L100.703125 143.39851L100.703125 141.41414L96.8125 141.41414L96.8125 140.77351L100.625 134.86726L101.78125 134.86726L101.78125 140.53914ZM98.046875 140.53914L100.703125 140.53914L100.703125 136.35164L100.5625 136.58601L98.046875 140.53914Z" fill-rule="nonzero"/><path stroke="#edb03c" stroke-width="3.0" stroke-linejoin="round" stroke-linecap="round" d="M171.78125 89.764885L172.96875 89.764885L172.96875 90.639885L171.78125 90.639885L171.78125 92.62426L170.70312 92.62426L170.70312 90.639885L166.8125 90.639885L166.8125 89.99926L170.625 84.09301L171.78125 84.09301L171.78125 89.764885ZM168.04688 89.764885L170.70312 89.764885L170.70312 85.577385L170.5625 85.81176L168.04688 89.764885ZM174.34375 92.06176Q174.34375 91.78051 174.5 91.59301Q174.67188 91.40551 175.0 91.40551Q175.34375 91.40551 175.51562 91.59301Q175.6875 91.78051 175.6875 92.06176Q175.6875 92.327385 175.51562 92.514885Q175.34375 92.68676 175.0 92.68676Q174.67188 92.68676 174.5 92.514885Q174.34375 92.327385 174.34375 92.06176ZM182.79688 92.62426L177.20312 92.62426L177.20312 91.84301L180.15625 88.56176Q180.8125 87.81176 181.0625 87.358635Q181.3125 86.889885 181.3125 86.389885Q181.3125 85.71801 180.90625 85.296135Q180.51562 84.858635 179.82812 84.858635Q179.03125 84.858635 178.57812 85.327385Q178.125 85.78051 178.125 86.608635L177.04688 86.608635Q177.04688 85.421135 177.79688 84.702385Q178.5625 83.96801 179.82812 83.96801Q181.03125 83.96801 181.71875 84.59301Q182.40625 85.21801 182.40625 86.264885Q182.40625 87.514885 180.79688 89.264885L178.51562 91.733635L182.79688 91.733635L182.79688 92.62426Z" fill-rule="nonzero"/><path fill="#434343" d="M171.78125 89.764885L172.96875 89.764885L172.96875 90.639885L171.78125 90.639885L171.78125 92.62426L170.70312 92.62426L170.70312 90.639885L166.8125 90.639885L166.8125 89.99926L170.625 84.09301L171.78125 84.09301L171.78125 89.764885ZM168.04688 89.764885L170.70312 89.764885L170.70312 85.577385L170.5625 85.81176L168.04688 89.764885ZM174.34375 92.06176Q174.34375 91.78051 174.5 91.59301Q174.67188 91.40551 175.0 91.40551Q175.34375 91.40551 175.51562 91.59301Q175.6875 91.78051 175.6875 92.06176Q175.6875 92.327385 175.51562 92.514885Q175.34375 92.68676 175.0 92.68676Q174.67188 92.68676 174.5 92.514885Q174.34375 92.327385 174.34375 92.06176ZM182.79688 92.62426L177.20312 92.62426L177.20312 91.84301L180.15625 88.56176Q180.8125 87.81176 181.0625 87.358635Q181.3125 86.889885 181.3125 86.389885Q181.3125 85.71801 180.90625 85.296135Q180.51562 84.858635 179.82812 84.858635Q179.03125 84.858635 178.57812 85.327385Q178.125 85.78051 178.125 86.608635L177.04688 86.608635Q177.04688 85.421135 177.79688 84.702385Q178.5625 83.96801 179.82812 83.96801Q181.03125 83.96801 181.71875 84.59301Q182.40625 85.21801 182.40625 86.264885Q182.40625 87.514885 180.79688 89.264885L178.51562 91.733635L182.79688 91.733635L182.79688 92.62426Z" fill-rule="nonzero"/><path stroke="#edb03c" stroke-width="3.0" stroke-linejoin="round" stroke-linecap="round" d="M247.78125 138.60164L248.59375 138.60164Q249.375 138.58601 249.8125 138.19539Q250.25 137.80476 250.25 137.13289Q250.25 135.63289 248.75 135.63289Q248.04688 135.63289 247.625 136.03914Q247.21875 136.44539 247.21875 137.10164L246.125 137.10164Q246.125 136.08601 246.85938 135.41414Q247.60938 134.74226 248.75 134.74226Q249.95312 134.74226 250.64062 135.38289Q251.32812 136.02351 251.32812 137.16414Q251.32812 137.72664 250.96875 138.24226Q250.60938 138.75789 249.98438 139.02351Q250.6875 139.24226 251.0625 139.75789Q251.45312 140.27351 251.45312 141.02351Q251.45312 142.16414 250.70312 142.85164Q249.95312 143.52351 248.75 143.52351Q247.5625 143.52351 246.79688 142.86726Q246.04688 142.21101 246.04688 141.14851L247.14062 141.14851Q247.14062 141.82039 247.57812 142.22664Q248.01562 142.63289 248.76562 142.63289Q249.54688 142.63289 249.95312 142.22664Q250.375 141.80476 250.375 141.03914Q250.375 140.30476 249.92188 139.91414Q249.46875 139.50789 248.59375 139.49226L247.78125 139.49226L247.78125 138.60164ZM253.34375 142.83601Q253.34375 142.55476 253.5 142.36726Q253.67188 142.17976 254.0 142.17976Q254.34375 142.17976 254.51562 142.36726Q254.6875 142.55476 254.6875 142.83601Q254.6875 143.10164 254.51562 143.28914Q254.34375 143.46101 254.0 143.46101Q253.67188 143.46101 253.5 143.28914Q253.34375 143.10164 253.34375 142.83601ZM260.78125 140.53914L261.96875 140.53914L261.96875 141.41414L260.78125 141.41414L260.78125 143.39851L259.70312 143.39851L259.70312 141.41414L255.8125 141.41414L255.8125 140.77351L259.625 134.86726L260.78125 134.86726L260.78125 140.53914ZM257.04688 140.53914L259.70312 140.53914L259.70312 136.35164L259.5625 136.58601L257.04688 140.53914Z" fill-rule="nonzero"/><path fill="#434343" d="M247.78125 138.60164L248.59375 138.60164Q249.375 138.58601 249.8125 138.19539Q250.25 137.80476 250.25 137.13289Q250.25 135.63289 248.75 135.63289Q248.04688 135.63289 247.625 136.03914Q247.21875 136.44539 247.21875 137.10164L246.125 137.10164Q246.125 136.08601 246.85938 135.41414Q247.60938 134.74226 248.75 134.74226Q249.95312 134.74226 250.64062 135.38289Q251.32812 136.02351 251.32812 137.16414Q251.32812 137.72664 250.96875 138.24226Q250.60938 138.75789 249.98438 139.02351Q250.6875 139.24226 251.0625 139.75789Q251.45312 140.27351 251.45312 141.02351Q251.45312 142.16414 250.70312 142.85164Q249.95312 143.52351 248.75 143.52351Q247.5625 143.52351 246.79688 142.86726Q246.04688 142.21101 246.04688 141.14851L247.14062 141.14851Q247.14062 141.82039 247.57812 142.22664Q248.01562 142.63289 248.76562 142.63289Q249.54688 142.63289 249.95312 142.22664Q250.375 141.80476 250.375 141.03914Q250.375 140.30476 249.92188 139.91414Q249.46875 139.50789 248.59375 139.49226L247.78125 139.49226L247.78125 138.60164ZM253.34375 142.83601Q253.34375 142.55476 253.5 142.36726Q253.67188 142.17976 254.0 142.17976Q254.34375 142.17976 254.51562 142.36726Q254.6875 142.55476 254.6875 142.83601Q254.6875 143.10164 254.51562 143.28914Q254.34375 143.46101 254.0 143.46101Q253.67188 143.46101 253.5 143.28914Q253.34375 143.10164 253.34375 142.83601ZM260.78125 140.53914L261.96875 140.53914L261.96875 141.41414L260.78125 141.41414L260.78125 143.39851L259.70312 143.39851L259.70312 141.41414L255.8125 141.41414L255.8125 140.77351L259.625 134.86726L260.78125 134.86726L260.78125 140.53914ZM257.04688 140.53914L259.70312 140.53914L259.70312 136.35164L259.5625 136.58601L257.04688 140.53914Z" fill-rule="nonzero"/><path stroke="#edb03c" stroke-width="3.0" stroke-linejoin="round" stroke-linecap="round" d="M327.78125 113.214516L328.59375 113.214516Q329.375 113.19889 329.8125 112.808266Q330.25 112.41764 330.25 111.745766Q330.25 110.245766 328.75 110.245766Q328.04688 110.245766 327.625 110.652016Q327.21875 111.058266 327.21875 111.714516L326.125 111.714516Q326.125 110.69889 326.85938 110.027016Q327.60938 109.35514 328.75 109.35514Q329.95312 109.35514 330.64062 109.995766Q331.32812 110.63639 331.32812 111.777016Q331.32812 112.339516 330.96875 112.85514Q330.60938 113.370766 329.98438 113.63639Q330.6875 113.85514 331.0625 114.370766Q331.45312 114.88639 331.45312 115.63639Q331.45312 116.777016 330.70312 117.464516Q329.95312 118.13639 328.75 118.13639Q327.5625 118.13639 326.79688 117.48014Q326.04688 116.82389 326.04688 115.76139L327.14062 115.76139Q327.14062 116.433266 327.57812 116.839516Q328.01562 117.245766 328.76562 117.245766Q329.54688 117.245766 329.95312 116.839516Q330.375 116.41764 330.375 115.652016Q330.375 114.91764 329.92188 114.527016Q329.46875 114.120766 328.59375 114.10514L327.78125 114.10514L327.78125 113.214516ZM333.34375 117.44889Q333.34375 117.16764 333.5 116.98014Q333.67188 116.79264 334.0 116.79264Q334.34375 116.79264 334.51562 116.98014Q334.6875 117.16764 334.6875 117.44889Q334.6875 117.714516 334.51562 117.902016Q334.34375 118.07389 334.0 118.07389Q333.67188 118.07389 333.5 117.902016Q333.34375 117.714516 333.34375 117.44889ZM341.39062 111.69889Q341.39062 112.339516 341.04688 112.839516Q340.70312 113.339516 340.14062 113.620766Q340.79688 113.902016 341.1875 114.464516Q341.57812 115.01139 341.57812 115.714516Q341.57812 116.808266 340.82812 117.48014Q340.09375 118.13639 338.875 118.13639Q337.64062 118.13639 336.89062 117.48014Q336.15625 116.808266 336.15625 115.714516Q336.15625 115.01139 336.53125 114.464516Q336.90625 113.902016 337.57812 113.620766Q337.01562 113.339516 336.6875 112.839516Q336.35938 112.339516 336.35938 111.69889Q336.35938 110.620766 337.04688 109.995766Q337.73438 109.35514 338.875 109.35514Q340.0 109.35514 340.6875 109.995766Q341.39062 110.620766 341.39062 111.69889ZM340.5 115.683266Q340.5 114.964516 340.04688 114.527016Q339.59375 114.07389 338.85938 114.07389Q338.125 114.07389 337.67188 114.527016Q337.23438 114.964516 337.23438 115.69889Q337.23438 116.41764 337.67188 116.839516Q338.10938 117.245766 338.875 117.245766Q339.625 117.245766 340.0625 116.82389Q340.5 116.402016 340.5 115.683266ZM338.875 110.245766Q338.23438 110.245766 337.82812 110.652016Q337.4375 111.04264 337.4375 111.73014Q337.4375 112.370766 337.82812 112.777016Q338.21875 113.183266 338.85938 113.183266Q339.51562 113.183266 339.90625 112.777016Q340.29688 112.370766 340.29688 111.73014Q340.29688 111.07389 339.89062 110.66764Q339.48438 110.245766 338.875 110.245766Z" fill-rule="nonzero"/><path fill="#434343" d="M327.78125 113.214516L328.59375 113.214516Q329.375 113.19889 329.8125 112.808266Q330.25 112.41764 330.25 111.745766Q330.25 110.245766 328.75 110.245766Q328.04688 110.245766 327.625 110.652016Q327.21875 111.058266 327.21875 111.714516L326.125 111.714516Q326.125 110.69889 326.85938 110.027016Q327.60938 109.35514 328.75 109.35514Q329.95312 109.35514 330.64062 109.995766Q331.32812 110.63639 331.32812 111.777016Q331.32812 112.339516 330.96875 112.85514Q330.60938 113.370766 329.98438 113.63639Q330.6875 113.85514 331.0625 114.370766Q331.45312 114.88639 331.45312 115.63639Q331.45312 116.777016 330.70312 117.464516Q329.95312 118.13639 328.75 118.13639Q327.5625 118.13639 326.79688 117.48014Q326.04688 116.82389 326.04688 115.76139L327.14062 115.76139Q327.14062 116.433266 327.57812 116.839516Q328.01562 117.245766 328.76562 117.245766Q329.54688 117.245766 329.95312 116.839516Q330.375 116.41764 330.375 115.652016Q330.375 114.91764 329.92188 114.527016Q329.46875 114.120766 328.59375 114.10514L327.78125 114.10514L327.78125 113.214516ZM333.34375 117.44889Q333.34375 117.16764 333.5 116.98014Q333.67188 116.79264 334.0 116.79264Q334.34375 116.79264 334.51562 116.98014Q334.6875 117.16764 334.6875 117.44889Q334.6875 117.714516 334.51562 117.902016Q334.34375 118.07389 334.0 118.07389Q333.67188 118.07389 333.5 117.902016Q333.34375 117.714516 333.34375 117.44889ZM341.39062 111.69889Q341.39062 112.339516 341.04688 112.839516Q340.70312 113.339516 340.14062 113.620766Q340.79688 113.902016 341.1875 114.464516Q341.57812 115.01139 341.57812 115.714516Q341.57812 116.808266 340.82812 117.48014Q340.09375 118.13639 338.875 118.13639Q337.64062 118.13639 336.89062 117.48014Q336.15625 116.808266 336.15625 115.714516Q336.15625 115.01139 336.53125 114.464516Q336.90625 113.902016 337.57812 113.620766Q337.01562 113.339516 336.6875 112.839516Q336.35938 112.339516 336.35938 111.69889Q336.35938 110.620766 337.04688 109.995766Q337.73438 109.35514 338.875 109.35514Q340.0 109.35514 340.6875 109.995766Q341.39062 110.620766 341.39062 111.69889ZM340.5 115.683266Q340.5 114.964516 340.04688 114.527016Q339.59375 114.07389 338.85938 114.07389Q338.125 114.07389 337.67188 114.527016Q337.23438 114.964516 337.23438 115.69889Q337.23438 116.41764 337.67188 116.839516Q338.10938 117.245766 338.875 117.245766Q339.625 117.245766 340.0625 116.82389Q340.5 116.402016 340.5 115.683266ZM338.875 110.245766Q338.23438 110.245766 337.82812 110.652016Q337.4375 111.04264 337.4375 111.73014Q337.4375 112.370766 337.82812 112.777016Q338.21875 113.183266 338.85938 113.183266Q339.51562 113.183266 339.90625 112.777016Q340.29688 112.370766 340.29688 111.73014Q340.29688 111.07389 339.89062 110.66764Q339.48438 110.245766 338.875 110.245766Z" fill-rule="nonzero"/><path stroke="#edb03c" stroke-width="3.0" stroke-linejoin="round" stroke-linecap="round" d="M406.78125 113.214516L407.59375 113.214516Q408.375 113.19889 408.8125 112.808266Q409.25 112.41764 409.25 111.745766Q409.25 110.245766 407.75 110.245766Q407.04688 110.245766 406.625 110.652016Q406.21875 111.058266 406.21875 111.714516L405.125 111.714516Q405.125 110.69889 405.85938 110.027016Q406.60938 109.35514 407.75 109.35514Q408.95312 109.35514 409.64062 109.995766Q410.32812 110.63639 410.32812 111.777016Q410.32812 112.339516 409.96875 112.85514Q409.60938 113.370766 408.98438 113.63639Q409.6875 113.85514 410.0625 114.370766Q410.45312 114.88639 410.45312 115.63639Q410.45312 116.777016 409.70312 117.464516Q408.95312 118.13639 407.75 118.13639Q406.5625 118.13639 405.79688 117.48014Q405.04688 116.82389 405.04688 115.76139L406.14062 115.76139Q406.14062 116.433266 406.57812 116.839516Q407.01562 117.245766 407.76562 117.245766Q408.54688 117.245766 408.95312 116.839516Q409.375 116.41764 409.375 115.652016Q409.375 114.91764 408.92188 114.527016Q408.46875 114.120766 407.59375 114.10514L406.78125 114.10514L406.78125 113.214516ZM412.34375 117.44889Q412.34375 117.16764 412.5 116.98014Q412.67188 116.79264 413.0 116.79264Q413.34375 116.79264 413.51562 116.98014Q413.6875 117.16764 413.6875 117.44889Q413.6875 117.714516 413.51562 117.902016Q413.34375 118.07389 413.0 118.07389Q412.67188 118.07389 412.5 117.902016Q412.34375 117.714516 412.34375 117.44889ZM420.39062 111.69889Q420.39062 112.339516 420.04688 112.839516Q419.70312 113.339516 419.14062 113.620766Q419.79688 113.902016 420.1875 114.464516Q420.57812 115.01139 420.57812 115.714516Q420.57812 116.808266 419.82812 117.48014Q419.09375 118.13639 417.875 118.13639Q416.64062 118.13639 415.89062 117.48014Q415.15625 116.808266 415.15625 115.714516Q415.15625 115.01139 415.53125 114.464516Q415.90625 113.902016 416.57812 113.620766Q416.01562 113.339516 415.6875 112.839516Q415.35938 112.339516 415.35938 111.69889Q415.35938 110.620766 416.04688 109.995766Q416.73438 109.35514 417.875 109.35514Q419.0 109.35514 419.6875 109.995766Q420.39062 110.620766 420.39062 111.69889ZM419.5 115.683266Q419.5 114.964516 419.04688 114.527016Q418.59375 114.07389 417.85938 114.07389Q417.125 114.07389 416.67188 114.527016Q416.23438 114.964516 416.23438 115.69889Q416.23438 116.41764 416.67188 116.839516Q417.10938 117.245766 417.875 117.245766Q418.625 117.245766 419.0625 116.82389Q419.5 116.402016 419.5 115.683266ZM417.875 110.245766Q417.23438 110.245766 416.82812 110.652016Q416.4375 111.04264 416.4375 111.73014Q416.4375 112.370766 416.82812 112.777016Q417.21875 113.183266 417.85938 113.183266Q418.51562 113.183266 418.90625 112.777016Q419.29688 112.370766 419.29688 111.73014Q419.29688 111.07389 418.89062 110.66764Q418.48438 110.245766 417.875 110.245766Z" fill-rule="nonzero"/><path fill="#434343" d="M406.78125 113.214516L407.59375 113.214516Q408.375 113.19889 408.8125 112.808266Q409.25 112.41764 409.25 111.745766Q409.25 110.245766 407.75 110.245766Q407.04688 110.245766 406.625 110.652016Q406.21875 111.058266 406.21875 111.714516L405.125 111.714516Q405.125 110.69889 405.85938 110.027016Q406.60938 109.35514 407.75 109.35514Q408.95312 109.35514 409.64062 109.995766Q410.32812 110.63639 410.32812 111.777016Q410.32812 112.339516 409.96875 112.85514Q409.60938 113.370766 408.98438 113.63639Q409.6875 113.85514 410.0625 114.370766Q410.45312 114.88639 410.45312 115.63639Q410.45312 116.777016 409.70312 117.464516Q408.95312 118.13639 407.75 118.13639Q406.5625 118.13639 405.79688 117.48014Q405.04688 116.82389 405.04688 115.76139L406.14062 115.76139Q406.14062 116.433266 406.57812 116.839516Q407.01562 117.245766 407.76562 117.245766Q408.54688 117.245766 408.95312 116.839516Q409.375 116.41764 409.375 115.652016Q409.375 114.91764 408.92188 114.527016Q408.46875 114.120766 407.59375 114.10514L406.78125 114.10514L406.78125 113.214516ZM412.34375 117.44889Q412.34375 117.16764 412.5 116.98014Q412.67188 116.79264 413.0 116.79264Q413.34375 116.79264 413.51562 116.98014Q413.6875 117.16764 413.6875 117.44889Q413.6875 117.714516 413.51562 117.902016Q413.34375 118.07389 413.0 118.07389Q412.67188 118.07389 412.5 117.902016Q412.34375 117.714516 412.34375 117.44889ZM420.39062 111.69889Q420.39062 112.339516 420.04688 112.839516Q419.70312 113.339516 419.14062 113.620766Q419.79688 113.902016 420.1875 114.464516Q420.57812 115.01139 420.57812 115.714516Q420.57812 116.808266 419.82812 117.48014Q419.09375 118.13639 417.875 118.13639Q416.64062 118.13639 415.89062 117.48014Q415.15625 116.808266 415.15625 115.714516Q415.15625 115.01139 415.53125 114.464516Q415.90625 113.902016 416.57812 113.620766Q416.01562 113.339516 415.6875 112.839516Q415.35938 112.339516 415.35938 111.69889Q415.35938 110.620766 416.04688 109.995766Q416.73438 109.35514 417.875 109.35514Q419.0 109.35514 419.6875 109.995766Q420.39062 110.620766 420.39062 111.69889ZM419.5 115.683266Q419.5 114.964516 419.04688 114.527016Q418.59375 114.07389 417.85938 114.07389Q417.125 114.07389 416.67188 114.527016Q416.23438 114.964516 416.23438 115.69889Q416.23438 116.41764 416.67188 116.839516Q417.10938 117.245766 417.875 117.245766Q418.625 117.245766 419.0625 116.82389Q419.5 116.402016 419.5 115.683266ZM417.875 110.245766Q417.23438 110.245766 416.82812 110.652016Q416.4375 111.04264 416.4375 111.73014Q416.4375 112.370766 416.82812 112.777016Q417.21875 113.183266 417.85938 113.183266Q418.51562 113.183266 418.90625 112.777016Q419.29688 112.370766 419.29688 111.73014Q419.29688 111.07389 418.89062 110.66764Q418.48438 110.245766 417.875 110.245766Z" fill-rule="nonzero"/><path fill="#b7b7b7" d="M34.1125 282.4213L33.20625 282.4213L33.20625 276.40567L31.378124 277.06192L31.378124 276.24942L33.971874 275.28067L34.1125 275.28067L34.1125 282.4213Z" fill-rule="nonzero"/><path fill="#b7b7b7" d="M35.8 218.95348L31.14375 218.95348L31.14375 218.29723L33.596874 215.56285Q34.14375 214.95348 34.346874 214.56285Q34.565624 214.17223 34.565624 213.75035Q34.565624 213.20348 34.221874 212.8441Q33.89375 212.48473 33.33125 212.48473Q32.659374 212.48473 32.284374 212.87535Q31.909374 213.25035 31.909374 213.93785L31.003124 213.93785Q31.003124 212.95348 31.628124 212.35973Q32.26875 211.75035 33.33125 211.75035Q34.315624 211.75035 34.89375 212.26598Q35.471874 212.7816 35.471874 213.6566Q35.471874 214.70348 34.128124 216.1566L32.2375 218.2191L35.8 218.2191L35.8 218.95348Z" fill-rule="nonzero"/><path fill="#b7b7b7" d="M32.45625 151.48566L33.128124 151.48566Q33.76875 151.48566 34.128124 151.15753Q34.503124 150.8294 34.503124 150.2669Q34.503124 149.0169 33.253124 149.0169Q32.675 149.0169 32.315624 149.36066Q31.971874 149.68878 31.971874 150.23566L31.065624 150.23566Q31.065624 149.3919 31.690624 148.84503Q32.315624 148.28253 33.253124 148.28253Q34.26875 148.28253 34.83125 148.81378Q35.409374 149.34503 35.409374 150.28253Q35.409374 150.75128 35.1125 151.18878Q34.815624 151.62628 34.284374 151.84503Q34.878124 152.0169 35.190624 152.4544Q35.51875 152.87628 35.51875 153.50128Q35.51875 154.4544 34.89375 155.0169Q34.26875 155.5794 33.26875 155.5794Q32.26875 155.5794 31.628124 155.04816Q31.003124 154.50128 31.003124 153.61066L31.925 153.61066Q31.925 154.17316 32.284374 154.5169Q32.64375 154.84503 33.26875 154.84503Q33.925 154.84503 34.26875 154.50128Q34.6125 154.15753 34.6125 153.5169Q34.6125 152.90753 34.221874 152.5794Q33.846874 152.23566 33.128124 152.23566L32.45625 152.23566L32.45625 151.48566Z" fill-rule="nonzero"/><path fill="#b7b7b7" d="M34.95625 89.6272L35.940624 89.6272L35.940624 90.36157L34.95625 90.36157L34.95625 92.01782L34.05 92.01782L34.05 90.36157L30.815624 90.36157L30.815624 89.83032L33.9875 84.90845L34.95625 84.90845L34.95625 89.6272ZM31.83125 89.6272L34.05 89.6272L34.05 86.14282L33.940624 86.34595L31.83125 89.6272Z" fill-rule="nonzero"/><path fill="#b7b7b7" d="M31.55 24.9875L31.925 21.440624L35.565624 21.440624L35.565624 22.26875L32.690624 22.26875L32.471874 24.20625Q32.9875 23.909374 33.659374 23.909374Q34.628124 23.909374 35.190624 24.55Q35.76875 25.190624 35.76875 26.284374Q35.76875 27.378124 35.175 28.01875Q34.58125 28.64375 33.51875 28.64375Q32.58125 28.64375 31.971874 28.128124Q31.378124 27.596874 31.3 26.675L32.159374 26.675Q32.2375 27.284374 32.58125 27.596874Q32.940624 27.909374 33.51875 27.909374Q34.14375 27.909374 34.503124 27.4875Q34.8625 27.05 34.8625 26.3Q34.8625 25.58125 34.471874 25.159374Q34.096874 24.721874 33.440624 24.721874Q32.8625 24.721874 32.51875 24.971874L32.284374 25.175L31.55 24.9875Z" fill-rule="nonzero"/><path fill="#000000" d="M60.29464 333.02664Q61.13433 334.0873 61.06804 335.21426Q60.9907 336.33017 60.007378 337.31348Q58.93567 338.3852 57.532505 338.26367Q56.118294 338.13107 54.825615 336.8384L54.25109 336.2639Q53.4114 335.4242 53.068893 334.48505Q52.72639 333.54593 52.936314 332.651Q53.146233 331.75607 53.864388 331.0379Q54.82561 330.0767 55.941513 330.04355Q57.068466 329.99936 58.10703 330.83905L57.311535 331.63452Q56.48289 331.02686 55.81998 331.04895Q55.157066 331.07104 54.5273 331.70084Q53.76495 332.46317 53.897533 333.45755Q54.030117 334.4519 55.06868 335.49048L55.654255 336.07605Q56.637573 337.05936 57.631943 337.23615Q58.61526 337.4019 59.355515 336.66162Q60.018425 335.99872 60.07367 335.34683Q60.117863 334.68393 59.499146 333.82214L60.29464 333.02664ZM60.813923 331.75607Q60.162056 331.10422 59.885845 330.31976Q59.620678 329.52426 59.808502 328.784Q59.98528 328.0327 60.570854 327.44714Q61.48788 326.53012 62.681126 326.5964Q63.885418 326.65164 64.946075 327.7123L65.00132 327.76755Q65.65318 328.4194 65.91835 329.1928Q66.18351 329.96622 66.017784 330.72855Q65.84101 331.47986 65.23334 332.08752Q64.32736 332.9935 63.123066 332.93826Q61.918777 332.86093 60.869164 331.8113L60.813923 331.75607ZM61.686756 331.08212Q62.42701 331.82236 63.222504 331.93283Q64.029045 332.0323 64.60357 331.45776Q65.18915 330.8722 65.07866 330.0767Q64.95712 329.27014 64.12849 328.4415Q63.39928 327.7123 62.592735 327.61285Q61.786194 327.49133 61.20062 328.0769Q60.637146 328.64038 60.73658 329.44693Q60.836018 330.23138 61.686756 331.08212ZM64.49309 323.6796L65.07866 324.22098Q64.95712 323.06085 65.78577 322.23224Q67.21103 320.80698 68.82411 322.39795L71.785126 325.35895L71.01173 326.13235L68.039665 323.1603Q67.56458 322.6852 67.11159 322.67416Q66.66965 322.65207 66.20561 323.11612Q65.82996 323.49176 65.74157 323.9779Q65.66423 324.45297 65.82996 324.92807L69.02299 328.1211L68.26064 328.88345L63.774933 324.39774L64.49309 323.6796ZM74.6246 320.133Q74.31524 319.82364 73.90645 319.90097Q73.49765 319.95624 72.79054 320.42026Q72.09448 320.87326 71.5752 321.03897Q71.05592 321.2047 70.65817 321.13843Q70.26043 321.05002 69.92897 320.71857Q69.37654 320.16614 69.46493 319.32645Q69.542274 318.4757 70.27148 317.74652Q71.03382 316.98416 71.89561 316.91788Q72.7574 316.8295 73.36507 317.43716L72.602715 318.1995Q72.29336 317.89014 71.79617 317.9454Q71.29899 317.97855 70.901245 318.37628Q70.4814 318.79614 70.426155 319.22702Q70.37091 319.6358 70.65817 319.92307Q70.93439 320.19928 71.29899 320.12195Q71.66359 320.04462 72.3707 319.60266Q73.06676 319.1497 73.597084 318.9729Q74.12742 318.79614 74.547264 318.88452Q74.97816 318.96185 75.33171 319.3154Q75.93938 319.92307 75.81784 320.7738Q75.70736 321.6135 74.94501 322.37585Q74.40363 322.91724 73.79596 323.14926Q73.18829 323.35916 72.61377 323.2487Q72.03924 323.1382 71.641495 322.74045L72.40385 321.97812Q72.81264 322.3427 73.331924 322.28748Q73.84016 322.2212 74.31524 321.7461Q74.74613 321.3152 74.834526 320.87326Q74.92291 320.4313 74.6246 320.133ZM78.28167 318.86243L77.51932 319.62476L73.03361 315.13907L73.79596 314.3767L78.28167 318.86243ZM71.785126 314.02316Q71.5973 313.83533 71.5752 313.59225Q71.564156 313.33813 71.785126 313.1172Q72.006096 312.8962 72.24916 312.9183Q72.50328 312.92935 72.69111 313.1172Q72.86788 313.29395 72.87893 313.54807Q72.88998 313.7801 72.66901 314.00107Q72.44804 314.22205 72.20497 314.22205Q71.9619 314.19992 71.785126 314.02316ZM80.98856 313.76904Q80.6792 313.4597 80.27041 313.53702Q79.86161 313.59225 79.1545 314.0563Q78.45844 314.5093 77.93916 314.67502Q77.41988 314.84076 77.02213 314.77444Q76.62439 314.68607 76.29293 314.3546Q75.7405 313.8022 75.828896 312.9625Q75.906235 312.11176 76.63544 311.38257Q77.39778 310.6202 78.259575 310.55392Q79.12136 310.4655 79.72903 311.07318L78.966675 311.83554Q78.65732 311.52618 78.16013 311.58142Q77.66295 311.61456 77.265205 312.01233Q76.84536 312.43216 76.790115 312.86307Q76.73487 313.27185 77.02213 313.5591Q77.29835 313.83533 77.66295 313.758Q78.02755 313.68066 78.73466 313.2387Q79.43072 312.7857 79.961044 312.60895Q80.49138 312.43216 80.911224 312.52057Q81.34212 312.5979 81.69567 312.95145Q82.30334 313.5591 82.1818 314.40985Q82.07132 315.24954 81.30897 316.0119Q80.76759 316.55328 80.15992 316.78528Q79.55225 316.9952 78.97773 316.88474Q78.403206 316.77423 78.005455 316.3765L78.76781 315.61414Q79.1766 315.97876 79.695885 315.9235Q80.20412 315.8572 80.6792 315.38214Q81.11009 314.95123 81.19849 314.5093Q81.28687 314.06735 80.98856 313.76904ZM79.28709 306.72006L80.36984 307.80283L81.19849 306.97418L81.795105 307.5708L80.96646 308.39944L83.73965 311.17264Q84.01586 311.44885 84.258934 311.47095Q84.502 311.49304 84.767166 311.22787Q84.89975 311.0953 85.08757 310.8191L85.70629 311.4378Q85.49637 311.8245 85.20911 312.11176Q84.700874 312.62 84.12635 312.5758Q83.54078 312.52057 82.96625 311.94604L80.19307 309.17285L79.37547 309.99045L78.778854 309.39383L79.59644 308.57623L78.51369 307.49347L79.28709 306.72006ZM88.58996 308.7309Q87.67293 309.64792 86.501785 309.62582Q85.33064 309.58163 84.32522 308.57623L84.19264 308.44363Q83.51868 307.76968 83.25351 306.99628Q82.9773 306.21182 83.14303 305.4716Q83.308754 304.70923 83.83909 304.1789Q84.71192 303.30606 85.77258 303.39447Q86.833244 303.48285 87.90495 304.55457L88.22536 304.87497L85.18701 307.9133Q85.87202 308.55414 86.64542 308.59833Q87.42986 308.63147 88.00439 308.05695Q88.40214 307.6592 88.51262 307.21725Q88.634155 306.76425 88.57891 306.2671L89.407555 306.16763Q89.71691 307.60394 88.58996 308.7309ZM84.46885 304.8087Q84.004814 305.2727 84.02691 305.93564Q84.04901 306.57645 84.590385 307.2504L86.833244 305.00754L86.778 304.9523Q86.15928 304.39987 85.55161 304.36673Q84.95499 304.32254 84.46885 304.8087ZM87.12051 301.05215L87.70608 301.59354Q87.58454 300.43344 88.413185 299.6048Q89.83845 298.17953 91.45153 299.77054L94.412544 302.73154L93.639145 303.50494L90.66708 300.5329Q90.192 300.0578 89.739006 300.04675Q89.297066 300.02466 88.83303 300.48868Q88.457375 300.86435 88.36899 301.35046Q88.29165 301.82556 88.457375 302.30066L91.650406 305.49368L90.888054 306.25604L86.40235 301.77032L87.12051 301.05215ZM97.08629 298.97504Q97.49509 298.56625 97.56138 298.01382Q97.61662 297.45035 97.27412 297.04153L98.00332 296.31235Q98.36792 296.72113 98.467354 297.3288Q98.566795 297.91437 98.36792 298.5331Q98.18009 299.14078 97.71606 299.6048Q96.79903 300.52185 95.64998 300.45554Q94.50093 300.36716 93.44027 299.3065L93.307686 299.17392Q92.65582 298.52206 92.37961 297.7818Q92.11445 297.0305 92.280174 296.31235Q92.4459 295.57208 93.06462 294.95337Q93.81592 294.20206 94.7661 294.15787Q95.71627 294.09158 96.47862 294.78763L95.74941 295.51685Q95.27433 295.10806 94.69981 295.13016Q94.12528 295.15225 93.69439 295.58313Q93.10881 296.1687 93.20825 296.90897Q93.307686 297.6492 94.10318 298.4447L94.24681 298.58835Q95.02021 299.36172 95.76047 299.46118Q96.50072 299.5606 97.08629 298.97504ZM100.4119 294.47827L98.10275 290.06992L98.92035 289.25232L102.3012 296.23502Q102.99726 297.77075 102.09128 298.67673L101.92555 298.82037L101.59409 299.04132L100.97538 298.4226L101.1853 298.2348Q101.583046 297.83704 101.63829 297.47244Q101.70458 297.0968 101.42837 296.53333L101.13006 295.90353L95.09755 293.0751L95.93724 292.23544L100.4119 294.47827Z" fill-rule="nonzero"/><path fill="#000000" d="M126.418495 346.46167Q127.25818 347.52234 127.191895 348.6493Q127.11455 349.7652 126.13123 350.7485Q125.059525 351.82022 123.65636 351.6987Q122.24214 351.5661 120.94946 350.27344L120.37494 349.6989Q119.53525 348.85922 119.19275 347.92007Q118.85024 346.98096 119.060165 346.08603Q119.27009 345.1911 119.98824 344.47293Q120.94946 343.51172 122.06537 343.47858Q123.19232 343.4344 124.23088 344.27408L123.43539 345.06955Q122.60674 344.46188 121.94383 344.48398Q121.28092 344.50607 120.65115 345.13586Q119.8888 345.8982 120.021385 346.89258Q120.15397 347.88693 121.192535 348.9255L121.77811 349.51108Q122.76143 350.4944 123.75579 350.67117Q124.73911 350.8369 125.47937 350.09665Q126.14228 349.43375 126.197525 348.78186Q126.241714 348.11896 125.623 347.25717L126.418495 346.46167ZM131.75494 344.06415Q131.84332 345.0364 130.97049 345.90924Q130.25233 346.6274 129.45685 346.58322Q128.66135 346.53903 127.84376 345.72144L124.92694 342.8046L125.68929 342.04227L128.58401 344.93698Q129.61153 345.96448 130.44017 345.13586Q131.32405 344.25195 130.9484 343.3018L127.68908 340.04248L128.46248 339.26907L132.94818 343.7548L132.21898 344.48398L131.75494 344.06415ZM135.7987 338.51776Q135.48935 338.2084 135.08055 338.28577Q134.67175 338.341 133.96465 338.80502Q133.26859 339.25803 132.74931 339.42377Q132.23003 339.58948 131.83228 339.5232Q131.43452 339.4348 131.10307 339.10333Q130.55064 338.55093 130.63904 337.71124Q130.71637 336.8605 131.44559 336.1313Q132.20793 335.36893 133.06972 335.30264Q133.9315 335.21426 134.53917 335.82193L133.77682 336.5843Q133.46747 336.27493 132.97028 336.33017Q132.4731 336.3633 132.07535 336.76105Q131.6555 337.1809 131.60027 337.6118Q131.54501 338.0206 131.83228 338.30786Q132.10849 338.58408 132.4731 338.5067Q132.83769 338.42938 133.5448 337.98746Q134.24086 337.53445 134.7712 337.35767Q135.30153 337.1809 135.72136 337.2693Q136.15227 337.34662 136.50581 337.7002Q137.11348 338.30786 136.99194 339.1586Q136.88147 339.9983 136.11911 340.76062Q135.57773 341.302 134.97006 341.53403Q134.3624 341.74396 133.78787 341.63345Q133.21335 341.52298 132.8156 341.12524L133.57794 340.36288Q133.98674 340.72748 134.50603 340.67224Q135.01427 340.60596 135.48935 340.13086Q135.92024 339.69998 136.00864 339.25803Q136.09702 338.81607 135.7987 338.51776ZM134.09723 331.4688L135.18 332.55157L136.00864 331.72293L136.60526 332.31955L135.77661 333.1482L138.54979 335.92136Q138.826 336.19757 139.06908 336.21967Q139.31215 336.24176 139.5773 335.97662Q139.70988 335.84402 139.89772 335.5678L140.51643 336.18652Q140.30652 336.57324 140.01926 336.8605Q139.51102 337.3687 138.9365 337.32452Q138.35092 337.2693 137.7764 336.69476L135.0032 333.92157L134.18562 334.73917L133.589 334.14255L134.40659 333.32495L133.32384 332.2422L134.09723 331.4688ZM138.95859 333.1703Q138.30673 332.5184 138.03052 331.73398Q137.76535 330.93848 137.95317 330.1982Q138.12994 329.44693 138.71552 328.86136Q139.63255 327.9443 140.82579 328.01062Q142.03009 328.06586 143.09074 329.12653L143.14598 329.18176Q143.79785 329.83362 144.06302 330.60703Q144.32819 331.3804 144.16246 332.14276Q143.98567 332.89407 143.378 333.50174Q142.47203 334.4077 141.26773 334.35248Q140.06345 334.27515 139.01384 333.22552L138.95859 333.1703ZM139.83142 332.4963Q140.57167 333.23657 141.36717 333.34705Q142.17372 333.4465 142.74825 332.87198Q143.33382 332.2864 143.22333 331.4909Q143.10179 330.68436 142.27315 329.8557Q141.54395 329.12653 140.73741 329.02707Q139.93086 328.90555 139.34529 329.49112Q138.78181 330.0546 138.88126 330.86115Q138.98068 331.64557 139.83142 332.4963ZM142.63776 325.09378L143.15704 325.56888Q143.06865 324.5082 143.90834 323.66852Q144.84746 322.7294 145.90813 323.10504Q145.80869 322.5637 145.96336 322.01126Q146.12909 321.44778 146.61523 320.96164Q148.09573 319.48114 149.67567 321.01688L152.68088 324.0221L151.91853 324.78442L148.95752 321.82343Q148.48244 321.34833 148.02945 321.33728Q147.5654 321.3152 147.04613 321.83447Q146.61523 322.26538 146.58209 322.80673Q146.55998 323.33707 146.94669 323.81216L149.91875 326.7842L149.1564 327.54657L146.21748 324.60767Q145.24521 323.63538 144.28398 324.59662Q143.53268 325.3479 143.8973 326.26495L147.16766 329.5353L146.39426 330.30872L141.90855 325.823L142.63776 325.09378ZM155.01213 321.69086L154.24977 322.4532L149.76407 317.96747L150.52641 317.20514L155.01213 321.69086ZM148.51558 316.8516Q148.32776 316.66376 148.30566 316.4207Q148.29462 316.16656 148.51558 315.9456Q148.73656 315.72464 148.97961 315.74673Q149.23373 315.75778 149.42155 315.9456Q149.59834 316.12238 149.60939 316.3765Q149.62044 316.60852 149.39946 316.8295Q149.1785 317.05045 148.93542 317.05045Q148.69235 317.02835 148.51558 316.8516ZM156.39319 319.05023L159.0117 316.43173L159.64146 317.0615L156.08383 320.61914L155.52036 320.05566L154.7138 314.29938L152.27208 316.7411L151.63127 316.10028L155.03423 312.69733L155.57559 313.2387L156.39319 319.05023ZM163.30959 313.39337Q163.1107 313.3271 162.72401 313.02878Q162.75716 314.1226 162.0169 314.86285Q161.35399 315.52576 160.54744 315.581Q159.75195 315.62518 159.16638 315.0396Q158.47032 314.34357 158.61395 313.42654Q158.75758 312.5095 159.72986 311.53723L160.47011 310.79697L160.11655 310.44342Q159.7188 310.0457 159.24371 310.05673Q158.76863 310.0457 158.29355 310.52075Q157.88475 310.92957 157.81845 311.4157Q157.74112 311.89078 158.03943 312.1891L157.26602 312.9625Q156.92352 312.62 156.84618 312.0786Q156.77989 311.52618 157.01192 310.9406Q157.23288 310.344 157.71901 309.85785Q158.50346 309.0734 159.32106 309.0292Q160.1497 308.97397 160.84575 309.62582L162.91183 311.69193Q163.53055 312.31064 164.04984 312.52054L164.11612 312.58685L163.30959 313.39337ZM161.45343 314.0784Q161.81802 313.7138 161.9506 313.20557Q162.08319 312.69733 161.92851 312.2554L161.01149 311.33835L160.41486 311.93497Q159.00064 313.34918 159.82928 314.17783Q160.18285 314.53137 160.63583 314.49823Q161.07777 314.45404 161.45343 314.0784ZM167.09923 305.22852Q168.12674 306.25604 168.28142 307.36087Q168.43611 308.44363 167.64061 309.23914Q166.78987 310.08987 165.71815 309.94623L166.19325 310.5097L165.4972 311.20578L159.13322 304.84183L159.89558 304.07947L162.27101 306.4549Q162.16054 305.41635 162.97812 304.59875Q163.79572 303.78116 164.87848 303.93582Q165.95018 304.07947 167.03294 305.16223L167.09923 305.22852ZM166.24849 305.90247Q165.46405 305.11804 164.73485 305.00754Q164.00563 304.87497 163.44217 305.43845Q162.67981 306.20078 163.04442 307.2283L164.98895 309.17285Q166.04962 309.5264 166.78987 308.78613Q167.3423 308.2337 167.22076 307.49347Q167.09923 306.7532 166.24849 305.90247ZM171.27557 305.4274L170.51323 306.18973L166.02753 301.70404L166.78987 300.94168L171.27557 305.4274ZM164.77904 300.58813Q164.59122 300.4003 164.5691 300.15723Q164.55806 299.9031 164.77904 299.68213Q165.0 299.46118 165.24307 299.48328Q165.4972 299.49432 165.68501 299.68213Q165.86179 299.85892 165.87285 300.11304Q165.8839 300.34506 165.66292 300.56604Q165.44196 300.787 165.19888 300.787Q164.95581 300.7649 164.77904 300.58813ZM173.3969 303.30606L172.63455 304.06842L166.27058 297.70447L167.03294 296.9421L173.3969 303.30606ZM175.51822 301.18475L174.75587 301.94708L170.27016 297.4614L171.03252 296.69904L175.51822 301.18475ZM169.02168 296.3455Q168.83385 296.15765 168.81175 295.91458Q168.8007 295.66046 169.02168 295.4395Q169.24265 295.21854 169.48572 295.24063Q169.73984 295.25168 169.92766 295.4395Q170.10443 295.61627 170.11548 295.8704Q170.12653 296.10242 169.90556 296.3234Q169.68459 296.54437 169.44153 296.54437Q169.19846 296.52225 169.02168 296.3455ZM172.28099 293.28503L173.36375 294.3678L174.1924 293.53915L174.78902 294.13577L173.96037 294.96442L176.73357 297.7376Q177.00978 298.01382 177.25284 298.03592Q177.49591 298.058 177.76108 297.79285Q177.89366 297.66025 178.08148 297.38403L178.7002 298.00278Q178.49028 298.38947 178.20302 298.67673Q177.69478 299.18497 177.12025 299.14078Q176.53468 299.0855 175.96016 298.511L173.18698 295.73782L172.36938 296.55542L171.77277 295.95877L172.59036 295.1412L171.5076 294.05844L172.28099 293.28503ZM179.97078 294.47827L177.66164 290.06992L178.47923 289.25232L181.86008 296.235Q182.55614 297.77075 181.65016 298.67673L181.48444 298.82034L181.15298 299.04132L180.53426 298.4226L180.74419 298.23477Q181.14192 297.83704 181.19717 297.47244Q181.26346 297.09677 180.98724 296.5333L180.68893 295.90353L174.65643 293.0751L175.49612 292.2354L179.97078 294.47827Z" fill-rule="nonzero"/><path fill="#000000" d="M210.29735 341.08105L208.87209 342.50632L211.31381 344.94803L210.51831 345.74353L204.48581 339.71103L206.4856 337.71124Q207.50206 336.69476 208.50748 336.61743Q209.52394 336.52905 210.40784 337.41293Q210.97131 337.9764 211.08179 338.7056Q211.20332 339.42377 210.87187 340.17505L214.8383 341.31305L214.89354 341.36832L214.0428 342.21906L210.29735 341.08105ZM208.22021 341.85443L209.44661 340.62805Q210.04323 340.03143 210.08742 339.39062Q210.13162 338.7277 209.61234 338.20844Q209.0599 337.656 208.43015 337.68915Q207.80037 337.7223 207.15956 338.341L205.93317 339.56738L208.22021 341.85443ZM217.30212 339.1365Q216.38509 340.05353 215.21394 340.03143Q214.0428 339.98724 213.03738 338.9818L212.9048 338.84924Q212.23083 338.17526 211.96567 337.4019Q211.68947 336.61743 211.8552 335.87717Q212.02092 335.11484 212.55125 334.5845Q213.42409 333.71167 214.48474 333.80005Q215.54541 333.88843 216.61711 334.96014L216.93752 335.28055L213.89917 338.3189Q214.58418 338.95972 215.35757 339.0039Q216.14203 339.03705 216.71655 338.46252Q217.1143 338.0648 217.22478 337.62286Q217.34631 337.16986 217.29108 336.67267L218.11972 336.57324Q218.42908 338.00955 217.30212 339.1365ZM213.18102 335.21426Q212.71698 335.6783 212.73907 336.34122Q212.76117 336.98203 213.30255 337.656L215.54541 335.41315L215.49016 335.3579Q214.87144 334.80548 214.26378 334.77234Q213.66714 334.72812 213.18102 335.21426ZM220.84871 334.33038Q221.2575 333.9216 221.32379 333.36917Q221.37903 332.8057 221.03653 332.39688L221.76573 331.6677Q222.13034 332.07648 222.22977 332.68414Q222.32921 333.2697 222.13034 333.88843Q221.9425 334.49612 221.47847 334.96014Q220.56145 335.87717 219.4124 335.81088Q218.26335 335.7225 217.20268 334.66183L217.0701 334.52927Q216.41824 333.87738 216.14203 333.13715Q215.87686 332.38583 216.04259 331.6677Q216.20831 330.92743 216.82704 330.30872Q217.57834 329.5574 218.5285 329.5132Q219.47868 329.44693 220.24103 330.14297L219.51183 330.8722Q219.03674 330.46338 218.46222 330.4855Q217.8877 330.5076 217.4568 330.93848Q216.87123 331.52405 216.97067 332.2643Q217.0701 333.00455 217.8656 333.80005L218.00923 333.9437Q218.78262 334.71707 219.52287 334.81653Q220.26314 334.91595 220.84871 334.33038ZM221.34589 330.34186Q220.69403 329.69 220.41782 328.90555Q220.15265 328.11005 220.34047 327.3698Q220.51724 326.6185 221.10281 326.03293Q222.01985 325.1159 223.21309 325.1822Q224.41739 325.23743 225.47804 326.2981L225.53328 326.35333Q226.18515 327.0052 226.45032 327.7786Q226.71548 328.552 226.54976 329.31433Q226.37297 330.06564 225.7653 330.6733Q224.85933 331.57928 223.65503 331.52405Q222.45074 331.44672 221.40114 330.3971L221.34589 330.34186ZM222.21872 329.6679Q222.95897 330.40814 223.75447 330.51865Q224.56102 330.61807 225.13554 330.04355Q225.72112 329.45798 225.61063 328.66248Q225.48909 327.85593 224.66045 327.02728Q223.93124 326.2981 223.12471 326.19867Q222.31816 326.07712 221.73259 326.6627Q221.16911 327.22617 221.26855 328.0327Q221.36798 328.81717 222.21872 329.6679ZM229.2235 324.9612L226.89226 320.39816L227.6767 319.6137L230.54933 325.71252L229.96375 326.2981L223.85391 323.43652L224.63835 322.65207L229.2235 324.9612ZM234.9798 321.45883Q234.06276 322.37585 232.89162 322.35376Q231.72047 322.30957 230.71506 321.30414L230.58247 321.17157Q229.90851 320.49762 229.64334 319.7242Q229.36713 318.93976 229.53285 318.19952Q229.6986 317.43716 230.22891 316.90683Q231.10175 316.034 232.16241 316.12238Q233.22307 316.2108 234.29478 317.28247L234.61519 317.60287L231.57684 320.64124Q232.26186 321.28204 233.03525 321.32623Q233.81969 321.3594 234.39421 320.78488Q234.79196 320.38712 234.90245 319.9452Q235.02399 319.4922 234.96875 318.995L235.79738 318.89557Q236.10674 320.33188 234.9798 321.45883ZM230.85869 317.5366Q230.39464 318.00064 230.41675 318.66354Q230.43884 319.30435 230.98022 319.97833L233.22307 317.73547L233.16783 317.68024Q232.54912 317.1278 231.94144 317.09467Q231.34482 317.05048 230.85869 317.5366ZM235.6427 313.01773Q235.44383 313.17242 235.24495 313.3713Q234.4826 314.13364 234.85826 315.0396L238.04024 318.22162L237.2779 318.98395L232.79218 314.49826L233.53242 313.758L234.06276 314.26624Q233.8418 313.29395 234.53784 312.5979Q234.75882 312.37692 234.9356 312.31064L235.6427 313.01773ZM242.86844 313.3934Q242.66957 313.32712 242.28287 313.0288Q242.31601 314.12262 241.57576 314.86285Q240.91286 315.52576 240.10631 315.581Q239.31082 315.6252 238.72525 315.0396Q238.02919 314.34357 238.17282 313.42654Q238.31645 312.50952 239.28871 311.53726L240.02896 310.797L239.67542 310.44345Q239.27766 310.0457 238.80258 310.05673Q238.32748 310.0457 237.8524 310.52078Q237.4436 310.92957 237.37732 311.4157Q237.29999 311.89078 237.5983 312.18912L236.8249 312.9625Q236.48239 312.62 236.40506 312.0786Q236.33876 311.52618 236.57079 310.9406Q236.79175 310.344 237.27788 309.85788Q238.06232 309.07343 238.87991 309.02924Q239.70856 308.974 240.40462 309.62585L242.47069 311.69193Q243.08942 312.31064 243.60869 312.52057L243.67499 312.58685L242.86844 313.3934ZM241.01228 314.0784Q241.37689 313.7138 241.50948 313.20557Q241.64206 312.69736 241.48737 312.2554L240.57034 311.33838L239.97372 311.935Q238.55952 313.3492 239.38815 314.17783Q239.74171 314.5314 240.1947 314.49826Q240.63663 314.45407 241.01228 314.0784ZM246.6581 305.22852Q247.68561 306.25604 247.84029 307.3609Q247.99496 308.44366 247.19946 309.23917Q246.34872 310.0899 245.27702 309.94626L245.7521 310.50974L245.05605 311.20578L238.6921 304.84183L239.45444 304.07947L241.82988 306.45493Q241.71939 305.41635 242.53699 304.59875Q243.35458 303.78116 244.43733 303.93585Q245.50905 304.07947 246.5918 305.16223L246.6581 305.22852ZM245.80736 305.9025Q245.0229 305.11804 244.2937 305.00757Q243.5645 304.87497 243.00102 305.43845Q242.23868 306.2008 242.60327 307.2283L244.54782 309.17285Q245.60847 309.52643 246.34872 308.78616Q246.90115 308.23373 246.77962 307.49347Q246.6581 306.75323 245.80736 305.9025ZM250.83444 305.4274L250.0721 306.18976L245.58638 301.70404L246.34872 300.94168L250.83444 305.4274ZM244.33789 300.58813Q244.15007 300.40033 244.12798 300.15726Q244.11693 299.90314 244.33789 299.68216Q244.55887 299.46118 244.80194 299.48328Q245.05605 299.49432 245.24388 299.68216Q245.42065 299.85895 245.4317 300.11307Q245.44275 300.34506 245.22179 300.56604Q245.00081 300.78702 244.75774 300.78702Q244.51468 300.76492 244.33789 300.58813ZM252.95576 303.3061L252.1934 304.06842L245.82945 297.70447L246.5918 296.9421L252.95576 303.3061ZM255.07709 301.18475L254.31473 301.9471L249.82903 297.4614L250.59137 296.69907L255.07709 301.18475ZM248.58054 296.3455Q248.39272 296.15768 248.37062 295.9146Q248.35957 295.6605 248.58054 295.4395Q248.80151 295.21854 249.04457 295.24066Q249.29869 295.2517 249.48651 295.4395Q249.6633 295.6163 249.67435 295.87042Q249.6854 296.10245 249.46442 296.3234Q249.24345 296.54437 249.00038 296.54437Q248.75731 296.52228 248.58054 296.3455ZM251.83986 293.28506L252.9226 294.3678L253.75125 293.53918L254.34787 294.1358L253.51924 294.96445L256.29242 297.7376Q256.56863 298.01382 256.8117 298.03592Q257.05478 298.058 257.31995 297.79285Q257.4525 297.66028 257.64035 297.38406L258.25906 298.00278Q258.04913 298.3895 257.76187 298.67676Q257.25363 299.18497 256.6791 299.14078Q256.09354 299.08554 255.51903 298.51102L252.74583 295.73782L251.92825 296.55542L251.33162 295.9588L252.14922 295.1412L251.06645 294.05844L251.83986 293.28506ZM259.52963 294.4783L257.2205 290.06992L258.0381 289.25235L261.41895 296.23502Q262.115 297.77075 261.209 298.67676L261.0433 298.82037L260.71185 299.04135L260.0931 298.42264L260.30304 298.2348Q260.70078 297.83707 260.75604 297.47244Q260.82233 297.0968 260.5461 296.53333L260.2478 295.90356L254.2153 293.07513L255.05498 292.23544L259.52963 294.4783Z" fill-rule="nonzero"/><path fill="#000000" d="M295.43573 334.7502Q296.3196 335.6341 296.68423 336.59534Q297.03778 337.5455 296.8389 338.45148Q296.6511 339.3464 295.92188 340.07562Q295.21478 340.7827 294.30878 340.9816Q293.4028 341.18048 292.45264 340.84903Q291.50247 340.49545 290.62964 339.6447L290.19873 339.21384Q289.3259 338.341 288.9613 337.3798Q288.60773 336.4075 288.8066 335.50153Q288.99445 334.5845 289.7126 333.86633Q290.43076 333.1482 291.33673 332.9493Q292.2427 332.75043 293.20395 333.11505Q294.16516 333.47964 295.04904 334.36353L295.43573 334.7502ZM294.25354 335.13693Q293.18182 334.06522 292.17642 333.92157Q291.171 333.77795 290.3976 334.55136Q289.63525 335.3137 289.7789 336.31912Q289.92252 337.32452 290.92795 338.35205L291.38092 338.80505Q292.4195 339.8436 293.447 340.00934Q294.47452 340.15295 295.23688 339.39062Q296.01025 338.61722 295.8777 337.64493Q295.7451 336.65057 294.70654 335.5899L294.25354 335.13693ZM300.76114 330.68436Q301.78867 331.71188 301.94333 332.81674Q302.09802 333.89948 301.30252 334.69498Q300.45178 335.54572 299.38007 335.4021L299.85516 335.96558L299.1591 336.66162L292.79514 330.29767L293.5575 329.5353L295.93292 331.91074Q295.82245 330.8722 296.64005 330.0546Q297.4576 329.237 298.54037 329.3917Q299.6121 329.5353 300.69485 330.61807L300.76114 330.68436ZM299.9104 331.3583Q299.12595 330.57388 298.39676 330.46338Q297.66754 330.3308 297.10406 330.8943Q296.34174 331.65665 296.70633 332.68414L298.65088 334.6287Q299.71152 334.98224 300.45178 334.242Q301.0042 333.68958 300.88266 332.9493Q300.76114 332.20905 299.9104 331.3583ZM305.52307 327.91116Q305.2137 327.6018 304.8049 327.67917Q304.39612 327.7344 303.689 328.19843Q302.99295 328.65143 302.47366 328.81717Q301.95438 328.98288 301.55664 328.9166Q301.15887 328.82822 300.82742 328.49673Q300.275 327.94434 300.3634 327.10464Q300.44073 326.2539 301.16992 325.5247Q301.93228 324.76233 302.79407 324.69604Q303.65585 324.60767 304.26352 325.21533L303.5012 325.9777Q303.19183 325.66833 302.69464 325.72357Q302.19745 325.7567 301.7997 326.15445Q301.37985 326.5743 301.32462 327.0052Q301.26938 327.414 301.55664 327.70126Q301.83286 327.97748 302.19745 327.90012Q302.56204 327.82278 303.26917 327.38086Q303.9652 326.92786 304.49554 326.75107Q305.02588 326.5743 305.4457 326.6627Q305.87662 326.74002 306.23016 327.0936Q306.83783 327.70126 306.7163 328.552Q306.6058 329.3917 305.84348 330.15402Q305.3021 330.6954 304.69443 330.92743Q304.08676 331.13736 303.51224 331.02686Q302.9377 330.91638 302.53995 330.51865L303.3023 329.7563Q303.7111 330.12088 304.23038 330.06564Q304.73862 329.99936 305.2137 329.52426Q305.6446 329.09338 305.73297 328.65143Q305.82138 328.20947 305.52307 327.91116ZM310.29602 325.70148Q309.379 326.6185 308.20786 326.5964Q307.0367 326.55222 306.03128 325.54678L305.8987 325.4142Q305.22476 324.74023 304.9596 323.96686Q304.68338 323.1824 304.8491 322.44214Q305.01483 321.6798 305.54517 321.14948Q306.418 320.27664 307.47867 320.36502Q308.5393 320.4534 309.61102 321.52512L309.93143 321.84552L306.89307 324.88388Q307.5781 325.5247 308.3515 325.56888Q309.13593 325.60202 309.71045 325.0275Q310.10822 324.62976 310.2187 324.1878Q310.34024 323.73483 310.28497 323.23764L311.11362 323.1382Q311.42297 324.57452 310.29602 325.70148ZM306.17493 321.77924Q305.71088 322.2433 305.73297 322.9062Q305.7551 323.547 306.29645 324.22095L308.5393 321.97812L308.48407 321.92285Q307.86536 321.37045 307.2577 321.33728Q306.66107 321.2931 306.17493 321.77924ZM310.95895 317.26038Q310.76007 317.41507 310.5612 317.61392Q309.79886 318.37628 310.1745 319.28226L313.35648 322.46423L312.59412 323.2266L308.10843 318.74088L308.84866 318.00064L309.379 318.50888Q309.15802 317.5366 309.8541 316.84055Q310.07507 316.61957 310.25183 316.55328L310.95895 317.26038ZM315.85345 317.89014L313.52222 313.3271L314.30664 312.54266L317.17926 318.64145L316.5937 319.22702L310.48386 316.36545L311.2683 315.581L315.85345 317.89014ZM322.42734 313.3934Q322.22845 313.3271 321.84177 313.02878Q321.8749 314.1226 321.13464 314.86285Q320.47174 315.52576 319.6652 315.581Q318.8697 315.62518 318.28412 315.0396Q317.58807 314.34357 317.7317 313.42654Q317.87534 312.50952 318.8476 311.53723L319.58786 310.797L319.2343 310.44342Q318.83655 310.0457 318.36148 310.05673Q317.88638 310.0457 317.4113 310.52078Q317.0025 310.92957 316.93622 311.4157Q316.85886 311.89078 317.15717 312.1891L316.3838 312.9625Q316.0413 312.62 315.96393 312.0786Q315.89764 311.52618 316.12967 310.9406Q316.35065 310.344 316.83676 309.85785Q317.62122 309.0734 318.4388 309.0292Q319.26746 308.97397 319.9635 309.62582L322.02957 311.69193Q322.64832 312.31064 323.16757 312.52057L323.2339 312.58685L322.42734 313.3934ZM320.57117 314.0784Q320.9358 313.7138 321.06836 313.20557Q321.20096 312.69733 321.04626 312.2554L320.12924 311.33835L319.53262 311.93497Q318.1184 313.34918 318.94705 314.17783Q319.3006 314.5314 319.75357 314.49823Q320.19553 314.45404 320.57117 314.0784ZM326.21698 305.22852Q327.2445 306.25604 327.39917 307.36087Q327.55386 308.44363 326.75836 309.23914Q325.90762 310.08987 324.8359 309.94626L325.311 310.50974L324.61496 311.20578L318.25098 304.84183L319.01334 304.07947L321.38876 306.4549Q321.2783 305.41635 322.0959 304.59875Q322.91348 303.78116 323.99622 303.93582Q325.06793 304.07947 326.1507 305.16223L326.21698 305.22852ZM325.36624 305.90247Q324.5818 305.11804 323.8526 305.00754Q323.12338 304.87497 322.5599 305.43845Q321.79758 306.20078 322.16217 307.2283L324.10672 309.17285Q325.16736 309.5264 325.90762 308.78613Q326.46005 308.23373 326.33853 307.49347Q326.21698 306.7532 325.36624 305.90247ZM330.39334 305.4274L329.63098 306.18973L325.14526 301.70404L325.90762 300.94168L330.39334 305.4274ZM323.8968 300.58813Q323.70895 300.4003 323.68686 300.15723Q323.6758 299.9031 323.8968 299.68216Q324.11777 299.46118 324.36084 299.48328Q324.61496 299.49432 324.80276 299.68216Q324.97955 299.85892 324.9906 300.11304Q325.00165 300.34506 324.78067 300.56604Q324.5597 300.787 324.31662 300.787Q324.07358 300.7649 323.8968 300.58813ZM332.51465 303.30606L331.7523 304.06842L325.38834 297.70447L326.1507 296.9421L332.51465 303.30606ZM334.636 301.18475L333.87363 301.9471L329.3879 297.4614L330.15027 296.69904L334.636 301.18475ZM328.13943 296.3455Q327.9516 296.15765 327.9295 295.91458Q327.91846 295.6605 328.13943 295.4395Q328.3604 295.21854 328.60345 295.24063Q328.85757 295.25168 329.0454 295.4395Q329.2222 295.61627 329.23325 295.8704Q329.2443 296.10242 329.02332 296.3234Q328.80234 296.54437 328.55927 296.54437Q328.3162 296.52228 328.13943 296.3455ZM331.39874 293.28503L332.4815 294.3678L333.31015 293.53915L333.90677 294.13577L333.07812 294.96442L335.85132 297.7376Q336.12753 298.01382 336.3706 298.03592Q336.61368 298.058 336.8788 297.79285Q337.0114 297.66028 337.19925 297.38406L337.81796 298.00278Q337.60803 298.38947 337.32077 298.67673Q336.81253 299.18497 336.238 299.14078Q335.65244 299.08554 335.0779 298.51102L332.30472 295.73782L331.48715 296.55542L330.8905 295.9588L331.7081 295.1412L330.62537 294.05844L331.39874 293.28503ZM339.08853 294.47827L336.7794 290.06992L337.597 289.25232L340.97784 296.23502Q341.6739 297.77075 340.7679 298.67673L340.60217 298.82037L340.27072 299.04132L339.652 298.4226L339.86194 298.2348Q340.25967 297.83704 340.3149 297.47244Q340.38123 297.0968 340.105 296.53333L339.8067 295.90353L333.7742 293.0751L334.6139 292.23544L339.08853 294.47827Z" fill-rule="nonzero"/><path fill="#000000" d="M361.63693 348.85922L360.21167 350.2845L362.65338 352.72623L361.85788 353.5217L355.82538 347.4892L357.82516 345.4894Q358.84164 344.47296 359.84705 344.3956Q360.86353 344.30722 361.7474 345.1911Q362.31088 345.75458 362.42136 346.4838Q362.5429 347.20193 362.21146 347.95325L366.1779 349.09125L366.23312 349.14648L365.3824 349.99722L361.63693 348.85922ZM359.55978 349.63263L360.7862 348.40622Q361.3828 347.8096 361.427 347.1688Q361.4712 346.5059 360.9519 345.9866Q360.39948 345.43417 359.7697 345.46732Q359.13995 345.50046 358.49915 346.11917L357.27274 347.34558L359.55978 349.63263ZM368.6417 346.91467Q367.72467 347.8317 366.55353 347.8096Q365.3824 347.7654 364.37695 346.76L364.2444 346.6274Q363.5704 345.95346 363.30527 345.18005Q363.02905 344.3956 363.19476 343.65536Q363.3605 342.893 363.89084 342.36267Q364.76367 341.48984 365.8243 341.57822Q366.88498 341.66663 367.9567 342.73834L368.2771 343.05875L365.23874 346.09708Q365.92377 346.7379 366.69714 346.7821Q367.4816 346.81525 368.05612 346.24072Q368.4539 345.84296 368.56436 345.40103Q368.68588 344.94803 368.63065 344.45087L369.4593 344.3514Q369.76865 345.78772 368.6417 346.91467ZM364.5206 342.99243Q364.05655 343.45648 364.07864 344.1194Q364.10074 344.76022 364.64212 345.43417L366.88498 343.1913L366.82974 343.13608Q366.21103 342.58365 365.60336 342.5505Q365.00674 342.50632 364.5206 342.99243ZM372.354 340.6391Q372.04465 340.32974 371.63586 340.40707Q371.22705 340.46234 370.51996 340.92636Q369.82388 341.37936 369.30463 341.54507Q368.78534 341.71082 368.38757 341.64453Q367.98984 341.55612 367.6584 341.22467Q367.10596 340.67224 367.19434 339.83255Q367.27167 338.9818 368.0009 338.25262Q368.76324 337.49026 369.62503 337.42398Q370.48682 337.3356 371.09448 337.94327L370.33212 338.7056Q370.02277 338.39624 369.52557 338.4515Q369.0284 338.48465 368.63065 338.8824Q368.21082 339.30225 368.15558 339.73312Q368.1003 340.1419 368.38757 340.42917Q368.6638 340.70538 369.0284 340.62805Q369.393 340.55072 370.1001 340.10876Q370.79617 339.6558 371.3265 339.479Q371.8568 339.30225 372.27667 339.39062Q372.70755 339.46796 373.06113 339.8215Q373.6688 340.42917 373.54724 341.2799Q373.43677 342.1196 372.6744 342.88196Q372.13303 343.42334 371.52536 343.65536Q370.9177 343.86526 370.34317 343.7548Q369.76865 343.64432 369.3709 343.24655L370.13324 342.48422Q370.54205 342.84882 371.06134 342.79358Q371.56955 342.7273 372.04465 342.2522Q372.47556 341.8213 372.56393 341.37936Q372.6523 340.9374 372.354 340.6391ZM376.77344 334.23096Q377.7899 335.2474 377.95563 336.34122Q378.12134 337.43503 377.31482 338.24158Q376.49722 339.05917 375.5139 339.0039L377.66837 341.1584L376.906 341.92075L370.69672 335.71146L371.3928 335.0154L371.92313 335.47943Q371.82367 334.4298 372.6523 333.6012Q373.45886 332.79465 374.53058 332.93826Q375.61334 333.07086 376.69608 334.1536L376.77344 334.23096ZM375.9227 334.9049Q375.16034 334.14255 374.39798 334.04312Q373.63565 333.9216 373.07217 334.48508Q372.3761 335.18112 372.64127 336.1313L374.7847 338.27472Q375.7459 338.55093 376.45303 337.8438Q377.00546 337.29138 376.89496 336.5401Q376.7845 335.7667 375.9227 334.9049ZM377.63522 333.1703Q376.98334 332.51843 376.70712 331.73398Q376.442 330.93848 376.6298 330.19824Q376.80658 329.44693 377.39215 328.86136Q378.30917 327.94434 379.5024 328.01062Q380.7067 328.06586 381.76736 329.12653L381.8226 329.18176Q382.4745 329.83362 382.73965 330.60703Q383.00482 331.38043 382.83908 332.14276Q382.6623 332.89407 382.05463 333.50174Q381.14865 334.4077 379.94437 334.35248Q378.74008 334.27515 377.69046 333.22552L377.63522 333.1703ZM378.50806 332.49634Q379.2483 333.23657 380.0438 333.34708Q380.85034 333.4465 381.42487 332.87198Q382.01044 332.2864 381.89996 331.4909Q381.7784 330.68436 380.94977 329.8557Q380.22058 329.12653 379.41403 329.0271Q378.60748 328.90555 378.0219 329.49112Q377.45844 330.0546 377.55786 330.86115Q377.65732 331.6456 378.50806 332.49634ZM381.3144 325.0938L381.89996 325.6352Q381.7784 324.4751 382.60706 323.64645Q384.03232 322.2212 385.64542 323.81216L388.6064 326.7732L387.833 327.54657L384.86096 324.57452Q384.38586 324.09943 383.9329 324.08838Q383.49094 324.06628 383.02692 324.53033Q382.65125 324.90598 382.56287 325.39212Q382.48553 325.8672 382.65125 326.3423L385.84427 329.5353L385.08194 330.29767L380.59622 325.81195L381.3144 325.0938ZM391.4459 321.5472Q391.13654 321.23785 390.72775 321.31522Q390.31894 321.37045 389.61185 321.83447Q388.91577 322.28748 388.39648 322.45322Q387.87723 322.61893 387.47946 322.55264Q387.08173 322.46426 386.75027 322.13278Q386.19785 321.58035 386.28622 320.7407Q386.36356 319.88995 387.09277 319.16074Q387.8551 318.39838 388.71692 318.3321Q389.5787 318.2437 390.18637 318.85138L389.424 319.61374Q389.11465 319.30438 388.61746 319.35962Q388.12027 319.39276 387.72253 319.7905Q387.3027 320.21036 387.24744 320.64124Q387.1922 321.05005 387.47946 321.3373Q387.75568 321.61353 388.12027 321.53616Q388.4849 321.45883 389.192 321.0169Q389.88806 320.5639 390.41837 320.38712Q390.9487 320.21036 391.36856 320.29874Q391.79944 320.37607 392.153 320.72964Q392.76068 321.3373 392.63913 322.18805Q392.52866 323.02774 391.7663 323.79007Q391.2249 324.33145 390.61725 324.56348Q390.00958 324.7734 389.43506 324.6629Q388.86053 324.55243 388.4628 324.15466L389.22513 323.39233Q389.63394 323.75693 390.15323 323.7017Q390.66144 323.6354 391.13654 323.1603Q391.5674 322.72943 391.65582 322.28748Q391.7442 321.84552 391.4459 321.5472ZM395.10297 320.27664L394.3406 321.039L389.8549 316.55328L390.61725 315.79092L395.10297 320.27664ZM388.6064 315.43738Q388.41858 315.24954 388.39648 315.00647Q388.38544 314.75238 388.6064 314.5314Q388.8274 314.31042 389.07047 314.33252Q389.3246 314.34357 389.5124 314.5314Q389.68918 314.70816 389.70023 314.96228Q389.71127 315.1943 389.4903 315.41528Q389.26932 315.63626 389.02628 315.63626Q388.7832 315.61417 388.6064 315.43738ZM396.82654 316.47595L394.4953 311.9129L395.27972 311.12845L398.15237 317.22723L397.56677 317.8128L391.45694 314.95123L392.2414 314.1668L396.82654 316.47595ZM402.58282 312.97354Q401.6658 313.8906 400.49466 313.86847Q399.32352 313.82428 398.31808 312.81888L398.18552 312.68628Q397.51154 312.01233 397.24637 311.23892Q396.97015 310.4545 397.1359 309.71423Q397.30164 308.95187 397.83194 308.42154Q398.70477 307.5487 399.76544 307.63712Q400.8261 307.7255 401.89783 308.7972L402.21823 309.1176L399.17987 312.15598Q399.8649 312.79678 400.63828 312.84097Q401.42273 312.8741 401.99725 312.2996Q402.395 311.90186 402.5055 311.4599Q402.627 311.0069 402.57178 310.50974L403.40042 310.41028Q403.70978 311.8466 402.58282 312.97354ZM398.46173 309.05133Q397.99768 309.51535 398.01978 310.17828Q398.04187 310.8191 398.58325 311.49304L400.8261 309.25018L400.77087 309.19495Q400.15216 308.64252 399.54446 308.60938Q398.94785 308.5652 398.46173 309.05133ZM401.11337 305.2948L401.69894 305.83618Q401.57742 304.6761 402.40604 303.84744Q403.8313 302.42218 405.4444 304.01318L408.4054 306.97418L407.63202 307.7476L404.65994 304.77554Q404.18488 304.30045 403.73187 304.2894Q403.28995 304.2673 402.8259 304.73135Q402.45026 305.107 402.36185 305.59314Q402.28452 306.0682 402.45026 306.5433L405.64328 309.73633L404.88092 310.4987L400.3952 306.01297L401.11337 305.2948ZM411.7752 303.78116Q410.8582 304.69818 409.68704 304.6761Q408.5159 304.6319 407.51047 303.6265L407.3779 303.4939Q406.70392 302.81995 406.43878 302.04654Q406.16257 301.2621 406.32828 300.52185Q406.49402 299.7595 407.02435 299.22916Q407.8972 298.35632 408.95782 298.44473Q410.0185 298.5331 411.0902 299.60483L411.4106 299.92523L408.37225 302.96356Q409.05728 303.6044 409.83066 303.6486Q410.6151 303.68173 411.18964 303.1072Q411.5874 302.70944 411.69788 302.26752Q411.8194 301.8145 411.76416 301.31735L412.5928 301.2179Q412.90216 302.6542 411.7752 303.78116ZM407.6541 299.85892Q407.19006 300.32297 407.21216 300.98587Q407.23425 301.6267 407.77563 302.30066L410.0185 300.0578L409.96326 300.00256Q409.34454 299.45013 408.73688 299.417Q408.14023 299.3728 407.6541 299.85892ZM415.48752 297.50558Q415.17816 297.19623 414.76938 297.27356Q414.36057 297.32883 413.65347 297.79285Q412.9574 298.24585 412.43814 298.41156Q411.91885 298.5773 411.5211 298.51102Q411.12335 298.4226 410.7919 298.09116Q410.23947 297.53873 410.32785 296.69904Q410.40518 295.8483 411.1344 295.1191Q411.89676 294.35675 412.75854 294.29047Q413.62033 294.2021 414.228 294.80975L413.46564 295.57208Q413.15628 295.26273 412.6591 295.318Q412.16193 295.35114 411.76416 295.74887Q411.34433 296.16873 411.2891 296.5996Q411.23383 297.0084 411.5211 297.29565Q411.7973 297.57187 412.16193 297.49454Q412.52652 297.4172 413.2336 296.97525Q413.9297 296.52228 414.46002 296.3455Q414.99033 296.16873 415.4102 296.2571Q415.84106 296.33444 416.19464 296.688Q416.8023 297.29565 416.68076 298.1464Q416.57028 298.98608 415.80792 299.74844Q415.26654 300.28983 414.65887 300.52185Q414.0512 300.73178 413.47668 300.62128Q412.90216 300.5108 412.50443 300.11304L413.26675 299.3507Q413.67557 299.7153 414.19485 299.66006Q414.70306 299.59378 415.17816 299.11868Q415.60907 298.68777 415.69745 298.24585Q415.78583 297.8039 415.48752 297.50558ZM419.73016 293.26294Q419.4208 292.95358 419.01202 293.03094Q418.6032 293.08618 417.89612 293.5502Q417.20004 294.0032 416.68076 294.16895Q416.1615 294.33466 415.76373 294.26837Q415.366 294.18 415.03455 293.8485Q414.48212 293.29608 414.5705 292.45642Q414.64783 291.60568 415.37704 290.87646Q416.13937 290.1141 417.0012 290.04782Q417.86298 289.95944 418.47064 290.5671L417.70828 291.32947Q417.39893 291.0201 416.90173 291.07535Q416.40454 291.1085 416.0068 291.50623Q415.58698 291.9261 415.5317 292.35696Q415.47647 292.76578 415.76373 293.05304Q416.03995 293.32925 416.40454 293.2519Q416.76917 293.17456 417.47626 292.73264Q418.17233 292.27963 418.70264 292.10284Q419.23297 291.9261 419.65283 292.01447Q420.0837 292.0918 420.4373 292.44537Q421.04495 293.05304 420.9234 293.90378Q420.81293 294.74347 420.05057 295.5058Q419.5092 296.04718 418.90152 296.2792Q418.29385 296.48914 417.71933 296.37863Q417.1448 296.26816 416.74707 295.8704L417.5094 295.10806Q417.9182 295.47266 418.4375 295.41742Q418.9457 295.35114 419.4208 294.87604Q419.85168 294.44516 419.9401 294.0032Q420.02847 293.56125 419.73016 293.26294Z" fill-rule="nonzero"/><path fill="#edb03c" d="M489.45 20.55C489.45 19.997715 489.8977 19.55 490.45 19.55L500.45 19.55C501.0023 19.55 501.45 19.997715 501.45 20.55L501.45 30.55C501.45 31.102285 501.0023 31.55 500.45 31.55L490.45 31.55C489.8977 31.55 489.45 31.102285 489.45 30.55Z" fill-rule="nonzero"/><path fill="#666666" d="M514.66876 27.503124L511.40314 27.503124L510.66876 29.55L509.60626 29.55L512.59064 21.721874L513.4969 21.721874L516.48126 29.55L515.41876 29.55L514.66876 27.503124ZM511.71564 26.659374L514.3719 26.659374L513.04376 23.003124L511.71564 26.659374ZM519.1219 28.20625L520.5594 23.7375L521.575 23.7375L519.4969 29.55L518.73126 29.55L516.6219 23.7375L517.6375 23.7375L519.1219 28.20625ZM524.60626 29.659374Q523.4344 29.659374 522.6844 28.89375Q521.95 28.1125 521.95 26.8L521.95 26.628124Q521.95 25.753124 522.27814 25.08125Q522.60626 24.39375 523.2 24.01875Q523.79376 23.628124 524.4969 23.628124Q525.6219 23.628124 526.2469 24.378124Q526.8875 25.128124 526.8875 26.51875L526.8875 26.925L522.95 26.925Q522.96564 27.784374 523.4344 28.315624Q523.91876 28.846874 524.66876 28.846874Q525.2 28.846874 525.5594 28.628124Q525.91876 28.409374 526.2 28.065624L526.8094 28.534374Q526.075 29.659374 524.60626 29.659374ZM524.4969 24.440624Q523.8875 24.440624 523.48126 24.878124Q523.075 25.315624 522.98126 26.1125L525.8875 26.1125L525.8875 26.034374Q525.84064 25.284374 525.46564 24.8625Q525.10626 24.440624 524.4969 24.440624ZM531.0125 24.628124Q530.77814 24.596874 530.52814 24.596874Q529.54376 24.596874 529.2 25.425L529.2 29.55L528.2 29.55L528.2 23.7375L529.16876 23.7375L529.1844 24.409374Q529.66876 23.628124 530.575 23.628124Q530.85626 23.628124 531.0125 23.70625L531.0125 24.628124ZM535.79376 29.55Q535.7 29.378124 535.65314 28.940624Q534.95 29.659374 533.9969 29.659374Q533.1375 29.659374 532.575 29.175Q532.02814 28.690624 532.02814 27.940624Q532.02814 27.034374 532.71564 26.534374Q533.41876 26.01875 534.66876 26.01875L535.6375 26.01875L535.6375 25.565624Q535.6375 25.05 535.325 24.7375Q535.0125 24.425 534.40314 24.425Q533.8719 24.425 533.5125 24.70625Q533.15314 24.971874 533.15314 25.346874L532.15314 25.346874Q532.15314 24.909374 532.46564 24.503124Q532.77814 24.096874 533.29376 23.8625Q533.825 23.628124 534.46564 23.628124Q535.46564 23.628124 536.02814 24.128124Q536.60626 24.628124 536.6219 25.51875L536.6219 28.190624Q536.6219 28.9875 536.825 29.45625L536.825 29.55L535.79376 29.55ZM534.1375 28.8Q534.60626 28.8 535.02814 28.565624Q535.45 28.315624 535.6375 27.925L535.6375 26.7375L534.85626 26.7375Q533.02814 26.7375 533.02814 27.8Q533.02814 28.26875 533.34064 28.534374Q533.65314 28.8 534.1375 28.8ZM537.96564 26.596874Q537.96564 25.2375 538.59064 24.440624Q539.21564 23.628124 540.2625 23.628124Q541.325 23.628124 541.91876 24.378124L541.96564 23.7375L542.8719 23.7375L542.8719 29.409374Q542.8719 30.534374 542.2 31.175Q541.54376 31.83125 540.40314 31.83125Q539.77814 31.83125 539.16876 31.565624Q538.575 31.3 538.2625 30.83125L538.77814 30.2375Q539.41876 31.034374 540.34064 31.034374Q541.0594 31.034374 541.46564 30.6125Q541.8719 30.20625 541.8719 29.471874L541.8719 28.971874Q541.27814 29.659374 540.2469 29.659374Q539.23126 29.659374 538.59064 28.846874Q537.96564 28.01875 537.96564 26.596874ZM538.96564 26.70625Q538.96564 27.690624 539.3719 28.253124Q539.77814 28.815624 540.4969 28.815624Q541.4344 28.815624 541.8719 27.95625L541.8719 25.3Q541.41876 24.471874 540.5125 24.471874Q539.77814 24.471874 539.3719 25.034374Q538.96564 25.596874 538.96564 26.70625ZM546.60626 29.659374Q545.4344 29.659374 544.6844 28.89375Q543.95 28.1125 543.95 26.8L543.95 26.628124Q543.95 25.753124 544.27814 25.08125Q544.60626 24.39375 545.2 24.01875Q545.79376 23.628124 546.4969 23.628124Q547.6219 23.628124 548.2469 24.378124Q548.8875 25.128124 548.8875 26.51875L548.8875 26.925L544.95 26.925Q544.96564 27.784374 545.4344 28.315624Q545.91876 28.846874 546.66876 28.846874Q547.2 28.846874 547.5594 28.628124Q547.91876 28.409374 548.2 28.065624L548.8094 28.534374Q548.075 29.659374 546.60626 29.659374ZM546.4969 24.440624Q545.8875 24.440624 545.48126 24.878124Q545.075 25.315624 544.98126 26.1125L547.8875 26.1125L547.8875 26.034374Q547.84064 25.284374 547.46564 24.8625Q547.10626 24.440624 546.4969 24.440624ZM555.66876 26.065624Q554.34064 25.675 553.73126 25.128124Q553.1219 24.565624 553.1219 23.753124Q553.1219 22.83125 553.85626 22.2375Q554.60626 21.628124 555.77814 21.628124Q556.59064 21.628124 557.21564 21.940624Q557.85626 22.2375 558.2 22.8Q558.54376 23.346874 558.54376 23.9875L557.5125 23.9875Q557.5125 23.284374 557.0594 22.878124Q556.60626 22.471874 555.77814 22.471874Q555.02814 22.471874 554.59064 22.815624Q554.16876 23.14375 554.16876 23.7375Q554.16876 24.221874 554.575 24.55Q554.98126 24.878124 555.95 25.159374Q556.9344 25.425 557.48126 25.753124Q558.02814 26.08125 558.29376 26.534374Q558.5594 26.971874 558.5594 27.565624Q558.5594 28.51875 557.8094 29.096874Q557.075 29.659374 555.84064 29.659374Q555.02814 29.659374 554.325 29.346874Q553.6375 29.034374 553.2625 28.503124Q552.8875 27.971874 552.8875 27.284374L553.91876 27.284374Q553.91876 27.9875 554.4344 28.409374Q554.96564 28.815624 555.84064 28.815624Q556.65314 28.815624 557.09064 28.4875Q557.52814 28.14375 557.52814 27.58125Q557.52814 27.003124 557.1219 26.690624Q556.71564 26.3625 555.66876 26.065624ZM562.52814 28.846874Q563.0594 28.846874 563.45 28.534374Q563.85626 28.20625 563.90314 27.721874L564.84064 27.721874Q564.8094 28.221874 564.4969 28.675Q564.1844 29.1125 563.65314 29.39375Q563.1219 29.659374 562.52814 29.659374Q561.34064 29.659374 560.6375 28.8625Q559.95 28.065624 559.95 26.690624L559.95 26.534374Q559.95 25.675 560.2625 25.01875Q560.575 24.3625 561.15314 24.003124Q561.73126 23.628124 562.52814 23.628124Q563.5125 23.628124 564.15314 24.221874Q564.79376 24.8 564.84064 25.7375L563.90314 25.7375Q563.85626 25.175 563.46564 24.815624Q563.09064 24.440624 562.52814 24.440624Q561.77814 24.440624 561.35626 24.9875Q560.9344 25.534374 560.9344 26.565624L560.9344 26.753124Q560.9344 27.76875 561.34064 28.315624Q561.7625 28.846874 562.52814 28.846874ZM565.9344 26.596874Q565.9344 25.7375 566.2625 25.065624Q566.60626 24.378124 567.2 24.003124Q567.8094 23.628124 568.575 23.628124Q569.7625 23.628124 570.4969 24.45625Q571.23126 25.26875 571.23126 26.64375L571.23126 26.70625Q571.23126 27.55 570.90314 28.2375Q570.575 28.909374 569.96564 29.284374Q569.3719 29.659374 568.59064 29.659374Q567.40314 29.659374 566.66876 28.846874Q565.9344 28.01875 565.9344 26.659374L565.9344 26.596874ZM566.9344 26.70625Q566.9344 27.675 567.3875 28.26875Q567.84064 28.846874 568.59064 28.846874Q569.34064 28.846874 569.77814 28.253124Q570.23126 27.659374 570.23126 26.596874Q570.23126 25.628124 569.77814 25.034374Q569.325 24.440624 568.575 24.440624Q567.84064 24.440624 567.3875 25.034374Q566.9344 25.6125 566.9344 26.70625ZM575.0125 24.628124Q574.77814 24.596874 574.52814 24.596874Q573.54376 24.596874 573.2 25.425L573.2 29.55L572.2 29.55L572.2 23.7375L573.16876 23.7375L573.1844 24.409374Q573.66876 23.628124 574.575 23.628124Q574.85626 23.628124 575.0125 23.70625L575.0125 24.628124ZM578.60626 29.659374Q577.4344 29.659374 576.6844 28.89375Q575.95 28.1125 575.95 26.8L575.95 26.628124Q575.95 25.753124 576.27814 25.08125Q576.60626 24.39375 577.2 24.01875Q577.79376 23.628124 578.4969 23.628124Q579.6219 23.628124 580.2469 24.378124Q580.8875 25.128124 580.8875 26.51875L580.8875 26.925L576.95 26.925Q576.96564 27.784374 577.4344 28.315624Q577.91876 28.846874 578.66876 28.846874Q579.2 28.846874 579.5594 28.628124Q579.91876 28.409374 580.2 28.065624L580.8094 28.534374Q580.075 29.659374 578.60626 29.659374ZM578.4969 24.440624Q577.8875 24.440624 577.48126 24.878124Q577.075 25.315624 576.98126 26.1125L579.8875 26.1125L579.8875 26.034374Q579.84064 25.284374 579.46564 24.8625Q579.10626 24.440624 578.4969 24.440624Z" fill-rule="nonzero"/></svg>