<svg version="1.1" viewBox="0.0 0.0 600.0 371.0" fill="none" stroke="none" stroke-linecap="square" stroke-miterlimit="10" width="600" height="371" xmlns:xlink="http://www.w3.org/1999/xlink" xmlns="http://www.w3.org/2000/svg"><path fill="#ffffff" d="M0 0L600.0 0L600.0 371.0L0 371.0L0 0Z" fill-rule="nonzero"/><path stroke="#cccccc" stroke-width="1.0" stroke-linecap="butt" d="M41.5 331.5L467.5 331.5" fill-rule="nonzero"/><path stroke="#cccccc" stroke-width="1.0" stroke-linecap="butt" d="M41.5 254.5L467.5 254.5" fill-rule="nonzero"/><path stroke="#cccccc" stroke-width="1.0" stroke-linecap="butt" d="M41.5 178.5L467.5 178.5" fill-rule="nonzero"/><path stroke="#cccccc" stroke-width="1.0" stroke-linecap="butt" d="M41.5 101.5L467.5 101.5" fill-rule="nonzero"/><path stroke="#cccccc" stroke-width="1.0" stroke-linecap="butt" d="M41.5 25.5L467.5 25.5" fill-rule="nonzero"/><clipPath id="id_0"><path d="M41.55 25.05L467.19 25.05L467.19 331.45L41.55 331.45L41.55 25.05Z" clip-rule="nonzero"/></clipPath><path stroke="#000000" stroke-width="0.0" stroke-linecap="butt" stroke-opacity="0.0" clip-path="url(#id_0)" d="M121.0 331.0L69.0 331.0L69.0 104.0C69.0 102.89543 69.89543 102.0 71.0 102.0L119.0 102.0C120.10457 102.0 121.0 102.89543 121.0 104.0Z" fill-rule="nonzero"/><path fill="#006d57" clip-path="url(#id_0)" d="M121.0 331.0L69.0 331.0L69.0 104.0C69.0 102.89543 69.89543 102.0 71.0 102.0L119.0 102.0C120.10457 102.0 121.0 102.89543 121.0 104.0Z" fill-rule="nonzero"/><path stroke="#000000" stroke-width="0.0" stroke-linecap="butt" stroke-opacity="0.0" clip-path="url(#id_0)" d="M201.0 331.0L149.0 331.0L149.0 87.0C149.0 85.89543 149.89543 85.0 151.0 85.0L199.0 85.0C200.10457 85.0 201.0 85.89543 201.0 87.0Z" fill-rule="nonzero"/><path fill="#006d57" clip-path="url(#id_0)" d="M201.0 331.0L149.0 331.0L149.0 87.0C149.0 85.89543 149.89543 85.0 151.0 85.0L199.0 85.0C200.10457 85.0 201.0 85.89543 201.0 87.0Z" fill-rule="nonzero"/><path stroke="#000000" stroke-width="0.0" stroke-linecap="butt" stroke-opacity="0.0" clip-path="url(#id_0)" d="M280.0 331.0L228.0 331.0L228.0 147.0C228.0 145.89543 228.89543 145.0 230.0 145.0L278.0 145.0C279.10458 145.0 280.0 145.89543 280.0 147.0Z" fill-rule="nonzero"/><path fill="#006d57" clip-path="url(#id_0)" d="M280.0 331.0L228.0 331.0L228.0 147.0C228.0 145.89543 228.89543 145.0 230.0 145.0L278.0 145.0C279.10458 145.0 280.0 145.89543 280.0 147.0Z" fill-rule="nonzero"/><path stroke="#000000" stroke-width="0.0" stroke-linecap="butt" stroke-opacity="0.0" clip-path="url(#id_0)" d="M360.0 331.0L308.0 331.0L308.0 95.0C308.0 93.89543 308.89542 93.0 310.0 93.0L358.0 93.0C359.10458 93.0 360.0 93.89543 360.0 95.0Z" fill-rule="nonzero"/><path fill="#006d57" clip-path="url(#id_0)" d="M360.0 331.0L308.0 331.0L308.0 95.0C308.0 93.89543 308.89542 93.0 310.0 93.0L358.0 93.0C359.10458 93.0 360.0 93.89543 360.0 95.0Z" fill-rule="nonzero"/><path stroke="#000000" stroke-width="0.0" stroke-linecap="butt" stroke-opacity="0.0" clip-path="url(#id_0)" d="M439.0 331.0L387.0 331.0L387.0 78.0C387.0 76.89543 387.89542 76.0 389.0 76.0L437.0 76.0C438.10458 76.0 439.0 76.89543 439.0 78.0Z" fill-rule="nonzero"/><path fill="#006d57" clip-path="url(#id_0)" d="M439.0 331.0L387.0 331.0L387.0 78.0C387.0 76.89543 387.89542 76.0 389.0 76.0L437.0 76.0C438.10458 76.0 439.0 76.89543 439.0 78.0Z" fill-rule="nonzero"/><path stroke="#006d57" stroke-width="3.0" stroke-linejoin="round" stroke-linecap="round" d="M96.78125 115.59062L97.96875 115.59062L97.96875 116.46562L96.78125 116.46562L96.78125 118.45L95.703125 118.45L95.703125 116.46562L91.8125 116.46562L91.8125 115.825L95.625 109.91875L96.78125 109.91875L96.78125 115.59062ZM93.046875 115.59062L95.703125 115.59062L95.703125 111.40312L95.5625 111.6375L93.046875 115.59062Z" fill-rule="nonzero"/><path fill="#ffffff" d="M96.78125 115.59062L97.96875 115.59062L97.96875 116.46562L96.78125 116.46562L96.78125 118.45L95.703125 118.45L95.703125 116.46562L91.8125 116.46562L91.8125 115.825L95.625 109.91875L96.78125 109.91875L96.78125 115.59062ZM93.046875 115.59062L95.703125 115.59062L95.703125 111.40312L95.5625 111.6375L93.046875 115.59062Z" fill-rule="nonzero"/><path stroke="#006d57" stroke-width="3.0" stroke-linejoin="round" stroke-linecap="round" d="M168.28125 98.738625L169.46875 98.738625L169.46875 99.613625L168.28125 99.613625L168.28125 101.598L167.20312 101.598L167.20312 99.613625L163.3125 99.613625L163.3125 98.973L167.125 93.06675L168.28125 93.06675L168.28125 98.738625ZM164.54688 98.738625L167.20312 98.738625L167.20312 94.551125L167.0625 94.7855L164.54688 98.738625ZM170.84375 101.0355Q170.84375 100.75425 171.0 100.56675Q171.17188 100.37925 171.5 100.37925Q171.84375 100.37925 172.01562 100.56675Q172.1875 100.75425 172.1875 101.0355Q172.1875 101.301125 172.01562 101.488625Q171.84375 101.6605 171.5 101.6605Q171.17188 101.6605 171.0 101.488625Q170.84375 101.301125 170.84375 101.0355ZM179.29688 101.598L173.70312 101.598L173.70312 100.81675L176.65625 97.5355Q177.3125 96.7855 177.5625 96.332375Q177.8125 95.863625 177.8125 95.363625Q177.8125 94.69175 177.40625 94.269875Q177.01562 93.832375 176.32812 93.832375Q175.53125 93.832375 175.07812 94.301125Q174.625 94.75425 174.625 95.582375L173.54688 95.582375Q173.54688 94.394875 174.29688 93.676125Q175.0625 92.94175 176.32812 92.94175Q177.53125 92.94175 178.21875 93.56675Q178.90625 94.19175 178.90625 95.238625Q178.90625 96.488625 177.29688 98.238625L175.01562 100.707375L179.29688 100.707375L179.29688 101.598ZM186.29688 101.598L180.70312 101.598L180.70312 100.81675L183.65625 97.5355Q184.3125 96.7855 184.5625 96.332375Q184.8125 95.863625 184.8125 95.363625Q184.8125 94.69175 184.40625 94.269875Q184.01562 93.832375 183.32812 93.832375Q182.53125 93.832375 182.07812 94.301125Q181.625 94.75425 181.625 95.582375L180.54688 95.582375Q180.54688 94.394875 181.29688 93.676125Q182.0625 92.94175 183.32812 92.94175Q184.53125 92.94175 185.21875 93.56675Q185.90625 94.19175 185.90625 95.238625Q185.90625 96.488625 184.29688 98.238625L182.01562 100.707375L186.29688 100.707375L186.29688 101.598Z" fill-rule="nonzero"/><path fill="#ffffff" d="M168.28125 98.738625L169.46875 98.738625L169.46875 99.613625L168.28125 99.613625L168.28125 101.598L167.20312 101.598L167.20312 99.613625L163.3125 99.613625L163.3125 98.973L167.125 93.06675L168.28125 93.06675L168.28125 98.738625ZM164.54688 98.738625L167.20312 98.738625L167.20312 94.551125L167.0625 94.7855L164.54688 98.738625ZM170.84375 101.0355Q170.84375 100.75425 171.0 100.56675Q171.17188 100.37925 171.5 100.37925Q171.84375 100.37925 172.01562 100.56675Q172.1875 100.75425 172.1875 101.0355Q172.1875 101.301125 172.01562 101.488625Q171.84375 101.6605 171.5 101.6605Q171.17188 101.6605 171.0 101.488625Q170.84375 101.301125 170.84375 101.0355ZM179.29688 101.598L173.70312 101.598L173.70312 100.81675L176.65625 97.5355Q177.3125 96.7855 177.5625 96.332375Q177.8125 95.863625 177.8125 95.363625Q177.8125 94.69175 177.40625 94.269875Q177.01562 93.832375 176.32812 93.832375Q175.53125 93.832375 175.07812 94.301125Q174.625 94.75425 174.625 95.582375L173.54688 95.582375Q173.54688 94.394875 174.29688 93.676125Q175.0625 92.94175 176.32812 92.94175Q177.53125 92.94175 178.21875 93.56675Q178.90625 94.19175 178.90625 95.238625Q178.90625 96.488625 177.29688 98.238625L175.01562 100.707375L179.29688 100.707375L179.29688 101.598ZM186.29688 101.598L180.70312 101.598L180.70312 100.81675L183.65625 97.5355Q184.3125 96.7855 184.5625 96.332375Q184.8125 95.863625 184.8125 95.363625Q184.8125 94.69175 184.40625 94.269875Q184.01562 93.832375 183.32812 93.832375Q182.53125 93.832375 182.07812 94.301125Q181.625 94.75425 181.625 95.582375L180.54688 95.582375Q180.54688 94.394875 181.29688 93.676125Q182.0625 92.94175 183.32812 92.94175Q184.53125 92.94175 185.21875 93.56675Q185.90625 94.19175 185.90625 95.238625Q185.90625 96.488625 184.29688 98.238625L182.01562 100.707375L186.29688 100.707375L186.29688 101.598Z" fill-rule="nonzero"/><path stroke="#006d57" stroke-width="3.0" stroke-linejoin="round" stroke-linecap="round" d="M244.28125 156.54912L245.09375 156.54912Q245.875 156.5335 246.3125 156.14287Q246.75 155.75224 246.75 155.08037Q246.75 153.58037 245.25 153.58037Q244.54688 153.58037 244.125 153.98662Q243.71875 154.39287 243.71875 155.04912L242.625 155.04912Q242.625 154.0335 243.35938 153.36162Q244.10938 152.68974 245.25 152.68974Q246.45312 152.68974 247.14062 153.33037Q247.82812 153.971 247.82812 155.11162Q247.82812 155.67412 247.46875 156.18974Q247.10938 156.70537 246.48438 156.971Q247.1875 157.18974 247.5625 157.70537Q247.95312 158.221 247.95312 158.971Q247.95312 160.11162 247.20312 160.79912Q246.45312 161.471 245.25 161.471Q244.0625 161.471 243.29688 160.81474Q242.54688 160.1585 242.54688 159.096L243.64062 159.096Q243.64062 159.76787 244.07812 160.17412Q244.51562 160.58037 245.26562 160.58037Q246.04688 160.58037 246.45312 160.17412Q246.875 159.75224 246.875 158.98662Q246.875 158.25224 246.42188 157.86162Q245.96875 157.45537 245.09375 157.43974L244.28125 157.43974L244.28125 156.54912ZM249.84375 160.7835Q249.84375 160.50224 250.0 160.31474Q250.17188 160.12724 250.5 160.12724Q250.84375 160.12724 251.01562 160.31474Q251.1875 160.50224 251.1875 160.7835Q251.1875 161.04912 251.01562 161.23662Q250.84375 161.4085 250.5 161.4085Q250.17188 161.4085 250.0 161.23662Q249.84375 161.04912 249.84375 160.7835ZM257.28125 158.48662L258.46875 158.48662L258.46875 159.36162L257.28125 159.36162L257.28125 161.346L256.20312 161.346L256.20312 159.36162L252.3125 159.36162L252.3125 158.721L256.125 152.81474L257.28125 152.81474L257.28125 158.48662ZM253.54688 158.48662L256.20312 158.48662L256.20312 154.29912L256.0625 154.5335L253.54688 158.48662ZM264.28125 158.48662L265.46875 158.48662L265.46875 159.36162L264.28125 159.36162L264.28125 161.346L263.20312 161.346L263.20312 159.36162L259.3125 159.36162L259.3125 158.721L263.125 152.81474L264.28125 152.81474L264.28125 158.48662ZM260.54688 158.48662L263.20312 158.48662L263.20312 154.29912L263.0625 154.5335L260.54688 158.48662Z" fill-rule="nonzero"/><path fill="#ffffff" d="M244.28125 156.54912L245.09375 156.54912Q245.875 156.5335 246.3125 156.14287Q246.75 155.75224 246.75 155.08037Q246.75 153.58037 245.25 153.58037Q244.54688 153.58037 244.125 153.98662Q243.71875 154.39287 243.71875 155.04912L242.625 155.04912Q242.625 154.0335 243.35938 153.36162Q244.10938 152.68974 245.25 152.68974Q246.45312 152.68974 247.14062 153.33037Q247.82812 153.971 247.82812 155.11162Q247.82812 155.67412 247.46875 156.18974Q247.10938 156.70537 246.48438 156.971Q247.1875 157.18974 247.5625 157.70537Q247.95312 158.221 247.95312 158.971Q247.95312 160.11162 247.20312 160.79912Q246.45312 161.471 245.25 161.471Q244.0625 161.471 243.29688 160.81474Q242.54688 160.1585 242.54688 159.096L243.64062 159.096Q243.64062 159.76787 244.07812 160.17412Q244.51562 160.58037 245.26562 160.58037Q246.04688 160.58037 246.45312 160.17412Q246.875 159.75224 246.875 158.98662Q246.875 158.25224 246.42188 157.86162Q245.96875 157.45537 245.09375 157.43974L244.28125 157.43974L244.28125 156.54912ZM249.84375 160.7835Q249.84375 160.50224 250.0 160.31474Q250.17188 160.12724 250.5 160.12724Q250.84375 160.12724 251.01562 160.31474Q251.1875 160.50224 251.1875 160.7835Q251.1875 161.04912 251.01562 161.23662Q250.84375 161.4085 250.5 161.4085Q250.17188 161.4085 250.0 161.23662Q249.84375 161.04912 249.84375 160.7835ZM257.28125 158.48662L258.46875 158.48662L258.46875 159.36162L257.28125 159.36162L257.28125 161.346L256.20312 161.346L256.20312 159.36162L252.3125 159.36162L252.3125 158.721L256.125 152.81474L257.28125 152.81474L257.28125 158.48662ZM253.54688 158.48662L256.20312 158.48662L256.20312 154.29912L256.0625 154.5335L253.54688 158.48662ZM264.28125 158.48662L265.46875 158.48662L265.46875 159.36162L264.28125 159.36162L264.28125 161.346L263.20312 161.346L263.20312 159.36162L259.3125 159.36162L259.3125 158.721L263.125 152.81474L264.28125 152.81474L264.28125 158.48662ZM260.54688 158.48662L263.20312 158.48662L263.20312 154.29912L263.0625 154.5335L260.54688 158.48662Z" fill-rule="nonzero"/><path stroke="#006d57" stroke-width="3.0" stroke-linejoin="round" stroke-linecap="round" d="M327.28125 107.16463L328.46875 107.16463L328.46875 108.03963L327.28125 108.03963L327.28125 110.024L326.20312 110.024L326.20312 108.03963L322.3125 108.03963L322.3125 107.399L326.125 101.49275L327.28125 101.49275L327.28125 107.16463ZM323.54688 107.16463L326.20312 107.16463L326.20312 102.97713L326.0625 103.2115L323.54688 107.16463ZM329.84375 109.4615Q329.84375 109.18025 330.0 108.99275Q330.17188 108.80525 330.5 108.80525Q330.84375 108.80525 331.01562 108.99275Q331.1875 109.18025 331.1875 109.4615Q331.1875 109.72713 331.01562 109.91463Q330.84375 110.0865 330.5 110.0865Q330.17188 110.0865 330.0 109.91463Q329.84375 109.72713 329.84375 109.4615ZM336.26562 110.024L335.1875 110.024L335.1875 102.80525L333.0 103.60213L333.0 102.61775L336.10938 101.44588L336.26562 101.44588L336.26562 110.024ZM343.26562 110.024L342.1875 110.024L342.1875 102.80525L340.0 103.60213L340.0 102.61775L343.10938 101.44588L343.26562 101.44588L343.26562 110.024Z" fill-rule="nonzero"/><path fill="#ffffff" d="M327.28125 107.16463L328.46875 107.16463L328.46875 108.03963L327.28125 108.03963L327.28125 110.024L326.20312 110.024L326.20312 108.03963L322.3125 108.03963L322.3125 107.399L326.125 101.49275L327.28125 101.49275L327.28125 107.16463ZM323.54688 107.16463L326.20312 107.16463L326.20312 102.97713L326.0625 103.2115L323.54688 107.16463ZM329.84375 109.4615Q329.84375 109.18025 330.0 108.99275Q330.17188 108.80525 330.5 108.80525Q330.84375 108.80525 331.01562 108.99275Q331.1875 109.18025 331.1875 109.4615Q331.1875 109.72713 331.01562 109.91463Q330.84375 110.0865 330.5 110.0865Q330.17188 110.0865 330.0 109.91463Q329.84375 109.72713 329.84375 109.4615ZM336.26562 110.024L335.1875 110.024L335.1875 102.80525L333.0 103.60213L333.0 102.61775L336.10938 101.44588L336.26562 101.44588L336.26562 110.024ZM343.26562 110.024L342.1875 110.024L342.1875 102.80525L340.0 103.60213L340.0 102.61775L343.10938 101.44588L343.26562 101.44588L343.26562 110.024Z" fill-rule="nonzero"/><path stroke="#006d57" stroke-width="3.0" stroke-linejoin="round" stroke-linecap="round" d="M406.28125 90.31262L407.46875 90.31262L407.46875 91.18762L406.28125 91.18762L406.28125 93.172L405.20312 93.172L405.20312 91.18762L401.3125 91.18762L401.3125 90.547L405.125 84.64075L406.28125 84.64075L406.28125 90.31262ZM402.54688 90.31262L405.20312 90.31262L405.20312 86.12512L405.0625 86.3595L402.54688 90.31262ZM408.84375 92.6095Q408.84375 92.32825 409.0 92.14075Q409.17188 91.95325 409.5 91.95325Q409.84375 91.95325 410.01562 92.14075Q410.1875 92.32825 410.1875 92.6095Q410.1875 92.87512 410.01562 93.06262Q409.84375 93.2345 409.5 93.2345Q409.17188 93.2345 409.0 93.06262Q408.84375 92.87512 408.84375 92.6095ZM413.28125 88.37512L414.09375 88.37512Q414.875 88.3595 415.3125 87.96887Q415.75 87.57825 415.75 86.90637Q415.75 85.40637 414.25 85.40637Q413.54688 85.40637 413.125 85.81262Q412.71875 86.21887 412.71875 86.87512L411.625 86.87512Q411.625 85.8595 412.35938 85.18762Q413.10938 84.51575 414.25 84.51575Q415.45312 84.51575 416.14062 85.15637Q416.82812 85.797 416.82812 86.93762Q416.82812 87.50012 416.46875 88.01575Q416.10938 88.53137 415.48438 88.797Q416.1875 89.01575 416.5625 89.53137Q416.95312 90.047 416.95312 90.797Q416.95312 91.93762 416.20312 92.62512Q415.45312 93.297 414.25 93.297Q413.0625 93.297 412.29688 92.64075Q411.54688 91.9845 411.54688 90.922L412.64062 90.922Q412.64062 91.59387 413.07812 92.00012Q413.51562 92.40637 414.26562 92.40637Q415.04688 92.40637 415.45312 92.00012Q415.875 91.57825 415.875 90.81262Q415.875 90.07825 415.42188 89.68762Q414.96875 89.28137 414.09375 89.26575L413.28125 89.26575L413.28125 88.37512ZM420.28125 88.37512L421.09375 88.37512Q421.875 88.3595 422.3125 87.96887Q422.75 87.57825 422.75 86.90637Q422.75 85.40637 421.25 85.40637Q420.54688 85.40637 420.125 85.81262Q419.71875 86.21887 419.71875 86.87512L418.625 86.87512Q418.625 85.8595 419.35938 85.18762Q420.10938 84.51575 421.25 84.51575Q422.45312 84.51575 423.14062 85.15637Q423.82812 85.797 423.82812 86.93762Q423.82812 87.50012 423.46875 88.01575Q423.10938 88.53137 422.48438 88.797Q423.1875 89.01575 423.5625 89.53137Q423.95312 90.047 423.95312 90.797Q423.95312 91.93762 423.20312 92.62512Q422.45312 93.297 421.25 93.297Q420.0625 93.297 419.29688 92.64075Q418.54688 91.9845 418.54688 90.922L419.64062 90.922Q419.64062 91.59387 420.07812 92.00012Q420.51562 92.40637 421.26562 92.40637Q422.04688 92.40637 422.45312 92.00012Q422.875 91.57825 422.875 90.81262Q422.875 90.07825 422.42188 89.68762Q421.96875 89.28137 421.09375 89.26575L420.28125 89.26575L420.28125 88.37512Z" fill-rule="nonzero"/><path fill="#ffffff" d="M406.28125 90.31262L407.46875 90.31262L407.46875 91.18762L406.28125 91.18762L406.28125 93.172L405.20312 93.172L405.20312 91.18762L401.3125 91.18762L401.3125 90.547L405.125 84.64075L406.28125 84.64075L406.28125 90.31262ZM402.54688 90.31262L405.20312 90.31262L405.20312 86.12512L405.0625 86.3595L402.54688 90.31262ZM408.84375 92.6095Q408.84375 92.32825 409.0 92.14075Q409.17188 91.95325 409.5 91.95325Q409.84375 91.95325 410.01562 92.14075Q410.1875 92.32825 410.1875 92.6095Q410.1875 92.87512 410.01562 93.06262Q409.84375 93.2345 409.5 93.2345Q409.17188 93.2345 409.0 93.06262Q408.84375 92.87512 408.84375 92.6095ZM413.28125 88.37512L414.09375 88.37512Q414.875 88.3595 415.3125 87.96887Q415.75 87.57825 415.75 86.90637Q415.75 85.40637 414.25 85.40637Q413.54688 85.40637 413.125 85.81262Q412.71875 86.21887 412.71875 86.87512L411.625 86.87512Q411.625 85.8595 412.35938 85.18762Q413.10938 84.51575 414.25 84.51575Q415.45312 84.51575 416.14062 85.15637Q416.82812 85.797 416.82812 86.93762Q416.82812 87.50012 416.46875 88.01575Q416.10938 88.53137 415.48438 88.797Q416.1875 89.01575 416.5625 89.53137Q416.95312 90.047 416.95312 90.797Q416.95312 91.93762 416.20312 92.62512Q415.45312 93.297 414.25 93.297Q413.0625 93.297 412.29688 92.64075Q411.54688 91.9845 411.54688 90.922L412.64062 90.922Q412.64062 91.59387 413.07812 92.00012Q413.51562 92.40637 414.26562 92.40637Q415.04688 92.40637 415.45312 92.00012Q415.875 91.57825 415.875 90.81262Q415.875 90.07825 415.42188 89.68762Q414.96875 89.28137 414.09375 89.26575L413.28125 89.26575L413.28125 88.37512ZM420.28125 88.37512L421.09375 88.37512Q421.875 88.3595 422.3125 87.96887Q422.75 87.57825 422.75 86.90637Q422.75 85.40637 421.25 85.40637Q420.54688 85.40637 420.125 85.81262Q419.71875 86.21887 419.71875 86.87512L418.625 86.87512Q418.625 85.8595 419.35938 85.18762Q420.10938 84.51575 421.25 84.51575Q422.45312 84.51575 423.14062 85.15637Q423.82812 85.797 423.82812 86.93762Q423.82812 87.50012 423.46875 88.01575Q423.10938 88.53137 422.48438 88.797Q423.1875 89.01575 423.5625 89.53137Q423.95312 90.047 423.95312 90.797Q423.95312 91.93762 423.20312 92.62512Q422.45312 93.297 421.25 93.297Q420.0625 93.297 419.29688 92.64075Q418.54688 91.9845 418.54688 90.922L419.64062 90.922Q419.64062 91.59387 420.07812 92.00012Q420.51562 92.40637 421.26562 92.40637Q422.04688 92.40637 422.45312 92.00012Q422.875 91.57825 422.875 90.81262Q422.875 90.07825 422.42188 89.68762Q421.96875 89.28137 421.09375 89.26575L420.28125 89.26575L420.28125 88.37512Z" fill-rule="nonzero"/><path fill="#b7b7b7" d="M34.1125 334.95L33.20625 334.95L33.20625 328.9344L31.378124 329.59064L31.378124 328.77814L33.971874 327.8094L34.1125 327.8094L34.1125 334.95Z" fill-rule="nonzero"/><path fill="#b7b7b7" d="M35.8 258.35L31.14375 258.35L31.14375 257.69376L33.596874 254.95938Q34.14375 254.35 34.346874 253.95938Q34.565624 253.56876 34.565624 253.14688Q34.565624 252.6 34.221874 252.24063Q33.89375 251.88126 33.33125 251.88126Q32.659374 251.88126 32.284374 252.27188Q31.909374 252.64688 31.909374 253.33438L31.003124 253.33438Q31.003124 252.35 31.628124 251.75626Q32.26875 251.14688 33.33125 251.14688Q34.315624 251.14688 34.89375 251.6625Q35.471874 252.17813 35.471874 253.05313Q35.471874 254.1 34.128124 255.55313L32.2375 257.61563L35.8 257.61563L35.8 258.35Z" fill-rule="nonzero"/><path fill="#b7b7b7" d="M32.45625 177.75L33.128124 177.75Q33.76875 177.75 34.128124 177.42188Q34.503124 177.09375 34.503124 176.53125Q34.503124 175.28125 33.253124 175.28125Q32.675 175.28125 32.315624 175.625Q31.971874 175.95312 31.971874 176.5L31.065624 176.5Q31.065624 175.65625 31.690624 175.10938Q32.315624 174.54688 33.253124 174.54688Q34.26875 174.54688 34.83125 175.07812Q35.409374 175.60938 35.409374 176.54688Q35.409374 177.01562 35.1125 177.45312Q34.815624 177.89062 34.284374 178.10938Q34.878124 178.28125 35.190624 178.71875Q35.51875 179.14062 35.51875 179.76562Q35.51875 180.71875 34.89375 181.28125Q34.26875 181.84375 33.26875 181.84375Q32.26875 181.84375 31.628124 181.3125Q31.003124 180.76562 31.003124 179.875L31.925 179.875Q31.925 180.4375 32.284374 180.78125Q32.64375 181.10938 33.26875 181.10938Q33.925 181.10938 34.26875 180.76562Q34.6125 180.42188 34.6125 179.78125Q34.6125 179.17188 34.221874 178.84375Q33.846874 178.5 33.128124 178.5L32.45625 178.5L32.45625 177.75Z" fill-rule="nonzero"/><path fill="#b7b7b7" d="M34.95625 102.75938L35.940624 102.75938L35.940624 103.49375L34.95625 103.49375L34.95625 105.15L34.05 105.15L34.05 103.49375L30.815624 103.49375L30.815624 102.9625L33.9875 98.04063L34.95625 98.04063L34.95625 102.75938ZM31.83125 102.75938L34.05 102.75938L34.05 99.275L33.940624 99.47813L31.83125 102.75938Z" fill-rule="nonzero"/><path fill="#b7b7b7" d="M31.55 24.9875L31.925 21.440624L35.565624 21.440624L35.565624 22.26875L32.690624 22.26875L32.471874 24.20625Q32.9875 23.909374 33.659374 23.909374Q34.628124 23.909374 35.190624 24.55Q35.76875 25.190624 35.76875 26.284374Q35.76875 27.378124 35.175 28.01875Q34.58125 28.64375 33.51875 28.64375Q32.58125 28.64375 31.971874 28.128124Q31.378124 27.596874 31.3 26.675L32.159374 26.675Q32.2375 27.284374 32.58125 27.596874Q32.940624 27.909374 33.51875 27.909374Q34.14375 27.909374 34.503124 27.4875Q34.8625 27.05 34.8625 26.3Q34.8625 25.58125 34.471874 25.159374Q34.096874 24.721874 33.440624 24.721874Q32.8625 24.721874 32.51875 24.971874L32.284374 25.175L31.55 24.9875Z" fill-rule="nonzero"/><path fill="#000000" d="M65.87724 348.52814L69.92412 348.52814L69.92412 349.45L64.73662 349.45L64.73662 340.91876L65.87724 340.91876L65.87724 348.52814ZM73.20537 349.575Q71.90849 349.575 71.09599 348.73126Q70.29912 347.8719 70.29912 346.45L70.29912 346.2625Q70.29912 345.3094 70.65849 344.575Q71.01787 343.825 71.65849 343.41876Q72.31474 342.9969 73.06474 342.9969Q74.29912 342.9969 74.98662 343.8094Q75.67412 344.6219 75.67412 346.1375L75.67412 346.59064L71.37724 346.59064Q71.40849 347.52814 71.92412 348.10626Q72.45537 348.6844 73.26787 348.6844Q73.83037 348.6844 74.22099 348.45Q74.62724 348.21564 74.93974 347.825L75.59599 348.34064Q74.79912 349.575 73.20537 349.575ZM73.06474 343.8875Q72.40849 343.8875 71.95537 344.3719Q71.51787 344.84064 71.42412 345.7L74.59599 345.7L74.59599 345.6219Q74.54912 344.79376 74.14287 344.34064Q73.75224 343.8875 73.06474 343.8875ZM80.48662 349.45Q80.39287 349.2625 80.33037 348.77814Q79.58037 349.575 78.53349 349.575Q77.59599 349.575 76.98662 349.04376Q76.39287 348.5125 76.39287 347.6844Q76.39287 346.7 77.14287 346.15314Q77.89287 345.60626 79.26787 345.60626L80.31474 345.60626L80.31474 345.10626Q80.31474 344.54376 79.97099 344.21564Q79.64287 343.8719 78.97099 343.8719Q78.39287 343.8719 78.00224 344.16876Q77.61162 344.45 77.61162 344.8719L76.51787 344.8719Q76.51787 344.3875 76.84599 343.95Q77.18974 343.5125 77.76787 343.2625Q78.34599 342.9969 79.03349 342.9969Q80.14287 342.9969 80.75224 343.54376Q81.37724 344.09064 81.40849 345.04376L81.40849 347.96564Q81.40849 348.84064 81.62724 349.35626L81.62724 349.45L80.48662 349.45ZM78.68974 348.6219Q79.20537 348.6219 79.65849 348.35626Q80.11162 348.09064 80.31474 347.66876L80.31474 346.3719L79.47099 346.3719Q77.47099 346.3719 77.47099 347.54376Q77.47099 348.04376 77.81474 348.34064Q78.15849 348.6219 78.68974 348.6219ZM86.64287 344.075Q86.39287 344.04376 86.11162 344.04376Q85.03349 344.04376 84.65849 344.95L84.65849 349.45L83.58037 349.45L83.58037 343.10626L84.62724 343.10626L84.64287 343.84064Q85.17412 342.9969 86.15849 342.9969Q86.47099 342.9969 86.64287 343.075L86.64287 344.075ZM88.59599 343.10626L88.62724 343.90314Q89.36162 342.9969 90.53349 342.9969Q92.54912 342.9969 92.56474 345.2625L92.56474 349.45L91.47099 349.45L91.47099 345.2469Q91.47099 344.575 91.15849 344.2469Q90.86162 343.91876 90.20537 343.91876Q89.67412 343.91876 89.26787 344.2Q88.87724 344.48126 88.65849 344.9344L88.65849 349.45L87.58037 349.45L87.58037 343.10626L88.59599 343.10626ZM98.48662 349.45Q98.39287 349.2625 98.33037 348.77814Q97.58037 349.575 96.53349 349.575Q95.59599 349.575 94.98662 349.04376Q94.39287 348.5125 94.39287 347.6844Q94.39287 346.7 95.14287 346.15314Q95.89287 345.60626 97.26787 345.60626L98.31474 345.60626L98.31474 345.10626Q98.31474 344.54376 97.97099 344.21564Q97.64287 343.8719 96.97099 343.8719Q96.39287 343.8719 96.00224 344.16876Q95.61162 344.45 95.61162 344.8719L94.51787 344.8719Q94.51787 344.3875 94.84599 343.95Q95.18974 343.5125 95.76787 343.2625Q96.34599 342.9969 97.03349 342.9969Q98.14287 342.9969 98.75224 343.54376Q99.37724 344.09064 99.40849 345.04376L99.40849 347.96564Q99.40849 348.84064 99.62724 349.35626L99.62724 349.45L98.48662 349.45ZM96.68974 348.6219Q97.20537 348.6219 97.65849 348.35626Q98.11162 348.09064 98.31474 347.66876L98.31474 346.3719L97.47099 346.3719Q95.47099 346.3719 95.47099 347.54376Q95.47099 348.04376 95.81474 348.34064Q96.15849 348.6219 96.68974 348.6219ZM106.93974 346.35626Q106.93974 347.8094 106.26787 348.7Q105.61162 349.575 104.48662 349.575Q103.28349 349.575 102.62724 348.71564L102.56474 349.45L101.58037 349.45L101.58037 340.45L102.65849 340.45L102.65849 343.8094Q103.31474 342.9969 104.47099 342.9969Q105.62724 342.9969 106.28349 343.8719Q106.93974 344.73126 106.93974 346.2625L106.93974 346.35626ZM105.86162 346.23126Q105.86162 345.1219 105.42412 344.52814Q105.00224 343.91876 104.20537 343.91876Q103.12724 343.91876 102.65849 344.90314L102.65849 347.65314Q103.15849 348.65314 104.20537 348.65314Q104.98662 348.65314 105.42412 348.04376Q105.86162 347.4344 105.86162 346.23126ZM109.75224 349.45L108.67412 349.45L108.67412 343.10626L109.75224 343.10626L109.75224 349.45ZM108.58037 341.4344Q108.58037 341.16876 108.73662 340.98126Q108.90849 340.79376 109.22099 340.79376Q109.53349 340.79376 109.68974 340.98126Q109.86162 341.16876 109.86162 341.4344Q109.86162 341.6844 109.68974 341.8719Q109.53349 342.04376 109.22099 342.04376Q108.90849 342.04376 108.73662 341.8719Q108.58037 341.6844 108.58037 341.4344ZM112.75224 349.45L111.67412 349.45L111.67412 340.45L112.75224 340.45L112.75224 349.45ZM115.75224 349.45L114.67412 349.45L114.67412 343.10626L115.75224 343.10626L115.75224 349.45ZM114.58037 341.4344Q114.58037 341.16876 114.73662 340.98126Q114.90849 340.79376 115.22099 340.79376Q115.53349 340.79376 115.68974 340.98126Q115.86162 341.16876 115.86162 341.4344Q115.86162 341.6844 115.68974 341.8719Q115.53349 342.04376 115.22099 342.04376Q114.90849 342.04376 114.73662 341.8719Q114.58037 341.6844 114.58037 341.4344ZM119.04912 341.575L119.04912 343.10626L120.22099 343.10626L120.22099 343.95L119.04912 343.95L119.04912 347.8719Q119.04912 348.2625 119.20537 348.45Q119.36162 348.6375 119.73662 348.6375Q119.92412 348.6375 120.25224 348.575L120.25224 349.45Q119.83037 349.575 119.42412 349.575Q118.70537 349.575 118.33037 349.1375Q117.95537 348.6844 117.95537 347.8719L117.95537 343.95L116.79912 343.95L116.79912 343.10626L117.95537 343.10626L117.95537 341.575L119.04912 341.575ZM123.64287 347.85626L125.12724 343.10626L126.28349 343.10626L123.73662 350.4344Q123.14287 352.0125 121.86162 352.0125L121.64287 351.9969L121.25224 351.91876L121.25224 351.04376L121.53349 351.0594Q122.09599 351.0594 122.39287 350.84064Q122.70537 350.6219 122.90849 350.02814L123.14287 349.3719L120.87724 343.10626L122.06474 343.10626L123.64287 347.85626Z" fill-rule="nonzero"/><path fill="#000000" d="M141.4205 346.10626L141.4205 349.45L140.2955 349.45L140.2955 340.91876L143.45175 340.91876Q144.84238 340.91876 145.63925 341.6375Q146.43613 342.34064 146.43613 343.52814Q146.43613 344.7625 145.65488 345.4344Q144.88925 346.10626 143.43613 346.10626L141.4205 346.10626ZM141.4205 345.1844L143.45175 345.1844Q144.358 345.1844 144.82675 344.7625Q145.31113 344.34064 145.31113 343.54376Q145.31113 342.77814 144.82675 342.325Q144.358 341.85626 143.51425 341.84064L141.4205 341.84064L141.4205 345.1844ZM151.20175 344.075Q150.95175 344.04376 150.6705 344.04376Q149.59238 344.04376 149.21738 344.95L149.21738 349.45L148.13925 349.45L148.13925 343.10626L149.18613 343.10626L149.20175 343.84064Q149.733 342.9969 150.71738 342.9969Q151.02988 342.9969 151.20175 343.075L151.20175 344.075ZM154.76425 349.575Q153.46738 349.575 152.65488 348.73126Q151.858 347.8719 151.858 346.45L151.858 346.2625Q151.858 345.3094 152.21738 344.575Q152.57675 343.825 153.21738 343.41876Q153.87363 342.9969 154.62363 342.9969Q155.858 342.9969 156.5455 343.8094Q157.233 344.6219 157.233 346.1375L157.233 346.59064L152.93613 346.59064Q152.96738 347.52814 153.483 348.10626Q154.01425 348.6844 154.82675 348.6844Q155.38925 348.6844 155.77988 348.45Q156.18613 348.21564 156.49863 347.825L157.15488 348.34064Q156.358 349.575 154.76425 349.575ZM154.62363 343.8875Q153.96738 343.8875 153.51425 344.3719Q153.07675 344.84064 152.983 345.7L156.15488 345.7L156.15488 345.6219Q156.108 344.79376 155.70175 344.34064Q155.31113 343.8875 154.62363 343.8875ZM157.87363 346.23126Q157.87363 344.7625 158.56113 343.8875Q159.24863 342.9969 160.37363 342.9969Q161.483 342.9969 162.13925 343.7469L162.13925 340.45L163.21738 340.45L163.21738 349.45L162.21738 349.45L162.1705 348.7625Q161.51425 349.575 160.358 349.575Q159.26425 349.575 158.56113 348.66876Q157.87363 347.7625 157.87363 346.3094L157.87363 346.23126ZM158.95175 346.35626Q158.95175 347.4344 159.38925 348.04376Q159.84238 348.65314 160.62363 348.65314Q161.65488 348.65314 162.13925 347.71564L162.13925 344.8094Q161.65488 343.91876 160.63925 343.91876Q159.84238 343.91876 159.38925 344.52814Q158.95175 345.1375 158.95175 346.35626ZM166.31113 349.45L165.233 349.45L165.233 343.10626L166.31113 343.10626L166.31113 349.45ZM165.13925 341.4344Q165.13925 341.16876 165.2955 340.98126Q165.46738 340.79376 165.77988 340.79376Q166.09238 340.79376 166.24863 340.98126Q166.4205 341.16876 166.4205 341.4344Q166.4205 341.6844 166.24863 341.8719Q166.09238 342.04376 165.77988 342.04376Q165.46738 342.04376 165.2955 341.8719Q165.13925 341.6844 165.13925 341.4344ZM170.6705 348.6844Q171.24863 348.6844 171.68613 348.34064Q172.12363 347.98126 172.1705 347.45L173.20175 347.45Q173.1705 347.9969 172.81113 348.4969Q172.46738 348.98126 171.88925 349.27814Q171.32675 349.575 170.6705 349.575Q169.37363 349.575 168.608 348.71564Q167.858 347.84064 167.858 346.34064L167.858 346.15314Q167.858 345.23126 168.18613 344.5125Q168.52988 343.79376 169.15488 343.40314Q169.7955 342.9969 170.6705 342.9969Q171.733 342.9969 172.43613 343.6375Q173.15488 344.2625 173.20175 345.29376L172.1705 345.29376Q172.12363 344.66876 171.70175 344.27814Q171.27988 343.8875 170.6705 343.8875Q169.84238 343.8875 169.38925 344.48126Q168.93613 345.075 168.93613 346.2L168.93613 346.40314Q168.93613 347.4969 169.38925 348.09064Q169.84238 348.6844 170.6705 348.6844ZM175.608 341.575L175.608 343.10626L176.77988 343.10626L176.77988 343.95L175.608 343.95L175.608 347.8719Q175.608 348.2625 175.76425 348.45Q175.9205 348.6375 176.2955 348.6375Q176.483 348.6375 176.81113 348.575L176.81113 349.45Q176.38925 349.575 175.983 349.575Q175.26425 349.575 174.88925 349.1375Q174.51425 348.6844 174.51425 347.8719L174.51425 343.95L173.358 343.95L173.358 343.10626L174.51425 343.10626L174.51425 341.575L175.608 341.575ZM182.0455 349.45Q181.95175 349.2625 181.88925 348.77814Q181.13925 349.575 180.09238 349.575Q179.15488 349.575 178.5455 349.04376Q177.95175 348.5125 177.95175 347.6844Q177.95175 346.7 178.70175 346.15314Q179.45175 345.60626 180.82675 345.60626L181.87363 345.60626L181.87363 345.10626Q181.87363 344.54376 181.52988 344.21564Q181.20175 343.8719 180.52988 343.8719Q179.95175 343.8719 179.56113 344.16876Q179.1705 344.45 179.1705 344.8719L178.07675 344.8719Q178.07675 344.3875 178.40488 343.95Q178.74863 343.5125 179.32675 343.2625Q179.90488 342.9969 180.59238 342.9969Q181.70175 342.9969 182.31113 343.54376Q182.93613 344.09064 182.96738 345.04376L182.96738 347.96564Q182.96738 348.84064 183.18613 349.35626L183.18613 349.45L182.0455 349.45ZM180.24863 348.6219Q180.76425 348.6219 181.21738 348.35626Q181.6705 348.09064 181.87363 347.66876L181.87363 346.3719L181.02988 346.3719Q179.02988 346.3719 179.02988 347.54376Q179.02988 348.04376 179.37363 348.34064Q179.71738 348.6219 180.24863 348.6219ZM190.49863 346.35626Q190.49863 347.8094 189.82675 348.7Q189.1705 349.575 188.0455 349.575Q186.84238 349.575 186.18613 348.71564L186.12363 349.45L185.13925 349.45L185.13925 340.45L186.21738 340.45L186.21738 343.8094Q186.87363 342.9969 188.02988 342.9969Q189.18613 342.9969 189.84238 343.8719Q190.49863 344.73126 190.49863 346.2625L190.49863 346.35626ZM189.4205 346.23126Q189.4205 345.1219 188.983 344.52814Q188.56113 343.91876 187.76425 343.91876Q186.68613 343.91876 186.21738 344.90314L186.21738 347.65314Q186.71738 348.65314 187.76425 348.65314Q188.5455 348.65314 188.983 348.04376Q189.4205 347.4344 189.4205 346.23126ZM193.31113 349.45L192.233 349.45L192.233 343.10626L193.31113 343.10626L193.31113 349.45ZM192.13925 341.4344Q192.13925 341.16876 192.2955 340.98126Q192.46738 340.79376 192.77988 340.79376Q193.09238 340.79376 193.24863 340.98126Q193.4205 341.16876 193.4205 341.4344Q193.4205 341.6844 193.24863 341.8719Q193.09238 342.04376 192.77988 342.04376Q192.46738 342.04376 192.2955 341.8719Q192.13925 341.6844 192.13925 341.4344ZM196.31113 349.45L195.233 349.45L195.233 340.45L196.31113 340.45L196.31113 349.45ZM199.31113 349.45L198.233 349.45L198.233 343.10626L199.31113 343.10626L199.31113 349.45ZM198.13925 341.4344Q198.13925 341.16876 198.2955 340.98126Q198.46738 340.79376 198.77988 340.79376Q199.09238 340.79376 199.24863 340.98126Q199.4205 341.16876 199.4205 341.4344Q199.4205 341.6844 199.24863 341.8719Q199.09238 342.04376 198.77988 342.04376Q198.46738 342.04376 198.2955 341.8719Q198.13925 341.6844 198.13925 341.4344ZM202.608 341.575L202.608 343.10626L203.77988 343.10626L203.77988 343.95L202.608 343.95L202.608 347.8719Q202.608 348.2625 202.76425 348.45Q202.9205 348.6375 203.2955 348.6375Q203.483 348.6375 203.81113 348.575L203.81113 349.45Q203.38925 349.575 202.983 349.575Q202.26425 349.575 201.88925 349.1375Q201.51425 348.6844 201.51425 347.8719L201.51425 343.95L200.358 343.95L200.358 343.10626L201.51425 343.10626L201.51425 341.575L202.608 341.575ZM207.20175 347.85626L208.68613 343.10626L209.84238 343.10626L207.2955 350.4344Q206.70175 352.0125 205.4205 352.0125L205.20175 351.9969L204.81113 351.91876L204.81113 351.04376L205.09238 351.0594Q205.65488 351.0594 205.95175 350.84064Q206.26425 350.6219 206.46738 350.02814L206.70175 349.3719L204.43613 343.10626L205.62363 343.10626L207.20175 347.85626Z" fill-rule="nonzero"/><path fill="#000000" d="M226.91687 345.46564Q226.91687 346.71564 226.495 347.65314Q226.07312 348.575 225.29187 349.075Q224.52625 349.575 223.495 349.575Q222.495 349.575 221.71375 349.075Q220.9325 348.575 220.495 347.66876Q220.07312 346.7469 220.0575 345.52814L220.0575 344.91876Q220.0575 343.6844 220.47937 342.7469Q220.91687 341.8094 221.69812 341.3094Q222.47937 340.79376 223.495 340.79376Q224.51062 340.79376 225.29187 341.29376Q226.07312 341.79376 226.495 342.73126Q226.91687 343.66876 226.91687 344.91876L226.91687 345.46564ZM225.8075 344.90314Q225.8075 343.3875 225.19812 342.575Q224.58875 341.7625 223.495 341.7625Q222.41687 341.7625 221.8075 342.575Q221.19812 343.3875 221.1825 344.825L221.1825 345.46564Q221.1825 346.9344 221.79187 347.77814Q222.41687 348.60626 223.495 348.60626Q224.58875 348.60626 225.1825 347.825Q225.79187 347.02814 225.8075 345.54376L225.8075 344.90314ZM233.5575 346.35626Q233.5575 347.8094 232.88562 348.7Q232.22937 349.575 231.10437 349.575Q229.90125 349.575 229.245 348.71564L229.1825 349.45L228.19812 349.45L228.19812 340.45L229.27625 340.45L229.27625 343.8094Q229.9325 342.9969 231.08875 342.9969Q232.245 342.9969 232.90125 343.8719Q233.5575 344.73126 233.5575 346.2625L233.5575 346.35626ZM232.47937 346.23126Q232.47937 345.1219 232.04187 344.52814Q231.62 343.91876 230.82312 343.91876Q229.745 343.91876 229.27625 344.90314L229.27625 347.65314Q229.77625 348.65314 230.82312 348.65314Q231.60437 348.65314 232.04187 348.04376Q232.47937 347.4344 232.47937 346.23126ZM238.88562 347.7625Q238.88562 347.325 238.54187 347.09064Q238.21375 346.84064 237.38562 346.66876Q236.57312 346.4969 236.08875 346.2469Q235.60437 345.9969 235.37 345.66876Q235.15125 345.325 235.15125 344.85626Q235.15125 344.075 235.8075 343.54376Q236.46375 342.9969 237.495 342.9969Q238.57312 342.9969 239.22937 343.5594Q239.90125 344.10626 239.90125 344.96564L238.82312 344.96564Q238.82312 344.52814 238.4325 344.21564Q238.0575 343.8875 237.495 343.8875Q236.90125 343.8875 236.5575 344.15314Q236.22937 344.40314 236.22937 344.8094Q236.22937 345.2 236.54187 345.40314Q236.85437 345.60626 237.66687 345.79376Q238.47937 345.96564 238.97937 346.21564Q239.47937 346.46564 239.71375 346.825Q239.96375 347.1844 239.96375 347.6844Q239.96375 348.54376 239.27625 349.0594Q238.60437 349.575 237.52625 349.575Q236.76062 349.575 236.16687 349.3094Q235.58875 349.02814 235.26062 348.54376Q234.9325 348.0594 234.9325 347.4969L236.01062 347.4969Q236.04187 348.04376 236.44812 348.3719Q236.85437 348.6844 237.52625 348.6844Q238.13562 348.6844 238.51062 348.4344Q238.88562 348.1844 238.88562 347.7625ZM243.82312 349.575Q242.52625 349.575 241.71375 348.73126Q240.91687 347.8719 240.91687 346.45L240.91687 346.2625Q240.91687 345.3094 241.27625 344.575Q241.63562 343.825 242.27625 343.41876Q242.9325 342.9969 243.6825 342.9969Q244.91687 342.9969 245.60437 343.8094Q246.29187 344.6219 246.29187 346.1375L246.29187 346.59064L241.995 346.59064Q242.02625 347.52814 242.54187 348.10626Q243.07312 348.6844 243.88562 348.6844Q244.44812 348.6844 244.83875 348.45Q245.245 348.21564 245.5575 347.825L246.21375 348.34064Q245.41687 349.575 243.82312 349.575ZM243.6825 343.8875Q243.02625 343.8875 242.57312 344.3719Q242.13562 344.84064 242.04187 345.7L245.21375 345.7L245.21375 345.6219Q245.16687 344.79376 244.76062 344.34064Q244.37 343.8875 243.6825 343.8875ZM250.26062 344.075Q250.01062 344.04376 249.72937 344.04376Q248.65125 344.04376 248.27625 344.95L248.27625 349.45L247.19812 349.45L247.19812 343.10626L248.245 343.10626L248.26062 343.84064Q248.79187 342.9969 249.77625 342.9969Q250.08875 342.9969 250.26062 343.075L250.26062 344.075ZM253.27625 347.98126L254.85437 343.10626L255.96375 343.10626L253.6825 349.45L252.85437 349.45L250.5575 343.10626L251.66687 343.10626L253.27625 347.98126ZM261.10437 349.45Q261.01062 349.2625 260.94812 348.77814Q260.19812 349.575 259.15125 349.575Q258.21375 349.575 257.60437 349.04376Q257.01062 348.5125 257.01062 347.6844Q257.01062 346.7 257.76062 346.15314Q258.51062 345.60626 259.88562 345.60626L260.9325 345.60626L260.9325 345.10626Q260.9325 344.54376 260.58875 344.21564Q260.26062 343.8719 259.58875 343.8719Q259.01062 343.8719 258.62 344.16876Q258.22937 344.45 258.22937 344.8719L257.13562 344.8719Q257.13562 344.3875 257.46375 343.95Q257.8075 343.5125 258.38562 343.2625Q258.96375 342.9969 259.65125 342.9969Q260.76062 342.9969 261.37 343.54376Q261.995 344.09064 262.02625 345.04376L262.02625 347.96564Q262.02625 348.84064 262.245 349.35626L262.245 349.45L261.10437 349.45ZM259.3075 348.6219Q259.82312 348.6219 260.27625 348.35626Q260.72937 348.09064 260.9325 347.66876L260.9325 346.3719L260.08875 346.3719Q258.08875 346.3719 258.08875 347.54376Q258.08875 348.04376 258.4325 348.34064Q258.77625 348.6219 259.3075 348.6219ZM269.5575 346.35626Q269.5575 347.8094 268.88562 348.7Q268.22937 349.575 267.10437 349.575Q265.90125 349.575 265.245 348.71564L265.1825 349.45L264.19812 349.45L264.19812 340.45L265.27625 340.45L265.27625 343.8094Q265.9325 342.9969 267.08875 342.9969Q268.245 342.9969 268.90125 343.8719Q269.5575 344.73126 269.5575 346.2625L269.5575 346.35626ZM268.47937 346.23126Q268.47937 345.1219 268.04187 344.52814Q267.62 343.91876 266.82312 343.91876Q265.745 343.91876 265.27625 344.90314L265.27625 347.65314Q265.77625 348.65314 266.82312 348.65314Q267.60437 348.65314 268.04187 348.04376Q268.47937 347.4344 268.47937 346.23126ZM272.37 349.45L271.29187 349.45L271.29187 343.10626L272.37 343.10626L272.37 349.45ZM271.19812 341.4344Q271.19812 341.16876 271.35437 340.98126Q271.52625 340.79376 271.83875 340.79376Q272.15125 340.79376 272.3075 340.98126Q272.47937 341.16876 272.47937 341.4344Q272.47937 341.6844 272.3075 341.8719Q272.15125 342.04376 271.83875 342.04376Q271.52625 342.04376 271.35437 341.8719Q271.19812 341.6844 271.19812 341.4344ZM275.37 349.45L274.29187 349.45L274.29187 340.45L275.37 340.45L275.37 349.45ZM278.37 349.45L277.29187 349.45L277.29187 343.10626L278.37 343.10626L278.37 349.45ZM277.19812 341.4344Q277.19812 341.16876 277.35437 340.98126Q277.52625 340.79376 277.83875 340.79376Q278.15125 340.79376 278.3075 340.98126Q278.47937 341.16876 278.47937 341.4344Q278.47937 341.6844 278.3075 341.8719Q278.15125 342.04376 277.83875 342.04376Q277.52625 342.04376 277.35437 341.8719Q277.19812 341.6844 277.19812 341.4344ZM281.66687 341.575L281.66687 343.10626L282.83875 343.10626L282.83875 343.95L281.66687 343.95L281.66687 347.8719Q281.66687 348.2625 281.82312 348.45Q281.97937 348.6375 282.35437 348.6375Q282.54187 348.6375 282.87 348.575L282.87 349.45Q282.44812 349.575 282.04187 349.575Q281.32312 349.575 280.94812 349.1375Q280.57312 348.6844 280.57312 347.8719L280.57312 343.95L279.41687 343.95L279.41687 343.10626L280.57312 343.10626L280.57312 341.575L281.66687 341.575ZM286.26062 347.85626L287.745 343.10626L288.90125 343.10626L286.35437 350.4344Q285.76062 352.0125 284.47937 352.0125L284.26062 351.9969L283.87 351.91876L283.87 351.04376L284.15125 351.0594Q284.71375 351.0594 285.01062 350.84064Q285.32312 350.6219 285.52625 350.02814L285.76062 349.3719L283.495 343.10626L284.6825 343.10626L286.26062 347.85626Z" fill-rule="nonzero"/><path fill="#000000" d="M300.55386 345.9969L298.53824 345.9969L298.53824 349.45L297.41324 349.45L297.41324 340.91876L300.24136 340.91876Q301.67886 340.91876 302.4445 341.575Q303.22574 342.23126 303.22574 343.48126Q303.22574 344.27814 302.78824 344.8719Q302.36636 345.46564 301.60074 345.7625L303.60074 349.3719L303.60074 349.45L302.3976 349.45L300.55386 345.9969ZM298.53824 345.075L300.2726 345.075Q301.11636 345.075 301.60074 344.65314Q302.10074 344.21564 302.10074 343.48126Q302.10074 342.7 301.632 342.27814Q301.16324 341.85626 300.2726 341.84064L298.53824 341.84064L298.53824 345.075ZM306.882 349.575Q305.5851 349.575 304.7726 348.73126Q303.97574 347.8719 303.97574 346.45L303.97574 346.2625Q303.97574 345.3094 304.3351 344.575Q304.6945 343.825 305.3351 343.41876Q305.99136 342.9969 306.74136 342.9969Q307.97574 342.9969 308.66324 343.8094Q309.35074 344.6219 309.35074 346.1375L309.35074 346.59064L305.05386 346.59064Q305.0851 347.52814 305.60074 348.10626Q306.132 348.6844 306.9445 348.6844Q307.507 348.6844 307.8976 348.45Q308.30386 348.21564 308.61636 347.825L309.2726 348.34064Q308.47574 349.575 306.882 349.575ZM306.74136 343.8875Q306.0851 343.8875 305.632 344.3719Q305.1945 344.84064 305.10074 345.7L308.2726 345.7L308.2726 345.6219Q308.22574 344.79376 307.8195 344.34064Q307.42886 343.8875 306.74136 343.8875ZM312.78824 348.6844Q313.36636 348.6844 313.80386 348.34064Q314.24136 347.98126 314.28824 347.45L315.3195 347.45Q315.28824 347.9969 314.92886 348.4969Q314.5851 348.98126 314.007 349.27814Q313.4445 349.575 312.78824 349.575Q311.49136 349.575 310.72574 348.71564Q309.97574 347.84064 309.97574 346.34064L309.97574 346.15314Q309.97574 345.23126 310.30386 344.5125Q310.6476 343.79376 311.2726 343.40314Q311.91324 342.9969 312.78824 342.9969Q313.85074 342.9969 314.55386 343.6375Q315.2726 344.2625 315.3195 345.29376L314.28824 345.29376Q314.24136 344.66876 313.8195 344.27814Q313.3976 343.8875 312.78824 343.8875Q311.9601 343.8875 311.507 344.48126Q311.05386 345.075 311.05386 346.2L311.05386 346.40314Q311.05386 347.4969 311.507 348.09064Q311.9601 348.6844 312.78824 348.6844ZM315.9601 346.21564Q315.9601 345.29376 316.3195 344.54376Q316.6945 343.79376 317.35074 343.40314Q318.007 342.9969 318.8351 342.9969Q320.132 342.9969 320.92886 343.8875Q321.74136 344.77814 321.74136 346.27814L321.74136 346.35626Q321.74136 347.27814 321.382 348.0125Q321.0226 348.7469 320.36636 349.16876Q319.7101 349.575 318.85074 349.575Q317.5695 349.575 316.757 348.6844Q315.9601 347.77814 315.9601 346.29376L315.9601 346.21564ZM317.05386 346.35626Q317.05386 347.40314 317.53824 348.04376Q318.03824 348.6844 318.85074 348.6844Q319.67886 348.6844 320.16324 348.04376Q320.6476 347.3875 320.6476 346.21564Q320.6476 345.1844 320.1476 344.54376Q319.66324 343.8875 318.8351 343.8875Q318.03824 343.8875 317.53824 344.52814Q317.05386 345.15314 317.05386 346.35626ZM325.3351 347.98126L326.91324 343.10626L328.0226 343.10626L325.74136 349.45L324.91324 349.45L322.61636 343.10626L323.72574 343.10626L325.3351 347.98126ZM331.882 349.575Q330.5851 349.575 329.7726 348.73126Q328.97574 347.8719 328.97574 346.45L328.97574 346.2625Q328.97574 345.3094 329.3351 344.575Q329.6945 343.825 330.3351 343.41876Q330.99136 342.9969 331.74136 342.9969Q332.97574 342.9969 333.66324 343.8094Q334.35074 344.6219 334.35074 346.1375L334.35074 346.59064L330.05386 346.59064Q330.0851 347.52814 330.60074 348.10626Q331.132 348.6844 331.9445 348.6844Q332.507 348.6844 332.8976 348.45Q333.30386 348.21564 333.61636 347.825L334.2726 348.34064Q333.47574 349.575 331.882 349.575ZM331.74136 343.8875Q331.0851 343.8875 330.632 344.3719Q330.1945 344.84064 330.10074 345.7L333.2726 345.7L333.2726 345.6219Q333.22574 344.79376 332.8195 344.34064Q332.42886 343.8875 331.74136 343.8875ZM338.3195 344.075Q338.0695 344.04376 337.78824 344.04376Q336.7101 344.04376 336.3351 344.95L336.3351 349.45L335.257 349.45L335.257 343.10626L336.30386 343.10626L336.3195 343.84064Q336.85074 342.9969 337.8351 342.9969Q338.1476 342.9969 338.3195 343.075L338.3195 344.075ZM343.16324 349.45Q343.0695 349.2625 343.007 348.77814Q342.257 349.575 341.2101 349.575Q340.2726 349.575 339.66324 349.04376Q339.0695 348.5125 339.0695 347.6844Q339.0695 346.7 339.8195 346.15314Q340.5695 345.60626 341.9445 345.60626L342.99136 345.60626L342.99136 345.10626Q342.99136 344.54376 342.6476 344.21564Q342.3195 343.8719 341.6476 343.8719Q341.0695 343.8719 340.67886 344.16876Q340.28824 344.45 340.28824 344.8719L339.1945 344.8719Q339.1945 344.3875 339.5226 343.95Q339.86636 343.5125 340.4445 343.2625Q341.0226 342.9969 341.7101 342.9969Q342.8195 342.9969 343.42886 343.54376Q344.05386 344.09064 344.0851 345.04376L344.0851 347.96564Q344.0851 348.84064 344.30386 349.35626L344.30386 349.45L343.16324 349.45ZM341.36636 348.6219Q341.882 348.6219 342.3351 348.35626Q342.78824 348.09064 342.99136 347.66876L342.99136 346.3719L342.1476 346.3719Q340.1476 346.3719 340.1476 347.54376Q340.1476 348.04376 340.49136 348.34064Q340.8351 348.6219 341.36636 348.6219ZM351.61636 346.35626Q351.61636 347.8094 350.9445 348.7Q350.28824 349.575 349.16324 349.575Q347.9601 349.575 347.30386 348.71564L347.24136 349.45L346.257 349.45L346.257 340.45L347.3351 340.45L347.3351 343.8094Q347.99136 342.9969 349.1476 342.9969Q350.30386 342.9969 350.9601 343.8719Q351.61636 344.73126 351.61636 346.2625L351.61636 346.35626ZM350.53824 346.23126Q350.53824 345.1219 350.10074 344.52814Q349.67886 343.91876 348.882 343.91876Q347.80386 343.91876 347.3351 344.90314L347.3351 347.65314Q347.8351 348.65314 348.882 348.65314Q349.66324 348.65314 350.10074 348.04376Q350.53824 347.4344 350.53824 346.23126ZM354.42886 349.45L353.35074 349.45L353.35074 343.10626L354.42886 343.10626L354.42886 349.45ZM353.257 341.4344Q353.257 341.16876 353.41324 340.98126Q353.5851 340.79376 353.8976 340.79376Q354.2101 340.79376 354.36636 340.98126Q354.53824 341.16876 354.53824 341.4344Q354.53824 341.6844 354.36636 341.8719Q354.2101 342.04376 353.8976 342.04376Q353.5851 342.04376 353.41324 341.8719Q353.257 341.6844 353.257 341.4344ZM357.42886 349.45L356.35074 349.45L356.35074 340.45L357.42886 340.45L357.42886 349.45ZM360.42886 349.45L359.35074 349.45L359.35074 343.10626L360.42886 343.10626L360.42886 349.45ZM359.257 341.4344Q359.257 341.16876 359.41324 340.98126Q359.5851 340.79376 359.8976 340.79376Q360.2101 340.79376 360.36636 340.98126Q360.53824 341.16876 360.53824 341.4344Q360.53824 341.6844 360.36636 341.8719Q360.2101 342.04376 359.8976 342.04376Q359.5851 342.04376 359.41324 341.8719Q359.257 341.6844 359.257 341.4344ZM363.72574 341.575L363.72574 343.10626L364.8976 343.10626L364.8976 343.95L363.72574 343.95L363.72574 347.8719Q363.72574 348.2625 363.882 348.45Q364.03824 348.6375 364.41324 348.6375Q364.60074 348.6375 364.92886 348.575L364.92886 349.45Q364.507 349.575 364.10074 349.575Q363.382 349.575 363.007 349.1375Q362.632 348.6844 362.632 347.8719L362.632 343.95L361.47574 343.95L361.47574 343.10626L362.632 343.10626L362.632 341.575L363.72574 341.575ZM368.3195 347.85626L369.80386 343.10626L370.9601 343.10626L368.41324 350.4344Q367.8195 352.0125 366.53824 352.0125L366.3195 351.9969L365.92886 351.91876L365.92886 351.04376L366.2101 351.0594Q366.7726 351.0594 367.0695 350.84064Q367.382 350.6219 367.5851 350.02814L367.8195 349.3719L365.55386 343.10626L366.74136 343.10626L368.3195 347.85626Z" fill-rule="nonzero"/><path fill="#000000" d="M384.48776 345.65314Q383.05026 345.23126 382.3784 344.6219Q381.72214 344.0125 381.72214 343.1219Q381.72214 342.1219 382.519 341.46564Q383.3315 340.79376 384.6284 340.79376Q385.5034 340.79376 386.1909 341.1375Q386.8784 341.48126 387.2534 342.075Q387.644 342.66876 387.644 343.3875L386.5034 343.3875Q386.5034 342.60626 386.0034 342.16876Q385.519 341.73126 384.6284 341.73126Q383.80026 341.73126 383.3315 342.10626Q382.86276 342.46564 382.86276 343.10626Q382.86276 343.6375 383.30026 343.9969Q383.7534 344.35626 384.8159 344.65314Q385.8784 344.95 386.47214 345.3094Q387.0815 345.66876 387.36276 346.15314Q387.65964 346.6375 387.65964 347.27814Q387.65964 348.325 386.84714 348.95Q386.03464 349.575 384.6909 349.575Q383.80026 349.575 383.03464 349.23126Q382.28464 348.8875 381.86276 348.3094Q381.4565 347.71564 381.4565 346.98126L382.5815 346.98126Q382.5815 347.7469 383.15964 348.2Q383.73776 348.65314 384.6909 348.65314Q385.5815 348.65314 386.05026 348.29376Q386.519 347.91876 386.519 347.29376Q386.519 346.66876 386.0815 346.325Q385.644 345.98126 384.48776 345.65314ZM392.72214 349.45Q392.6284 349.2625 392.5659 348.77814Q391.8159 349.575 390.769 349.575Q389.8315 349.575 389.22214 349.04376Q388.6284 348.5125 388.6284 347.6844Q388.6284 346.7 389.3784 346.15314Q390.1284 345.60626 391.5034 345.60626L392.55026 345.60626L392.55026 345.10626Q392.55026 344.54376 392.2065 344.21564Q391.8784 343.8719 391.2065 343.8719Q390.6284 343.8719 390.23776 344.16876Q389.84714 344.45 389.84714 344.8719L388.7534 344.8719Q388.7534 344.3875 389.0815 343.95Q389.42526 343.5125 390.0034 343.2625Q390.5815 342.9969 391.269 342.9969Q392.3784 342.9969 392.98776 343.54376Q393.61276 344.09064 393.644 345.04376L393.644 347.96564Q393.644 348.84064 393.86276 349.35626L393.86276 349.45L392.72214 349.45ZM390.92526 348.6219Q391.4409 348.6219 391.894 348.35626Q392.34714 348.09064 392.55026 347.66876L392.55026 346.3719L391.7065 346.3719Q389.7065 346.3719 389.7065 347.54376Q389.7065 348.04376 390.05026 348.34064Q390.394 348.6219 390.92526 348.6219ZM397.28464 341.575L397.28464 343.10626L398.4565 343.10626L398.4565 343.95L397.28464 343.95L397.28464 347.8719Q397.28464 348.2625 397.4409 348.45Q397.59714 348.6375 397.97214 348.6375Q398.15964 348.6375 398.48776 348.575L398.48776 349.45Q398.0659 349.575 397.65964 349.575Q396.9409 349.575 396.5659 349.1375Q396.1909 348.6844 396.1909 347.8719L396.1909 343.95L395.03464 343.95L395.03464 343.10626L396.1909 343.10626L396.1909 341.575L397.28464 341.575ZM400.98776 349.45L399.90964 349.45L399.90964 343.10626L400.98776 343.10626L400.98776 349.45ZM399.8159 341.4344Q399.8159 341.16876 399.97214 340.98126Q400.144 340.79376 400.4565 340.79376Q400.769 340.79376 400.92526 340.98126Q401.09714 341.16876 401.09714 341.4344Q401.09714 341.6844 400.92526 341.8719Q400.769 342.04376 400.4565 342.04376Q400.144 342.04376 399.97214 341.8719Q399.8159 341.6844 399.8159 341.4344ZM406.5034 347.7625Q406.5034 347.325 406.15964 347.09064Q405.8315 346.84064 405.0034 346.66876Q404.1909 346.4969 403.7065 346.2469Q403.22214 345.9969 402.98776 345.66876Q402.769 345.325 402.769 344.85626Q402.769 344.075 403.42526 343.54376Q404.0815 342.9969 405.11276 342.9969Q406.1909 342.9969 406.84714 343.5594Q407.519 344.10626 407.519 344.96564L406.4409 344.96564Q406.4409 344.52814 406.05026 344.21564Q405.67526 343.8875 405.11276 343.8875Q404.519 343.8875 404.17526 344.15314Q403.84714 344.40314 403.84714 344.8094Q403.84714 345.2 404.15964 345.40314Q404.47214 345.60626 405.28464 345.79376Q406.09714 345.96564 406.59714 346.21564Q407.09714 346.46564 407.3315 346.825Q407.5815 347.1844 407.5815 347.6844Q407.5815 348.54376 406.894 349.0594Q406.22214 349.575 405.144 349.575Q404.3784 349.575 403.78464 349.3094Q403.2065 349.02814 402.8784 348.54376Q402.55026 348.0594 402.55026 347.4969L403.6284 347.4969Q403.65964 348.04376 404.0659 348.3719Q404.47214 348.6844 405.144 348.6844Q405.7534 348.6844 406.1284 348.4344Q406.5034 348.1844 406.5034 347.7625ZM409.34714 349.45L409.34714 343.95L408.34714 343.95L408.34714 343.10626L409.34714 343.10626L409.34714 342.46564Q409.34714 341.4344 409.8784 340.8875Q410.42526 340.325 411.42526 340.325Q411.80026 340.325 412.17526 340.41876L412.11276 341.3094Q411.8315 341.2469 411.53464 341.2469Q411.0034 341.2469 410.7065 341.5594Q410.42526 341.8719 410.42526 342.4344L410.42526 343.10626L411.78464 343.10626L411.78464 343.95L410.42526 343.95L410.42526 349.45L409.34714 349.45ZM416.72214 349.45Q416.6284 349.2625 416.5659 348.77814Q415.8159 349.575 414.769 349.575Q413.8315 349.575 413.22214 349.04376Q412.6284 348.5125 412.6284 347.6844Q412.6284 346.7 413.3784 346.15314Q414.1284 345.60626 415.5034 345.60626L416.55026 345.60626L416.55026 345.10626Q416.55026 344.54376 416.2065 344.21564Q415.8784 343.8719 415.2065 343.8719Q414.6284 343.8719 414.23776 344.16876Q413.84714 344.45 413.84714 344.8719L412.7534 344.8719Q412.7534 344.3875 413.0815 343.95Q413.42526 343.5125 414.0034 343.2625Q414.5815 342.9969 415.269 342.9969Q416.3784 342.9969 416.98776 343.54376Q417.61276 344.09064 417.644 345.04376L417.644 347.96564Q417.644 348.84064 417.86276 349.35626L417.86276 349.45L416.72214 349.45ZM414.92526 348.6219Q415.4409 348.6219 415.894 348.35626Q416.34714 348.09064 416.55026 347.66876L416.55026 346.3719L415.7065 346.3719Q413.7065 346.3719 413.7065 347.54376Q413.7065 348.04376 414.05026 348.34064Q414.394 348.6219 414.92526 348.6219ZM422.34714 348.6844Q422.92526 348.6844 423.36276 348.34064Q423.80026 347.98126 423.84714 347.45L424.8784 347.45Q424.84714 347.9969 424.48776 348.4969Q424.144 348.98126 423.5659 349.27814Q423.0034 349.575 422.34714 349.575Q421.05026 349.575 420.28464 348.71564Q419.53464 347.84064 419.53464 346.34064L419.53464 346.15314Q419.53464 345.23126 419.86276 344.5125Q420.2065 343.79376 420.8315 343.40314Q421.47214 342.9969 422.34714 342.9969Q423.40964 342.9969 424.11276 343.6375Q424.8315 344.2625 424.8784 345.29376L423.84714 345.29376Q423.80026 344.66876 423.3784 344.27814Q422.9565 343.8875 422.34714 343.8875Q421.519 343.8875 421.0659 344.48126Q420.61276 345.075 420.61276 346.2L420.61276 346.40314Q420.61276 347.4969 421.0659 348.09064Q421.519 348.6844 422.34714 348.6844ZM427.28464 341.575L427.28464 343.10626L428.4565 343.10626L428.4565 343.95L427.28464 343.95L427.28464 347.8719Q427.28464 348.2625 427.4409 348.45Q427.59714 348.6375 427.97214 348.6375Q428.15964 348.6375 428.48776 348.575L428.48776 349.45Q428.0659 349.575 427.65964 349.575Q426.9409 349.575 426.5659 349.1375Q426.1909 348.6844 426.1909 347.8719L426.1909 343.95L425.03464 343.95L425.03464 343.10626L426.1909 343.10626L426.1909 341.575L427.28464 341.575ZM430.98776 349.45L429.90964 349.45L429.90964 343.10626L430.98776 343.10626L430.98776 349.45ZM429.8159 341.4344Q429.8159 341.16876 429.97214 340.98126Q430.144 340.79376 430.4565 340.79376Q430.769 340.79376 430.92526 340.98126Q431.09714 341.16876 431.09714 341.4344Q431.09714 341.6844 430.92526 341.8719Q430.769 342.04376 430.4565 342.04376Q430.144 342.04376 429.97214 341.8719Q429.8159 341.6844 429.8159 341.4344ZM432.519 346.21564Q432.519 345.29376 432.8784 344.54376Q433.2534 343.79376 433.90964 343.40314Q434.5659 342.9969 435.394 342.9969Q436.6909 342.9969 437.48776 343.8875Q438.30026 344.77814 438.30026 346.27814L438.30026 346.35626Q438.30026 347.27814 437.9409 348.0125Q437.5815 348.7469 436.92526 349.16876Q436.269 349.575 435.40964 349.575Q434.1284 349.575 433.3159 348.6844Q432.519 347.77814 432.519 346.29376L432.519 346.21564ZM433.61276 346.35626Q433.61276 347.40314 434.09714 348.04376Q434.59714 348.6844 435.40964 348.6844Q436.23776 348.6844 436.72214 348.04376Q437.2065 347.3875 437.2065 346.21564Q437.2065 345.1844 436.7065 344.54376Q436.22214 343.8875 435.394 343.8875Q434.59714 343.8875 434.09714 344.52814Q433.61276 345.15314 433.61276 346.35626ZM440.8315 343.10626L440.86276 343.90314Q441.59714 342.9969 442.769 342.9969Q444.78464 342.9969 444.80026 345.2625L444.80026 349.45L443.7065 349.45L443.7065 345.2469Q443.7065 344.575 443.394 344.2469Q443.09714 343.91876 442.4409 343.91876Q441.90964 343.91876 441.5034 344.2Q441.11276 344.48126 440.894 344.9344L440.894 349.45L439.8159 349.45L439.8159 343.10626L440.8315 343.10626Z" fill-rule="nonzero"/><path fill="#006d57" d="M489.45 20.55C489.45 19.997715 489.8977 19.55 490.45 19.55L500.45 19.55C501.0023 19.55 501.45 19.997715 501.45 20.55L501.45 30.55C501.45 31.102285 501.0023 31.55 500.45 31.55L490.45 31.55C489.8977 31.55 489.45 31.102285 489.45 30.55Z" fill-rule="nonzero"/><path fill="#666666" d="M514.66876 27.503124L511.40314 27.503124L510.66876 29.55L509.60626 29.55L512.59064 21.721874L513.4969 21.721874L516.48126 29.55L515.41876 29.55L514.66876 27.503124ZM511.71564 26.659374L514.3719 26.659374L513.04376 23.003124L511.71564 26.659374ZM519.1219 28.20625L520.5594 23.7375L521.575 23.7375L519.4969 29.55L518.73126 29.55L516.6219 23.7375L517.6375 23.7375L519.1219 28.20625ZM524.60626 29.659374Q523.4344 29.659374 522.6844 28.89375Q521.95 28.1125 521.95 26.8L521.95 26.628124Q521.95 25.753124 522.27814 25.08125Q522.60626 24.39375 523.2 24.01875Q523.79376 23.628124 524.4969 23.628124Q525.6219 23.628124 526.2469 24.378124Q526.8875 25.128124 526.8875 26.51875L526.8875 26.925L522.95 26.925Q522.96564 27.784374 523.4344 28.315624Q523.91876 28.846874 524.66876 28.846874Q525.2 28.846874 525.5594 28.628124Q525.91876 28.409374 526.2 28.065624L526.8094 28.534374Q526.075 29.659374 524.60626 29.659374ZM524.4969 24.440624Q523.8875 24.440624 523.48126 24.878124Q523.075 25.315624 522.98126 26.1125L525.8875 26.1125L525.8875 26.034374Q525.84064 25.284374 525.46564 24.8625Q525.10626 24.440624 524.4969 24.440624ZM531.0125 24.628124Q530.77814 24.596874 530.52814 24.596874Q529.54376 24.596874 529.2 25.425L529.2 29.55L528.2 29.55L528.2 23.7375L529.16876 23.7375L529.1844 24.409374Q529.66876 23.628124 530.575 23.628124Q530.85626 23.628124 531.0125 23.70625L531.0125 24.628124ZM535.79376 29.55Q535.7 29.378124 535.65314 28.940624Q534.95 29.659374 533.9969 29.659374Q533.1375 29.659374 532.575 29.175Q532.02814 28.690624 532.02814 27.940624Q532.02814 27.034374 532.71564 26.534374Q533.41876 26.01875 534.66876 26.01875L535.6375 26.01875L535.6375 25.565624Q535.6375 25.05 535.325 24.7375Q535.0125 24.425 534.40314 24.425Q533.8719 24.425 533.5125 24.70625Q533.15314 24.971874 533.15314 25.346874L532.15314 25.346874Q532.15314 24.909374 532.46564 24.503124Q532.77814 24.096874 533.29376 23.8625Q533.825 23.628124 534.46564 23.628124Q535.46564 23.628124 536.02814 24.128124Q536.60626 24.628124 536.6219 25.51875L536.6219 28.190624Q536.6219 28.9875 536.825 29.45625L536.825 29.55L535.79376 29.55ZM534.1375 28.8Q534.60626 28.8 535.02814 28.565624Q535.45 28.315624 535.6375 27.925L535.6375 26.7375L534.85626 26.7375Q533.02814 26.7375 533.02814 27.8Q533.02814 28.26875 533.34064 28.534374Q533.65314 28.8 534.1375 28.8ZM537.96564 26.596874Q537.96564 25.2375 538.59064 24.440624Q539.21564 23.628124 540.2625 23.628124Q541.325 23.628124 541.91876 24.378124L541.96564 23.7375L542.8719 23.7375L542.8719 29.409374Q542.8719 30.534374 542.2 31.175Q541.54376 31.83125 540.40314 31.83125Q539.77814 31.83125 539.16876 31.565624Q538.575 31.3 538.2625 30.83125L538.77814 30.2375Q539.41876 31.034374 540.34064 31.034374Q541.0594 31.034374 541.46564 30.6125Q541.8719 30.20625 541.8719 29.471874L541.8719 28.971874Q541.27814 29.659374 540.2469 29.659374Q539.23126 29.659374 538.59064 28.846874Q537.96564 28.01875 537.96564 26.596874ZM538.96564 26.70625Q538.96564 27.690624 539.3719 28.253124Q539.77814 28.815624 540.4969 28.815624Q541.4344 28.815624 541.8719 27.95625L541.8719 25.3Q541.41876 24.471874 540.5125 24.471874Q539.77814 24.471874 539.3719 25.034374Q538.96564 25.596874 538.96564 26.70625ZM546.60626 29.659374Q545.4344 29.659374 544.6844 28.89375Q543.95 28.1125 543.95 26.8L543.95 26.628124Q543.95 25.753124 544.27814 25.08125Q544.60626 24.39375 545.2 24.01875Q545.79376 23.628124 546.4969 23.628124Q547.6219 23.628124 548.2469 24.378124Q548.8875 25.128124 548.8875 26.51875L548.8875 26.925L544.95 26.925Q544.96564 27.784374 545.4344 28.315624Q545.91876 28.846874 546.66876 28.846874Q547.2 28.846874 547.5594 28.628124Q547.91876 28.409374 548.2 28.065624L548.8094 28.534374Q548.075 29.659374 546.60626 29.659374ZM546.4969 24.440624Q545.8875 24.440624 545.48126 24.878124Q545.075 25.315624 544.98126 26.1125L547.8875 26.1125L547.8875 26.034374Q547.84064 25.284374 547.46564 24.8625Q547.10626 24.440624 546.4969 24.440624ZM555.66876 26.065624Q554.34064 25.675 553.73126 25.128124Q553.1219 24.565624 553.1219 23.753124Q553.1219 22.83125 553.85626 22.2375Q554.60626 21.628124 555.77814 21.628124Q556.59064 21.628124 557.21564 21.940624Q557.85626 22.2375 558.2 22.8Q558.54376 23.346874 558.54376 23.9875L557.5125 23.9875Q557.5125 23.284374 557.0594 22.878124Q556.60626 22.471874 555.77814 22.471874Q555.02814 22.471874 554.59064 22.815624Q554.16876 23.14375 554.16876 23.7375Q554.16876 24.221874 554.575 24.55Q554.98126 24.878124 555.95 25.159374Q556.9344 25.425 557.48126 25.753124Q558.02814 26.08125 558.29376 26.534374Q558.5594 26.971874 558.5594 27.565624Q558.5594 28.51875 557.8094 29.096874Q557.075 29.659374 555.84064 29.659374Q555.02814 29.659374 554.325 29.346874Q553.6375 29.034374 553.2625 28.503124Q552.8875 27.971874 552.8875 27.284374L553.91876 27.284374Q553.91876 27.9875 554.4344 28.409374Q554.96564 28.815624 555.84064 28.815624Q556.65314 28.815624 557.09064 28.4875Q557.52814 28.14375 557.52814 27.58125Q557.52814 27.003124 557.1219 26.690624Q556.71564 26.3625 555.66876 26.065624ZM562.52814 28.846874Q563.0594 28.846874 563.45 28.534374Q563.85626 28.20625 563.90314 27.721874L564.84064 27.721874Q564.8094 28.221874 564.4969 28.675Q564.1844 29.1125 563.65314 29.39375Q563.1219 29.659374 562.52814 29.659374Q561.34064 29.659374 560.6375 28.8625Q559.95 28.065624 559.95 26.690624L559.95 26.534374Q559.95 25.675 560.2625 25.01875Q560.575 24.3625 561.15314 24.003124Q561.73126 23.628124 562.52814 23.628124Q563.5125 23.628124 564.15314 24.221874Q564.79376 24.8 564.84064 25.7375L563.90314 25.7375Q563.85626 25.175 563.46564 24.815624Q563.09064 24.440624 562.52814 24.440624Q561.77814 24.440624 561.35626 24.9875Q560.9344 25.534374 560.9344 26.565624L560.9344 26.753124Q560.9344 27.76875 561.34064 28.315624Q561.7625 28.846874 562.52814 28.846874ZM565.9344 26.596874Q565.9344 25.7375 566.2625 25.065624Q566.60626 24.378124 567.2 24.003124Q567.8094 23.628124 568.575 23.628124Q569.7625 23.628124 570.4969 24.45625Q571.23126 25.26875 571.23126 26.64375L571.23126 26.70625Q571.23126 27.55 570.90314 28.2375Q570.575 28.909374 569.96564 29.284374Q569.3719 29.659374 568.59064 29.659374Q567.40314 29.659374 566.66876 28.846874Q565.9344 28.01875 565.9344 26.659374L565.9344 26.596874ZM566.9344 26.70625Q566.9344 27.675 567.3875 28.26875Q567.84064 28.846874 568.59064 28.846874Q569.34064 28.846874 569.77814 28.253124Q570.23126 27.659374 570.23126 26.596874Q570.23126 25.628124 569.77814 25.034374Q569.325 24.440624 568.575 24.440624Q567.84064 24.440624 567.3875 25.034374Q566.9344 25.6125 566.9344 26.70625ZM575.0125 24.628124Q574.77814 24.596874 574.52814 24.596874Q573.54376 24.596874 573.2 25.425L573.2 29.55L572.2 29.55L572.2 23.7375L573.16876 23.7375L573.1844 24.409374Q573.66876 23.628124 574.575 23.628124Q574.85626 23.628124 575.0125 23.70625L575.0125 24.628124ZM578.60626 29.659374Q577.4344 29.659374 576.6844 28.89375Q575.95 28.1125 575.95 26.8L575.95 26.628124Q575.95 25.753124 576.27814 25.08125Q576.60626 24.39375 577.2 24.01875Q577.79376 23.628124 578.4969 23.628124Q579.6219 23.628124 580.2469 24.378124Q580.8875 25.128124 580.8875 26.51875L580.8875 26.925L576.95 26.925Q576.96564 27.784374 577.4344 28.315624Q577.91876 28.846874 578.66876 28.846874Q579.2 28.846874 579.5594 28.628124Q579.91876 28.409374 580.2 28.065624L580.8094 28.534374Q580.075 29.659374 578.60626 29.659374ZM578.4969 24.440624Q577.8875 24.440624 577.48126 24.878124Q577.075 25.315624 576.98126 26.1125L579.8875 26.1125L579.8875 26.034374Q579.84064 25.284374 579.46564 24.8625Q579.10626 24.440624 578.4969 24.440624Z" fill-rule="nonzero"/></svg>