<svg version="1.1" viewBox="0.0 0.0 600.0 371.0" fill="none" stroke="none" stroke-linecap="square" stroke-miterlimit="10" width="600" height="371" xmlns:xlink="http://www.w3.org/1999/xlink" xmlns="http://www.w3.org/2000/svg"><path fill="#ffffff" d="M0 0L600.0 0L600.0 371.0L0 371.0L0 0Z" fill-rule="nonzero"/><path stroke="#cccccc" stroke-width="1.0" stroke-linecap="butt" d="M41.5 331.5L467.5 331.5" fill-rule="nonzero"/><path stroke="#cccccc" stroke-width="1.0" stroke-linecap="butt" d="M41.5 254.5L467.5 254.5" fill-rule="nonzero"/><path stroke="#cccccc" stroke-width="1.0" stroke-linecap="butt" d="M41.5 178.5L467.5 178.5" fill-rule="nonzero"/><path stroke="#cccccc" stroke-width="1.0" stroke-linecap="butt" d="M41.5 101.5L467.5 101.5" fill-rule="nonzero"/><path stroke="#cccccc" stroke-width="1.0" stroke-linecap="butt" d="M41.5 25.5L467.5 25.5" fill-rule="nonzero"/><clipPath id="id_0"><path d="M41.55 25.05L467.19 25.05L467.19 331.45L41.55 331.45L41.55 25.05Z" clip-rule="nonzero"/></clipPath><path stroke="#000000" stroke-width="0.0" stroke-linecap="butt" stroke-opacity="0.0" clip-path="url(#id_0)" d="M140.0 331.0L76.0 331.0L76.0 104.0C76.0 102.89543 76.89543 102.0 78.0 102.0L138.0 102.0C139.10457 102.0 140.0 102.89543 140.0 104.0Z" fill-rule="nonzero"/><path fill="#006d57" clip-path="url(#id_0)" d="M140.0 331.0L76.0 331.0L76.0 104.0C76.0 102.89543 76.89543 102.0 78.0 102.0L138.0 102.0C139.10457 102.0 140.0 102.89543 140.0 104.0Z" fill-rule="nonzero"/><path stroke="#000000" stroke-width="0.0" stroke-linecap="butt" stroke-opacity="0.0" clip-path="url(#id_0)" d="M237.0 331.0L173.0 331.0L173.0 129.0C173.0 127.89543 173.89543 127.0 175.0 127.0L235.0 127.0C236.10457 127.0 237.0 127.89543 237.0 129.0Z" fill-rule="nonzero"/><path fill="#006d57" clip-path="url(#id_0)" d="M237.0 331.0L173.0 331.0L173.0 129.0C173.0 127.89543 173.89543 127.0 175.0 127.0L235.0 127.0C236.10457 127.0 237.0 127.89543 237.0 129.0Z" fill-rule="nonzero"/><path stroke="#000000" stroke-width="0.0" stroke-linecap="butt" stroke-opacity="0.0" clip-path="url(#id_0)" d="M335.0 331.0L271.0 331.0L271.0 129.0C271.0 127.89543 271.89542 127.0 273.0 127.0L333.0 127.0C334.10458 127.0 335.0 127.89543 335.0 129.0Z" fill-rule="nonzero"/><path fill="#006d57" clip-path="url(#id_0)" d="M335.0 331.0L271.0 331.0L271.0 129.0C271.0 127.89543 271.89542 127.0 273.0 127.0L333.0 127.0C334.10458 127.0 335.0 127.89543 335.0 129.0Z" fill-rule="nonzero"/><path stroke="#000000" stroke-width="0.0" stroke-linecap="butt" stroke-opacity="0.0" clip-path="url(#id_0)" d="M433.0 331.0L369.0 331.0L369.0 104.0C369.0 102.89543 369.89542 102.0 371.0 102.0L431.0 102.0C432.10458 102.0 433.0 102.89543 433.0 104.0Z" fill-rule="nonzero"/><path fill="#006d57" clip-path="url(#id_0)" d="M433.0 331.0L369.0 331.0L369.0 104.0C369.0 102.89543 369.89542 102.0 371.0 102.0L431.0 102.0C432.10458 102.0 433.0 102.89543 433.0 104.0Z" fill-rule="nonzero"/><path stroke="#006d57" stroke-width="3.0" stroke-linejoin="round" stroke-linecap="round" d="M109.78125 115.59062L110.96875 115.59062L110.96875 116.46562L109.78125 116.46562L109.78125 118.45L108.703125 118.45L108.703125 116.46562L104.8125 116.46562L104.8125 115.825L108.625 109.91875L109.78125 109.91875L109.78125 115.59062ZM106.046875 115.59062L108.703125 115.59062L108.703125 111.40312L108.5625 111.6375L106.046875 115.59062Z" fill-rule="nonzero"/><path fill="#ffffff" d="M109.78125 115.59062L110.96875 115.59062L110.96875 116.46562L109.78125 116.46562L109.78125 118.45L108.703125 118.45L108.703125 116.46562L104.8125 116.46562L104.8125 115.825L108.625 109.91875L109.78125 109.91875L109.78125 115.59062ZM106.046875 115.59062L108.703125 115.59062L108.703125 111.40312L108.5625 111.6375L106.046875 115.59062Z" fill-rule="nonzero"/><path stroke="#006d57" stroke-width="3.0" stroke-linejoin="round" stroke-linecap="round" d="M195.28125 138.93112L196.09375 138.93112Q196.875 138.9155 197.3125 138.52487Q197.75 138.13425 197.75 137.46237Q197.75 135.96237 196.25 135.96237Q195.54688 135.96237 195.125 136.36862Q194.71875 136.77487 194.71875 137.43112L193.625 137.43112Q193.625 136.4155 194.35938 135.74362Q195.10938 135.07175 196.25 135.07175Q197.45312 135.07175 198.14062 135.71237Q198.82812 136.353 198.82812 137.49362Q198.82812 138.05612 198.46875 138.57175Q198.10938 139.08737 197.48438 139.353Q198.1875 139.57175 198.5625 140.08737Q198.95312 140.603 198.95312 141.353Q198.95312 142.49362 198.20312 143.18112Q197.45312 143.853 196.25 143.853Q195.0625 143.853 194.29688 143.19675Q193.54688 142.5405 193.54688 141.478L194.64062 141.478Q194.64062 142.14987 195.07812 142.55612Q195.51562 142.96237 196.26562 142.96237Q197.04688 142.96237 197.45312 142.55612Q197.875 142.13425 197.875 141.36862Q197.875 140.63425 197.42188 140.24362Q196.96875 139.83737 196.09375 139.82175L195.28125 139.82175L195.28125 138.93112ZM200.84375 143.1655Q200.84375 142.88425 201.0 142.69675Q201.17188 142.50925 201.5 142.50925Q201.84375 142.50925 202.01562 142.69675Q202.1875 142.88425 202.1875 143.1655Q202.1875 143.43112 202.01562 143.61862Q201.84375 143.7905 201.5 143.7905Q201.17188 143.7905 201.0 143.61862Q200.84375 143.43112 200.84375 143.1655ZM207.96875 135.19675L207.96875 136.103L207.76562 136.103Q206.5 136.13425 205.75 136.86862Q205.0 137.58737 204.875 138.89987Q205.5625 138.13425 206.71875 138.13425Q207.82812 138.13425 208.5 138.9155Q209.17188 139.69675 209.17188 140.94675Q209.17188 142.25925 208.45312 143.05612Q207.73438 143.853 206.51562 143.853Q205.29688 143.853 204.53125 142.9155Q203.78125 141.96237 203.78125 140.478L203.78125 140.07175Q203.78125 137.71237 204.78125 136.46237Q205.78125 135.21237 207.76562 135.19675L207.96875 135.19675ZM206.54688 139.0405Q205.98438 139.0405 205.51562 139.36862Q205.04688 139.69675 204.85938 140.21237L204.85938 140.603Q204.85938 141.6655 205.32812 142.30612Q205.8125 142.94675 206.51562 142.94675Q207.25 142.94675 207.67188 142.4155Q208.09375 141.86862 208.09375 140.99362Q208.09375 140.11862 207.67188 139.58737Q207.25 139.0405 206.54688 139.0405ZM216.21875 135.80612L212.6875 143.728L211.54688 143.728L215.0625 136.08737L210.45312 136.08737L210.45312 135.19675L216.21875 135.19675L216.21875 135.80612Z" fill-rule="nonzero"/><path fill="#ffffff" d="M195.28125 138.93112L196.09375 138.93112Q196.875 138.9155 197.3125 138.52487Q197.75 138.13425 197.75 137.46237Q197.75 135.96237 196.25 135.96237Q195.54688 135.96237 195.125 136.36862Q194.71875 136.77487 194.71875 137.43112L193.625 137.43112Q193.625 136.4155 194.35938 135.74362Q195.10938 135.07175 196.25 135.07175Q197.45312 135.07175 198.14062 135.71237Q198.82812 136.353 198.82812 137.49362Q198.82812 138.05612 198.46875 138.57175Q198.10938 139.08737 197.48438 139.353Q198.1875 139.57175 198.5625 140.08737Q198.95312 140.603 198.95312 141.353Q198.95312 142.49362 198.20312 143.18112Q197.45312 143.853 196.25 143.853Q195.0625 143.853 194.29688 143.19675Q193.54688 142.5405 193.54688 141.478L194.64062 141.478Q194.64062 142.14987 195.07812 142.55612Q195.51562 142.96237 196.26562 142.96237Q197.04688 142.96237 197.45312 142.55612Q197.875 142.13425 197.875 141.36862Q197.875 140.63425 197.42188 140.24362Q196.96875 139.83737 196.09375 139.82175L195.28125 139.82175L195.28125 138.93112ZM200.84375 143.1655Q200.84375 142.88425 201.0 142.69675Q201.17188 142.50925 201.5 142.50925Q201.84375 142.50925 202.01562 142.69675Q202.1875 142.88425 202.1875 143.1655Q202.1875 143.43112 202.01562 143.61862Q201.84375 143.7905 201.5 143.7905Q201.17188 143.7905 201.0 143.61862Q200.84375 143.43112 200.84375 143.1655ZM207.96875 135.19675L207.96875 136.103L207.76562 136.103Q206.5 136.13425 205.75 136.86862Q205.0 137.58737 204.875 138.89987Q205.5625 138.13425 206.71875 138.13425Q207.82812 138.13425 208.5 138.9155Q209.17188 139.69675 209.17188 140.94675Q209.17188 142.25925 208.45312 143.05612Q207.73438 143.853 206.51562 143.853Q205.29688 143.853 204.53125 142.9155Q203.78125 141.96237 203.78125 140.478L203.78125 140.07175Q203.78125 137.71237 204.78125 136.46237Q205.78125 135.21237 207.76562 135.19675L207.96875 135.19675ZM206.54688 139.0405Q205.98438 139.0405 205.51562 139.36862Q205.04688 139.69675 204.85938 140.21237L204.85938 140.603Q204.85938 141.6655 205.32812 142.30612Q205.8125 142.94675 206.51562 142.94675Q207.25 142.94675 207.67188 142.4155Q208.09375 141.86862 208.09375 140.99362Q208.09375 140.11862 207.67188 139.58737Q207.25 139.0405 206.54688 139.0405ZM216.21875 135.80612L212.6875 143.728L211.54688 143.728L215.0625 136.08737L210.45312 136.08737L210.45312 135.19675L216.21875 135.19675L216.21875 135.80612Z" fill-rule="nonzero"/><path stroke="#006d57" stroke-width="3.0" stroke-linejoin="round" stroke-linecap="round" d="M293.28125 138.93112L294.09375 138.93112Q294.875 138.9155 295.3125 138.52487Q295.75 138.13425 295.75 137.46237Q295.75 135.96237 294.25 135.96237Q293.54688 135.96237 293.125 136.36862Q292.71875 136.77487 292.71875 137.43112L291.625 137.43112Q291.625 136.4155 292.35938 135.74362Q293.10938 135.07175 294.25 135.07175Q295.45312 135.07175 296.14062 135.71237Q296.82812 136.353 296.82812 137.49362Q296.82812 138.05612 296.46875 138.57175Q296.10938 139.08737 295.48438 139.353Q296.1875 139.57175 296.5625 140.08737Q296.95312 140.603 296.95312 141.353Q296.95312 142.49362 296.20312 143.18112Q295.45312 143.853 294.25 143.853Q293.0625 143.853 292.29688 143.19675Q291.54688 142.5405 291.54688 141.478L292.64062 141.478Q292.64062 142.14987 293.07812 142.55612Q293.51562 142.96237 294.26562 142.96237Q295.04688 142.96237 295.45312 142.55612Q295.875 142.13425 295.875 141.36862Q295.875 140.63425 295.42188 140.24362Q294.96875 139.83737 294.09375 139.82175L293.28125 139.82175L293.28125 138.93112ZM298.84375 143.1655Q298.84375 142.88425 299.0 142.69675Q299.17188 142.50925 299.5 142.50925Q299.84375 142.50925 300.01562 142.69675Q300.1875 142.88425 300.1875 143.1655Q300.1875 143.43112 300.01562 143.61862Q299.84375 143.7905 299.5 143.7905Q299.17188 143.7905 299.0 143.61862Q298.84375 143.43112 298.84375 143.1655ZM305.96875 135.19675L305.96875 136.103L305.76562 136.103Q304.5 136.13425 303.75 136.86862Q303.0 137.58737 302.875 138.89987Q303.5625 138.13425 304.71875 138.13425Q305.82812 138.13425 306.5 138.9155Q307.17188 139.69675 307.17188 140.94675Q307.17188 142.25925 306.45312 143.05612Q305.73438 143.853 304.51562 143.853Q303.29688 143.853 302.53125 142.9155Q301.78125 141.96237 301.78125 140.478L301.78125 140.07175Q301.78125 137.71237 302.78125 136.46237Q303.78125 135.21237 305.76562 135.19675L305.96875 135.19675ZM304.54688 139.0405Q303.98438 139.0405 303.51562 139.36862Q303.04688 139.69675 302.85938 140.21237L302.85938 140.603Q302.85938 141.6655 303.32812 142.30612Q303.8125 142.94675 304.51562 142.94675Q305.25 142.94675 305.67188 142.4155Q306.09375 141.86862 306.09375 140.99362Q306.09375 140.11862 305.67188 139.58737Q305.25 139.0405 304.54688 139.0405ZM314.21875 135.80612L310.6875 143.728L309.54688 143.728L313.0625 136.08737L308.45312 136.08737L308.45312 135.19675L314.21875 135.19675L314.21875 135.80612Z" fill-rule="nonzero"/><path fill="#ffffff" d="M293.28125 138.93112L294.09375 138.93112Q294.875 138.9155 295.3125 138.52487Q295.75 138.13425 295.75 137.46237Q295.75 135.96237 294.25 135.96237Q293.54688 135.96237 293.125 136.36862Q292.71875 136.77487 292.71875 137.43112L291.625 137.43112Q291.625 136.4155 292.35938 135.74362Q293.10938 135.07175 294.25 135.07175Q295.45312 135.07175 296.14062 135.71237Q296.82812 136.353 296.82812 137.49362Q296.82812 138.05612 296.46875 138.57175Q296.10938 139.08737 295.48438 139.353Q296.1875 139.57175 296.5625 140.08737Q296.95312 140.603 296.95312 141.353Q296.95312 142.49362 296.20312 143.18112Q295.45312 143.853 294.25 143.853Q293.0625 143.853 292.29688 143.19675Q291.54688 142.5405 291.54688 141.478L292.64062 141.478Q292.64062 142.14987 293.07812 142.55612Q293.51562 142.96237 294.26562 142.96237Q295.04688 142.96237 295.45312 142.55612Q295.875 142.13425 295.875 141.36862Q295.875 140.63425 295.42188 140.24362Q294.96875 139.83737 294.09375 139.82175L293.28125 139.82175L293.28125 138.93112ZM298.84375 143.1655Q298.84375 142.88425 299.0 142.69675Q299.17188 142.50925 299.5 142.50925Q299.84375 142.50925 300.01562 142.69675Q300.1875 142.88425 300.1875 143.1655Q300.1875 143.43112 300.01562 143.61862Q299.84375 143.7905 299.5 143.7905Q299.17188 143.7905 299.0 143.61862Q298.84375 143.43112 298.84375 143.1655ZM305.96875 135.19675L305.96875 136.103L305.76562 136.103Q304.5 136.13425 303.75 136.86862Q303.0 137.58737 302.875 138.89987Q303.5625 138.13425 304.71875 138.13425Q305.82812 138.13425 306.5 138.9155Q307.17188 139.69675 307.17188 140.94675Q307.17188 142.25925 306.45312 143.05612Q305.73438 143.853 304.51562 143.853Q303.29688 143.853 302.53125 142.9155Q301.78125 141.96237 301.78125 140.478L301.78125 140.07175Q301.78125 137.71237 302.78125 136.46237Q303.78125 135.21237 305.76562 135.19675L305.96875 135.19675ZM304.54688 139.0405Q303.98438 139.0405 303.51562 139.36862Q303.04688 139.69675 302.85938 140.21237L302.85938 140.603Q302.85938 141.6655 303.32812 142.30612Q303.8125 142.94675 304.51562 142.94675Q305.25 142.94675 305.67188 142.4155Q306.09375 141.86862 306.09375 140.99362Q306.09375 140.11862 305.67188 139.58737Q305.25 139.0405 304.54688 139.0405ZM314.21875 135.80612L310.6875 143.728L309.54688 143.728L313.0625 136.08737L308.45312 136.08737L308.45312 135.19675L314.21875 135.19675L314.21875 135.80612Z" fill-rule="nonzero"/><path stroke="#006d57" stroke-width="3.0" stroke-linejoin="round" stroke-linecap="round" d="M402.78125 115.59062L403.96875 115.59062L403.96875 116.46562L402.78125 116.46562L402.78125 118.45L401.70312 118.45L401.70312 116.46562L397.8125 116.46562L397.8125 115.825L401.625 109.91875L402.78125 109.91875L402.78125 115.59062ZM399.04688 115.59062L401.70312 115.59062L401.70312 111.40312L401.5625 111.6375L399.04688 115.59062Z" fill-rule="nonzero"/><path fill="#ffffff" d="M402.78125 115.59062L403.96875 115.59062L403.96875 116.46562L402.78125 116.46562L402.78125 118.45L401.70312 118.45L401.70312 116.46562L397.8125 116.46562L397.8125 115.825L401.625 109.91875L402.78125 109.91875L402.78125 115.59062ZM399.04688 115.59062L401.70312 115.59062L401.70312 111.40312L401.5625 111.6375L399.04688 115.59062Z" fill-rule="nonzero"/><path fill="#b7b7b7" d="M34.1125 334.95L33.20625 334.95L33.20625 328.9344L31.378124 329.59064L31.378124 328.77814L33.971874 327.8094L34.1125 327.8094L34.1125 334.95Z" fill-rule="nonzero"/><path fill="#b7b7b7" d="M35.8 258.35L31.14375 258.35L31.14375 257.69376L33.596874 254.95938Q34.14375 254.35 34.346874 253.95938Q34.565624 253.56876 34.565624 253.14688Q34.565624 252.6 34.221874 252.24063Q33.89375 251.88126 33.33125 251.88126Q32.659374 251.88126 32.284374 252.27188Q31.909374 252.64688 31.909374 253.33438L31.003124 253.33438Q31.003124 252.35 31.628124 251.75626Q32.26875 251.14688 33.33125 251.14688Q34.315624 251.14688 34.89375 251.6625Q35.471874 252.17813 35.471874 253.05313Q35.471874 254.1 34.128124 255.55313L32.2375 257.61563L35.8 257.61563L35.8 258.35Z" fill-rule="nonzero"/><path fill="#b7b7b7" d="M32.45625 177.75L33.128124 177.75Q33.76875 177.75 34.128124 177.42188Q34.503124 177.09375 34.503124 176.53125Q34.503124 175.28125 33.253124 175.28125Q32.675 175.28125 32.315624 175.625Q31.971874 175.95312 31.971874 176.5L31.065624 176.5Q31.065624 175.65625 31.690624 175.10938Q32.315624 174.54688 33.253124 174.54688Q34.26875 174.54688 34.83125 175.07812Q35.409374 175.60938 35.409374 176.54688Q35.409374 177.01562 35.1125 177.45312Q34.815624 177.89062 34.284374 178.10938Q34.878124 178.28125 35.190624 178.71875Q35.51875 179.14062 35.51875 179.76562Q35.51875 180.71875 34.89375 181.28125Q34.26875 181.84375 33.26875 181.84375Q32.26875 181.84375 31.628124 181.3125Q31.003124 180.76562 31.003124 179.875L31.925 179.875Q31.925 180.4375 32.284374 180.78125Q32.64375 181.10938 33.26875 181.10938Q33.925 181.10938 34.26875 180.76562Q34.6125 180.42188 34.6125 179.78125Q34.6125 179.17188 34.221874 178.84375Q33.846874 178.5 33.128124 178.5L32.45625 178.5L32.45625 177.75Z" fill-rule="nonzero"/><path fill="#b7b7b7" d="M34.95625 102.75938L35.940624 102.75938L35.940624 103.49375L34.95625 103.49375L34.95625 105.15L34.05 105.15L34.05 103.49375L30.815624 103.49375L30.815624 102.9625L33.9875 98.04063L34.95625 98.04063L34.95625 102.75938ZM31.83125 102.75938L34.05 102.75938L34.05 99.275L33.940624 99.47813L31.83125 102.75938Z" fill-rule="nonzero"/><path fill="#b7b7b7" d="M31.55 24.9875L31.925 21.440624L35.565624 21.440624L35.565624 22.26875L32.690624 22.26875L32.471874 24.20625Q32.9875 23.909374 33.659374 23.909374Q34.628124 23.909374 35.190624 24.55Q35.76875 25.190624 35.76875 26.284374Q35.76875 27.378124 35.175 28.01875Q34.58125 28.64375 33.51875 28.64375Q32.58125 28.64375 31.971874 28.128124Q31.378124 27.596874 31.3 26.675L32.159374 26.675Q32.2375 27.284374 32.58125 27.596874Q32.940624 27.909374 33.51875 27.909374Q34.14375 27.909374 34.503124 27.4875Q34.8625 27.05 34.8625 26.3Q34.8625 25.58125 34.471874 25.159374Q34.096874 24.721874 33.440624 24.721874Q32.8625 24.721874 32.51875 24.971874L32.284374 25.175L31.55 24.9875Z" fill-rule="nonzero"/><path fill="#000000" d="M80.14446 345.46564Q80.14446 346.71564 79.72259 347.65314Q79.30071 348.575 78.51946 349.075Q77.75384 349.575 76.72259 349.575Q75.72259 349.575 74.94134 349.075Q74.16009 348.575 73.72259 347.66876Q73.30071 346.7469 73.28509 345.52814L73.28509 344.91876Q73.28509 343.6844 73.70696 342.7469Q74.14446 341.8094 74.92571 341.3094Q75.70696 340.79376 76.72259 340.79376Q77.73821 340.79376 78.51946 341.29376Q79.30071 341.79376 79.72259 342.73126Q80.14446 343.66876 80.14446 344.91876L80.14446 345.46564ZM79.03509 344.90314Q79.03509 343.3875 78.42571 342.575Q77.81634 341.7625 76.72259 341.7625Q75.64446 341.7625 75.03509 342.575Q74.42571 343.3875 74.41009 344.825L74.41009 345.46564Q74.41009 346.9344 75.01946 347.77814Q75.64446 348.60626 76.72259 348.60626Q77.81634 348.60626 78.41009 347.825Q79.01946 347.02814 79.03509 345.54376L79.03509 344.90314ZM86.78509 346.35626Q86.78509 347.8094 86.11321 348.7Q85.45696 349.575 84.33196 349.575Q83.12884 349.575 82.47259 348.71564L82.41009 349.45L81.42571 349.45L81.42571 340.45L82.50384 340.45L82.50384 343.8094Q83.16009 342.9969 84.31634 342.9969Q85.47259 342.9969 86.12884 343.8719Q86.78509 344.73126 86.78509 346.2625L86.78509 346.35626ZM85.70696 346.23126Q85.70696 345.1219 85.26946 344.52814Q84.84759 343.91876 84.05071 343.91876Q82.97259 343.91876 82.50384 344.90314L82.50384 347.65314Q83.00384 348.65314 84.05071 348.65314Q84.83196 348.65314 85.26946 348.04376Q85.70696 347.4344 85.70696 346.23126ZM92.11321 347.7625Q92.11321 347.325 91.76946 347.09064Q91.44134 346.84064 90.61321 346.66876Q89.80071 346.4969 89.31634 346.2469Q88.83196 345.9969 88.59759 345.66876Q88.37884 345.325 88.37884 344.85626Q88.37884 344.075 89.03509 343.54376Q89.69134 342.9969 90.72259 342.9969Q91.80071 342.9969 92.45696 343.5594Q93.12884 344.10626 93.12884 344.96564L92.05071 344.96564Q92.05071 344.52814 91.66009 344.21564Q91.28509 343.8875 90.72259 343.8875Q90.12884 343.8875 89.78509 344.15314Q89.45696 344.40314 89.45696 344.8094Q89.45696 345.2 89.76946 345.40314Q90.08196 345.60626 90.89446 345.79376Q91.70696 345.96564 92.20696 346.21564Q92.70696 346.46564 92.94134 346.825Q93.19134 347.1844 93.19134 347.6844Q93.19134 348.54376 92.50384 349.0594Q91.83196 349.575 90.75384 349.575Q89.98821 349.575 89.39446 349.3094Q88.81634 349.02814 88.48821 348.54376Q88.16009 348.0594 88.16009 347.4969L89.23821 347.4969Q89.26946 348.04376 89.67571 348.3719Q90.08196 348.6844 90.75384 348.6844Q91.36321 348.6844 91.73821 348.4344Q92.11321 348.1844 92.11321 347.7625ZM97.05071 349.575Q95.75384 349.575 94.94134 348.73126Q94.14446 347.8719 94.14446 346.45L94.14446 346.2625Q94.14446 345.3094 94.50384 344.575Q94.86321 343.825 95.50384 343.41876Q96.16009 342.9969 96.91009 342.9969Q98.14446 342.9969 98.83196 343.8094Q99.51946 344.6219 99.51946 346.1375L99.51946 346.59064L95.22259 346.59064Q95.25384 347.52814 95.76946 348.10626Q96.30071 348.6844 97.11321 348.6844Q97.67571 348.6844 98.06634 348.45Q98.47259 348.21564 98.78509 347.825L99.44134 348.34064Q98.64446 349.575 97.05071 349.575ZM96.91009 343.8875Q96.25384 343.8875 95.80071 344.3719Q95.36321 344.84064 95.26946 345.7L98.44134 345.7L98.44134 345.6219Q98.39446 344.79376 97.98821 344.34064Q97.59759 343.8875 96.91009 343.8875ZM103.48821 344.075Q103.23821 344.04376 102.95696 344.04376Q101.87884 344.04376 101.50384 344.95L101.50384 349.45L100.42571 349.45L100.42571 343.10626L101.47259 343.10626L101.48821 343.84064Q102.01946 342.9969 103.00384 342.9969Q103.31634 342.9969 103.48821 343.075L103.48821 344.075ZM106.50384 347.98126L108.08196 343.10626L109.19134 343.10626L106.91009 349.45L106.08196 349.45L103.78509 343.10626L104.89446 343.10626L106.50384 347.98126ZM114.33196 349.45Q114.23821 349.2625 114.17571 348.77814Q113.42571 349.575 112.37884 349.575Q111.44134 349.575 110.83196 349.04376Q110.23821 348.5125 110.23821 347.6844Q110.23821 346.7 110.98821 346.15314Q111.73821 345.60626 113.11321 345.60626L114.16009 345.60626L114.16009 345.10626Q114.16009 344.54376 113.81634 344.21564Q113.48821 343.8719 112.81634 343.8719Q112.23821 343.8719 111.84759 344.16876Q111.45696 344.45 111.45696 344.8719L110.36321 344.8719Q110.36321 344.3875 110.69134 343.95Q111.03509 343.5125 111.61321 343.2625Q112.19134 342.9969 112.87884 342.9969Q113.98821 342.9969 114.59759 343.54376Q115.22259 344.09064 115.25384 345.04376L115.25384 347.96564Q115.25384 348.84064 115.47259 349.35626L115.47259 349.45L114.33196 349.45ZM112.53509 348.6219Q113.05071 348.6219 113.50384 348.35626Q113.95696 348.09064 114.16009 347.66876L114.16009 346.3719L113.31634 346.3719Q111.31634 346.3719 111.31634 347.54376Q111.31634 348.04376 111.66009 348.34064Q112.00384 348.6219 112.53509 348.6219ZM122.78509 346.35626Q122.78509 347.8094 122.11321 348.7Q121.45696 349.575 120.33196 349.575Q119.12884 349.575 118.47259 348.71564L118.41009 349.45L117.42571 349.45L117.42571 340.45L118.50384 340.45L118.50384 343.8094Q119.16009 342.9969 120.31634 342.9969Q121.47259 342.9969 122.12884 343.8719Q122.78509 344.73126 122.78509 346.2625L122.78509 346.35626ZM121.70696 346.23126Q121.70696 345.1219 121.26946 344.52814Q120.84759 343.91876 120.05071 343.91876Q118.97259 343.91876 118.50384 344.90314L118.50384 347.65314Q119.00384 348.65314 120.05071 348.65314Q120.83196 348.65314 121.26946 348.04376Q121.70696 347.4344 121.70696 346.23126ZM125.59759 349.45L124.51946 349.45L124.51946 343.10626L125.59759 343.10626L125.59759 349.45ZM124.42571 341.4344Q124.42571 341.16876 124.58196 340.98126Q124.75384 340.79376 125.06634 340.79376Q125.37884 340.79376 125.53509 340.98126Q125.70696 341.16876 125.70696 341.4344Q125.70696 341.6844 125.53509 341.8719Q125.37884 342.04376 125.06634 342.04376Q124.75384 342.04376 124.58196 341.8719Q124.42571 341.6844 124.42571 341.4344ZM128.5976 349.45L127.51946 349.45L127.51946 340.45L128.5976 340.45L128.5976 349.45ZM131.5976 349.45L130.51947 349.45L130.51947 343.10626L131.5976 343.10626L131.5976 349.45ZM130.42572 341.4344Q130.42572 341.16876 130.58197 340.98126Q130.75385 340.79376 131.06635 340.79376Q131.37885 340.79376 131.5351 340.98126Q131.70697 341.16876 131.70697 341.4344Q131.70697 341.6844 131.5351 341.8719Q131.37885 342.04376 131.06635 342.04376Q130.75385 342.04376 130.58197 341.8719Q130.42572 341.6844 130.42572 341.4344ZM134.89447 341.575L134.89447 343.10626L136.06635 343.10626L136.06635 343.95L134.89447 343.95L134.89447 347.8719Q134.89447 348.2625 135.05072 348.45Q135.20697 348.6375 135.58197 348.6375Q135.76947 348.6375 136.0976 348.575L136.0976 349.45Q135.67572 349.575 135.26947 349.575Q134.55072 349.575 134.17572 349.1375Q133.80072 348.6844 133.80072 347.8719L133.80072 343.95L132.64447 343.95L132.64447 343.10626L133.80072 343.10626L133.80072 341.575L134.89447 341.575ZM139.48822 347.85626L140.9726 343.10626L142.12885 343.10626L139.58197 350.4344Q138.98822 352.0125 137.70697 352.0125L137.48822 351.9969L137.0976 351.91876L137.0976 351.04376L137.37885 351.0594Q137.94135 351.0594 138.23822 350.84064Q138.55072 350.6219 138.75385 350.02814L138.98822 349.3719L136.7226 343.10626L137.9101 343.10626L139.48822 347.85626Z" fill-rule="nonzero"/><path fill="#000000" d="M176.07086 348.52814L180.11774 348.52814L180.11774 349.45L174.93024 349.45L174.93024 340.91876L176.07086 340.91876L176.07086 348.52814ZM183.39899 349.575Q182.10211 349.575 181.28961 348.73126Q180.49274 347.8719 180.49274 346.45L180.49274 346.2625Q180.49274 345.3094 180.85211 344.575Q181.21149 343.825 181.85211 343.41876Q182.50836 342.9969 183.25836 342.9969Q184.49274 342.9969 185.18024 343.8094Q185.86774 344.6219 185.86774 346.1375L185.86774 346.59064L181.57086 346.59064Q181.60211 347.52814 182.11774 348.10626Q182.64899 348.6844 183.46149 348.6844Q184.02399 348.6844 184.41461 348.45Q184.82086 348.21564 185.13336 347.825L185.78961 348.34064Q184.99274 349.575 183.39899 349.575ZM183.25836 343.8875Q182.60211 343.8875 182.14899 344.3719Q181.71149 344.84064 181.61774 345.7L184.78961 345.7L184.78961 345.6219Q184.74274 344.79376 184.33649 344.34064Q183.94586 343.8875 183.25836 343.8875ZM190.68024 349.45Q190.58649 349.2625 190.52399 348.77814Q189.77399 349.575 188.72711 349.575Q187.78961 349.575 187.18024 349.04376Q186.58649 348.5125 186.58649 347.6844Q186.58649 346.7 187.33649 346.15314Q188.08649 345.60626 189.46149 345.60626L190.50836 345.60626L190.50836 345.10626Q190.50836 344.54376 190.16461 344.21564Q189.83649 343.8719 189.16461 343.8719Q188.58649 343.8719 188.19586 344.16876Q187.80524 344.45 187.80524 344.8719L186.71149 344.8719Q186.71149 344.3875 187.03961 343.95Q187.38336 343.5125 187.96149 343.2625Q188.53961 342.9969 189.22711 342.9969Q190.33649 342.9969 190.94586 343.54376Q191.57086 344.09064 191.60211 345.04376L191.60211 347.96564Q191.60211 348.84064 191.82086 349.35626L191.82086 349.45L190.68024 349.45ZM188.88336 348.6219Q189.39899 348.6219 189.85211 348.35626Q190.30524 348.09064 190.50836 347.66876L190.50836 346.3719L189.66461 346.3719Q187.66461 346.3719 187.66461 347.54376Q187.66461 348.04376 188.00836 348.34064Q188.35211 348.6219 188.88336 348.6219ZM196.83649 344.075Q196.58649 344.04376 196.30524 344.04376Q195.22711 344.04376 194.85211 344.95L194.85211 349.45L193.77399 349.45L193.77399 343.10626L194.82086 343.10626L194.83649 343.84064Q195.36774 342.9969 196.35211 342.9969Q196.66461 342.9969 196.83649 343.075L196.83649 344.075ZM198.78961 343.10626L198.82086 343.90314Q199.55524 342.9969 200.72711 342.9969Q202.74274 342.9969 202.75836 345.2625L202.75836 349.45L201.66461 349.45L201.66461 345.2469Q201.66461 344.575 201.35211 344.2469Q201.05524 343.91876 200.39899 343.91876Q199.86774 343.91876 199.46149 344.2Q199.07086 344.48126 198.85211 344.9344L198.85211 349.45L197.77399 349.45L197.77399 343.10626L198.78961 343.10626ZM208.68024 349.45Q208.58649 349.2625 208.52399 348.77814Q207.77399 349.575 206.72711 349.575Q205.78961 349.575 205.18024 349.04376Q204.58649 348.5125 204.58649 347.6844Q204.58649 346.7 205.33649 346.15314Q206.08649 345.60626 207.46149 345.60626L208.50836 345.60626L208.50836 345.10626Q208.50836 344.54376 208.16461 344.21564Q207.83649 343.8719 207.16461 343.8719Q206.58649 343.8719 206.19586 344.16876Q205.80524 344.45 205.80524 344.8719L204.71149 344.8719Q204.71149 344.3875 205.03961 343.95Q205.38336 343.5125 205.96149 343.2625Q206.53961 342.9969 207.22711 342.9969Q208.33649 342.9969 208.94586 343.54376Q209.57086 344.09064 209.60211 345.04376L209.60211 347.96564Q209.60211 348.84064 209.82086 349.35626L209.82086 349.45L208.68024 349.45ZM206.88336 348.6219Q207.39899 348.6219 207.85211 348.35626Q208.30524 348.09064 208.50836 347.66876L208.50836 346.3719L207.66461 346.3719Q205.66461 346.3719 205.66461 347.54376Q205.66461 348.04376 206.00836 348.34064Q206.35211 348.6219 206.88336 348.6219ZM217.13336 346.35626Q217.13336 347.8094 216.46149 348.7Q215.80524 349.575 214.68024 349.575Q213.47711 349.575 212.82086 348.71564L212.75836 349.45L211.77399 349.45L211.77399 340.45L212.85211 340.45L212.85211 343.8094Q213.50836 342.9969 214.66461 342.9969Q215.82086 342.9969 216.47711 343.8719Q217.13336 344.73126 217.13336 346.2625L217.13336 346.35626ZM216.05524 346.23126Q216.05524 345.1219 215.61774 344.52814Q215.19586 343.91876 214.39899 343.91876Q213.32086 343.91876 212.85211 344.90314L212.85211 347.65314Q213.35211 348.65314 214.39899 348.65314Q215.18024 348.65314 215.61774 348.04376Q216.05524 347.4344 216.05524 346.23126ZM219.94586 349.45L218.86774 349.45L218.86774 343.10626L219.94586 343.10626L219.94586 349.45ZM218.77399 341.4344Q218.77399 341.16876 218.93024 340.98126Q219.10211 340.79376 219.41461 340.79376Q219.72711 340.79376 219.88336 340.98126Q220.05524 341.16876 220.05524 341.4344Q220.05524 341.6844 219.88336 341.8719Q219.72711 342.04376 219.41461 342.04376Q219.10211 342.04376 218.93024 341.8719Q218.77399 341.6844 218.77399 341.4344ZM222.94586 349.45L221.86774 349.45L221.86774 340.45L222.94586 340.45L222.94586 349.45ZM225.94586 349.45L224.86774 349.45L224.86774 343.10626L225.94586 343.10626L225.94586 349.45ZM224.77399 341.4344Q224.77399 341.16876 224.93024 340.98126Q225.10211 340.79376 225.41461 340.79376Q225.72711 340.79376 225.88336 340.98126Q226.05524 341.16876 226.05524 341.4344Q226.05524 341.6844 225.88336 341.8719Q225.72711 342.04376 225.41461 342.04376Q225.10211 342.04376 224.93024 341.8719Q224.77399 341.6844 224.77399 341.4344ZM229.24274 341.575L229.24274 343.10626L230.41461 343.10626L230.41461 343.95L229.24274 343.95L229.24274 347.8719Q229.24274 348.2625 229.39899 348.45Q229.55524 348.6375 229.93024 348.6375Q230.11774 348.6375 230.44586 348.575L230.44586 349.45Q230.02399 349.575 229.61774 349.575Q228.89899 349.575 228.52399 349.1375Q228.14899 348.6844 228.14899 347.8719L228.14899 343.95L226.99274 343.95L226.99274 343.10626L228.14899 343.10626L228.14899 341.575L229.24274 341.575ZM233.83649 347.85626L235.32086 343.10626L236.47711 343.10626L233.93024 350.4344Q233.33649 352.0125 232.05524 352.0125L231.83649 351.9969L231.44586 351.91876L231.44586 351.04376L231.72711 351.0594Q232.28961 351.0594 232.58649 350.84064Q232.89899 350.6219 233.10211 350.02814L233.33649 349.3719L231.07086 343.10626L232.25836 343.10626L233.83649 347.85626Z" fill-rule="nonzero"/><path fill="#000000" d="M269.9035 346.10626L269.9035 349.45L268.7785 349.45L268.7785 340.91876L271.93475 340.91876Q273.32538 340.91876 274.12225 341.6375Q274.91913 342.34064 274.91913 343.52814Q274.91913 344.7625 274.13788 345.4344Q273.37225 346.10626 271.91913 346.10626L269.9035 346.10626ZM269.9035 345.1844L271.93475 345.1844Q272.841 345.1844 273.30975 344.7625Q273.79413 344.34064 273.79413 343.54376Q273.79413 342.77814 273.30975 342.325Q272.841 341.85626 271.99725 341.84064L269.9035 341.84064L269.9035 345.1844ZM279.68475 344.075Q279.43475 344.04376 279.1535 344.04376Q278.07538 344.04376 277.70038 344.95L277.70038 349.45L276.62225 349.45L276.62225 343.10626L277.66913 343.10626L277.68475 343.84064Q278.216 342.9969 279.20038 342.9969Q279.51288 342.9969 279.68475 343.075L279.68475 344.075ZM283.24725 349.575Q281.95038 349.575 281.13788 348.73126Q280.341 347.8719 280.341 346.45L280.341 346.2625Q280.341 345.3094 280.70038 344.575Q281.05975 343.825 281.70038 343.41876Q282.35663 342.9969 283.10663 342.9969Q284.341 342.9969 285.0285 343.8094Q285.716 344.6219 285.716 346.1375L285.716 346.59064L281.41913 346.59064Q281.45038 347.52814 281.966 348.10626Q282.49725 348.6844 283.30975 348.6844Q283.87225 348.6844 284.26288 348.45Q284.66913 348.21564 284.98163 347.825L285.63788 348.34064Q284.841 349.575 283.24725 349.575ZM283.10663 343.8875Q282.45038 343.8875 281.99725 344.3719Q281.55975 344.84064 281.466 345.7L284.63788 345.7L284.63788 345.6219Q284.591 344.79376 284.18475 344.34064Q283.79413 343.8875 283.10663 343.8875ZM286.35663 346.23126Q286.35663 344.7625 287.04413 343.8875Q287.73163 342.9969 288.85663 342.9969Q289.966 342.9969 290.62225 343.7469L290.62225 340.45L291.70038 340.45L291.70038 349.45L290.70038 349.45L290.6535 348.7625Q289.99725 349.575 288.841 349.575Q287.74725 349.575 287.04413 348.66876Q286.35663 347.7625 286.35663 346.3094L286.35663 346.23126ZM287.43475 346.35626Q287.43475 347.4344 287.87225 348.04376Q288.32538 348.65314 289.10663 348.65314Q290.13788 348.65314 290.62225 347.71564L290.62225 344.8094Q290.13788 343.91876 289.12225 343.91876Q288.32538 343.91876 287.87225 344.52814Q287.43475 345.1375 287.43475 346.35626ZM294.79413 349.45L293.716 349.45L293.716 343.10626L294.79413 343.10626L294.79413 349.45ZM293.62225 341.4344Q293.62225 341.16876 293.7785 340.98126Q293.95038 340.79376 294.26288 340.79376Q294.57538 340.79376 294.73163 340.98126Q294.9035 341.16876 294.9035 341.4344Q294.9035 341.6844 294.73163 341.8719Q294.57538 342.04376 294.26288 342.04376Q293.95038 342.04376 293.7785 341.8719Q293.62225 341.6844 293.62225 341.4344ZM299.1535 348.6844Q299.73163 348.6844 300.16913 348.34064Q300.60663 347.98126 300.6535 347.45L301.68475 347.45Q301.6535 347.9969 301.29413 348.4969Q300.95038 348.98126 300.37225 349.27814Q299.80975 349.575 299.1535 349.575Q297.85663 349.575 297.091 348.71564Q296.341 347.84064 296.341 346.34064L296.341 346.15314Q296.341 345.23126 296.66913 344.5125Q297.01288 343.79376 297.63788 343.40314Q298.2785 342.9969 299.1535 342.9969Q300.216 342.9969 300.91913 343.6375Q301.63788 344.2625 301.68475 345.29376L300.6535 345.29376Q300.60663 344.66876 300.18475 344.27814Q299.76288 343.8875 299.1535 343.8875Q298.32538 343.8875 297.87225 344.48126Q297.41913 345.075 297.41913 346.2L297.41913 346.40314Q297.41913 347.4969 297.87225 348.09064Q298.32538 348.6844 299.1535 348.6844ZM304.091 341.575L304.091 343.10626L305.26288 343.10626L305.26288 343.95L304.091 343.95L304.091 347.8719Q304.091 348.2625 304.24725 348.45Q304.4035 348.6375 304.7785 348.6375Q304.966 348.6375 305.29413 348.575L305.29413 349.45Q304.87225 349.575 304.466 349.575Q303.74725 349.575 303.37225 349.1375Q302.99725 348.6844 302.99725 347.8719L302.99725 343.95L301.841 343.95L301.841 343.10626L302.99725 343.10626L302.99725 341.575L304.091 341.575ZM310.5285 349.45Q310.43475 349.2625 310.37225 348.77814Q309.62225 349.575 308.57538 349.575Q307.63788 349.575 307.0285 349.04376Q306.43475 348.5125 306.43475 347.6844Q306.43475 346.7 307.18475 346.15314Q307.93475 345.60626 309.30975 345.60626L310.35663 345.60626L310.35663 345.10626Q310.35663 344.54376 310.01288 344.21564Q309.68475 343.8719 309.01288 343.8719Q308.43475 343.8719 308.04413 344.16876Q307.6535 344.45 307.6535 344.8719L306.55975 344.8719Q306.55975 344.3875 306.88788 343.95Q307.23163 343.5125 307.80975 343.2625Q308.38788 342.9969 309.07538 342.9969Q310.18475 342.9969 310.79413 343.54376Q311.41913 344.09064 311.45038 345.04376L311.45038 347.96564Q311.45038 348.84064 311.66913 349.35626L311.66913 349.45L310.5285 349.45ZM308.73163 348.6219Q309.24725 348.6219 309.70038 348.35626Q310.1535 348.09064 310.35663 347.66876L310.35663 346.3719L309.51288 346.3719Q307.51288 346.3719 307.51288 347.54376Q307.51288 348.04376 307.85663 348.34064Q308.20038 348.6219 308.73163 348.6219ZM318.98163 346.35626Q318.98163 347.8094 318.30975 348.7Q317.6535 349.575 316.5285 349.575Q315.32538 349.575 314.66913 348.71564L314.60663 349.45L313.62225 349.45L313.62225 340.45L314.70038 340.45L314.70038 343.8094Q315.35663 342.9969 316.51288 342.9969Q317.66913 342.9969 318.32538 343.8719Q318.98163 344.73126 318.98163 346.2625L318.98163 346.35626ZM317.9035 346.23126Q317.9035 345.1219 317.466 344.52814Q317.04413 343.91876 316.24725 343.91876Q315.16913 343.91876 314.70038 344.90314L314.70038 347.65314Q315.20038 348.65314 316.24725 348.65314Q317.0285 348.65314 317.466 348.04376Q317.9035 347.4344 317.9035 346.23126ZM321.79413 349.45L320.716 349.45L320.716 343.10626L321.79413 343.10626L321.79413 349.45ZM320.62225 341.4344Q320.62225 341.16876 320.7785 340.98126Q320.95038 340.79376 321.26288 340.79376Q321.57538 340.79376 321.73163 340.98126Q321.9035 341.16876 321.9035 341.4344Q321.9035 341.6844 321.73163 341.8719Q321.57538 342.04376 321.26288 342.04376Q320.95038 342.04376 320.7785 341.8719Q320.62225 341.6844 320.62225 341.4344ZM324.79413 349.45L323.716 349.45L323.716 340.45L324.79413 340.45L324.79413 349.45ZM327.79413 349.45L326.716 349.45L326.716 343.10626L327.79413 343.10626L327.79413 349.45ZM326.62225 341.4344Q326.62225 341.16876 326.7785 340.98126Q326.95038 340.79376 327.26288 340.79376Q327.57538 340.79376 327.73163 340.98126Q327.9035 341.16876 327.9035 341.4344Q327.9035 341.6844 327.73163 341.8719Q327.57538 342.04376 327.26288 342.04376Q326.95038 342.04376 326.7785 341.8719Q326.62225 341.6844 326.62225 341.4344ZM331.091 341.575L331.091 343.10626L332.26288 343.10626L332.26288 343.95L331.091 343.95L331.091 347.8719Q331.091 348.2625 331.24725 348.45Q331.4035 348.6375 331.7785 348.6375Q331.966 348.6375 332.29413 348.575L332.29413 349.45Q331.87225 349.575 331.466 349.575Q330.74725 349.575 330.37225 349.1375Q329.99725 348.6844 329.99725 347.8719L329.99725 343.95L328.841 343.95L328.841 343.10626L329.99725 343.10626L329.99725 341.575L331.091 341.575ZM335.68475 347.85626L337.16913 343.10626L338.32538 343.10626L335.7785 350.4344Q335.18475 352.0125 333.9035 352.0125L333.68475 351.9969L333.29413 351.91876L333.29413 351.04376L333.57538 351.0594Q334.13788 351.0594 334.43475 350.84064Q334.74725 350.6219 334.95038 350.02814L335.18475 349.3719L332.91913 343.10626L334.10663 343.10626L335.68475 347.85626Z" fill-rule="nonzero"/><path fill="#000000" d="M377.95493 345.5125L374.2518 345.5125L374.2518 348.52814L378.54868 348.52814L378.54868 349.45L373.1268 349.45L373.1268 340.91876L378.5018 340.91876L378.5018 341.84064L374.2518 341.84064L374.2518 344.59064L377.95493 344.59064L377.95493 345.5125ZM382.09555 345.41876L383.5018 343.10626L384.76743 343.10626L382.6893 346.2469L384.82993 349.45L383.57993 349.45L382.11118 347.075L380.64243 349.45L379.3768 349.45L381.51743 346.2469L379.45493 343.10626L380.70493 343.10626L382.09555 345.41876ZM391.3143 346.35626Q391.3143 347.79376 390.65805 348.6844Q390.0018 349.575 388.86118 349.575Q387.70493 349.575 387.04868 348.84064L387.04868 351.8875L385.97055 351.8875L385.97055 343.10626L386.95493 343.10626L387.0018 343.8094Q387.67368 342.9969 388.84555 342.9969Q389.98618 342.9969 390.64243 343.85626Q391.3143 344.71564 391.3143 346.2469L391.3143 346.35626ZM390.23618 346.23126Q390.23618 345.15314 389.76743 344.54376Q389.3143 343.91876 388.51743 343.91876Q387.53305 343.91876 387.04868 344.77814L387.04868 347.8094Q387.53305 348.6844 388.53305 348.6844Q389.3143 348.6844 389.76743 348.075Q390.23618 347.45 390.23618 346.23126ZM395.59555 349.575Q394.29868 349.575 393.48618 348.73126Q392.6893 347.8719 392.6893 346.45L392.6893 346.2625Q392.6893 345.3094 393.04868 344.575Q393.40805 343.825 394.04868 343.41876Q394.70493 342.9969 395.45493 342.9969Q396.6893 342.9969 397.3768 343.8094Q398.0643 344.6219 398.0643 346.1375L398.0643 346.59064L393.76743 346.59064Q393.79868 347.52814 394.3143 348.10626Q394.84555 348.6844 395.65805 348.6844Q396.22055 348.6844 396.61118 348.45Q397.01743 348.21564 397.32993 347.825L397.98618 348.34064Q397.1893 349.575 395.59555 349.575ZM395.45493 343.8875Q394.79868 343.8875 394.34555 344.3719Q393.90805 344.84064 393.8143 345.7L396.98618 345.7L396.98618 345.6219Q396.9393 344.79376 396.53305 344.34064Q396.14243 343.8875 395.45493 343.8875ZM402.03305 344.075Q401.78305 344.04376 401.5018 344.04376Q400.42368 344.04376 400.04868 344.95L400.04868 349.45L398.97055 349.45L398.97055 343.10626L400.01743 343.10626L400.03305 343.84064Q400.5643 342.9969 401.54868 342.9969Q401.86118 342.9969 402.03305 343.075L402.03305 344.075ZM404.14243 349.45L403.0643 349.45L403.0643 343.10626L404.14243 343.10626L404.14243 349.45ZM402.97055 341.4344Q402.97055 341.16876 403.1268 340.98126Q403.29868 340.79376 403.61118 340.79376Q403.92368 340.79376 404.07993 340.98126Q404.2518 341.16876 404.2518 341.4344Q404.2518 341.6844 404.07993 341.8719Q403.92368 342.04376 403.61118 342.04376Q403.29868 342.04376 403.1268 341.8719Q402.97055 341.6844 402.97055 341.4344ZM408.59555 349.575Q407.29868 349.575 406.48618 348.73126Q405.6893 347.8719 405.6893 346.45L405.6893 346.2625Q405.6893 345.3094 406.04868 344.575Q406.40805 343.825 407.04868 343.41876Q407.70493 342.9969 408.45493 342.9969Q409.6893 342.9969 410.3768 343.8094Q411.0643 344.6219 411.0643 346.1375L411.0643 346.59064L406.76743 346.59064Q406.79868 347.52814 407.3143 348.10626Q407.84555 348.6844 408.65805 348.6844Q409.22055 348.6844 409.61118 348.45Q410.01743 348.21564 410.32993 347.825L410.98618 348.34064Q410.1893 349.575 408.59555 349.575ZM408.45493 343.8875Q407.79868 343.8875 407.34555 344.3719Q406.90805 344.84064 406.8143 345.7L409.98618 345.7L409.98618 345.6219Q409.9393 344.79376 409.53305 344.34064Q409.14243 343.8875 408.45493 343.8875ZM412.98618 343.10626L413.01743 343.90314Q413.7518 342.9969 414.92368 342.9969Q416.9393 342.9969 416.95493 345.2625L416.95493 349.45L415.86118 349.45L415.86118 345.2469Q415.86118 344.575 415.54868 344.2469Q415.2518 343.91876 414.59555 343.91876Q414.0643 343.91876 413.65805 344.2Q413.26743 344.48126 413.04868 344.9344L413.04868 349.45L411.97055 349.45L411.97055 343.10626L412.98618 343.10626ZM421.5018 348.6844Q422.07993 348.6844 422.51743 348.34064Q422.95493 347.98126 423.0018 347.45L424.03305 347.45Q424.0018 347.9969 423.64243 348.4969Q423.29868 348.98126 422.72055 349.27814Q422.15805 349.575 421.5018 349.575Q420.20493 349.575 419.4393 348.71564Q418.6893 347.84064 418.6893 346.34064L418.6893 346.15314Q418.6893 345.23126 419.01743 344.5125Q419.36118 343.79376 419.98618 343.40314Q420.6268 342.9969 421.5018 342.9969Q422.5643 342.9969 423.26743 343.6375Q423.98618 344.2625 424.03305 345.29376L423.0018 345.29376Q422.95493 344.66876 422.53305 344.27814Q422.11118 343.8875 421.5018 343.8875Q420.67368 343.8875 420.22055 344.48126Q419.76743 345.075 419.76743 346.2L419.76743 346.40314Q419.76743 347.4969 420.22055 348.09064Q420.67368 348.6844 421.5018 348.6844ZM427.59555 349.575Q426.29868 349.575 425.48618 348.73126Q424.6893 347.8719 424.6893 346.45L424.6893 346.2625Q424.6893 345.3094 425.04868 344.575Q425.40805 343.825 426.04868 343.41876Q426.70493 342.9969 427.45493 342.9969Q428.6893 342.9969 429.3768 343.8094Q430.0643 344.6219 430.0643 346.1375L430.0643 346.59064L425.76743 346.59064Q425.79868 347.52814 426.3143 348.10626Q426.84555 348.6844 427.65805 348.6844Q428.22055 348.6844 428.61118 348.45Q429.01743 348.21564 429.32993 347.825L429.98618 348.34064Q429.1893 349.575 427.59555 349.575ZM427.45493 343.8875Q426.79868 343.8875 426.34555 344.3719Q425.90805 344.84064 425.8143 345.7L428.98618 345.7L428.98618 345.6219Q428.9393 344.79376 428.53305 344.34064Q428.14243 343.8875 427.45493 343.8875Z" fill-rule="nonzero"/><path fill="#006d57" d="M489.45 20.55C489.45 19.997715 489.8977 19.55 490.45 19.55L500.45 19.55C501.0023 19.55 501.45 19.997715 501.45 20.55L501.45 30.55C501.45 31.102285 501.0023 31.55 500.45 31.55L490.45 31.55C489.8977 31.55 489.45 31.102285 489.45 30.55Z" fill-rule="nonzero"/><path fill="#666666" d="M514.66876 27.503124L511.40314 27.503124L510.66876 29.55L509.60626 29.55L512.59064 21.721874L513.4969 21.721874L516.48126 29.55L515.41876 29.55L514.66876 27.503124ZM511.71564 26.659374L514.3719 26.659374L513.04376 23.003124L511.71564 26.659374ZM519.1219 28.20625L520.5594 23.7375L521.575 23.7375L519.4969 29.55L518.73126 29.55L516.6219 23.7375L517.6375 23.7375L519.1219 28.20625ZM524.60626 29.659374Q523.4344 29.659374 522.6844 28.89375Q521.95 28.1125 521.95 26.8L521.95 26.628124Q521.95 25.753124 522.27814 25.08125Q522.60626 24.39375 523.2 24.01875Q523.79376 23.628124 524.4969 23.628124Q525.6219 23.628124 526.2469 24.378124Q526.8875 25.128124 526.8875 26.51875L526.8875 26.925L522.95 26.925Q522.96564 27.784374 523.4344 28.315624Q523.91876 28.846874 524.66876 28.846874Q525.2 28.846874 525.5594 28.628124Q525.91876 28.409374 526.2 28.065624L526.8094 28.534374Q526.075 29.659374 524.60626 29.659374ZM524.4969 24.440624Q523.8875 24.440624 523.48126 24.878124Q523.075 25.315624 522.98126 26.1125L525.8875 26.1125L525.8875 26.034374Q525.84064 25.284374 525.46564 24.8625Q525.10626 24.440624 524.4969 24.440624ZM531.0125 24.628124Q530.77814 24.596874 530.52814 24.596874Q529.54376 24.596874 529.2 25.425L529.2 29.55L528.2 29.55L528.2 23.7375L529.16876 23.7375L529.1844 24.409374Q529.66876 23.628124 530.575 23.628124Q530.85626 23.628124 531.0125 23.70625L531.0125 24.628124ZM535.79376 29.55Q535.7 29.378124 535.65314 28.940624Q534.95 29.659374 533.9969 29.659374Q533.1375 29.659374 532.575 29.175Q532.02814 28.690624 532.02814 27.940624Q532.02814 27.034374 532.71564 26.534374Q533.41876 26.01875 534.66876 26.01875L535.6375 26.01875L535.6375 25.565624Q535.6375 25.05 535.325 24.7375Q535.0125 24.425 534.40314 24.425Q533.8719 24.425 533.5125 24.70625Q533.15314 24.971874 533.15314 25.346874L532.15314 25.346874Q532.15314 24.909374 532.46564 24.503124Q532.77814 24.096874 533.29376 23.8625Q533.825 23.628124 534.46564 23.628124Q535.46564 23.628124 536.02814 24.128124Q536.60626 24.628124 536.6219 25.51875L536.6219 28.190624Q536.6219 28.9875 536.825 29.45625L536.825 29.55L535.79376 29.55ZM534.1375 28.8Q534.60626 28.8 535.02814 28.565624Q535.45 28.315624 535.6375 27.925L535.6375 26.7375L534.85626 26.7375Q533.02814 26.7375 533.02814 27.8Q533.02814 28.26875 533.34064 28.534374Q533.65314 28.8 534.1375 28.8ZM537.96564 26.596874Q537.96564 25.2375 538.59064 24.440624Q539.21564 23.628124 540.2625 23.628124Q541.325 23.628124 541.91876 24.378124L541.96564 23.7375L542.8719 23.7375L542.8719 29.409374Q542.8719 30.534374 542.2 31.175Q541.54376 31.83125 540.40314 31.83125Q539.77814 31.83125 539.16876 31.565624Q538.575 31.3 538.2625 30.83125L538.77814 30.2375Q539.41876 31.034374 540.34064 31.034374Q541.0594 31.034374 541.46564 30.6125Q541.8719 30.20625 541.8719 29.471874L541.8719 28.971874Q541.27814 29.659374 540.2469 29.659374Q539.23126 29.659374 538.59064 28.846874Q537.96564 28.01875 537.96564 26.596874ZM538.96564 26.70625Q538.96564 27.690624 539.3719 28.253124Q539.77814 28.815624 540.4969 28.815624Q541.4344 28.815624 541.8719 27.95625L541.8719 25.3Q541.41876 24.471874 540.5125 24.471874Q539.77814 24.471874 539.3719 25.034374Q538.96564 25.596874 538.96564 26.70625ZM546.60626 29.659374Q545.4344 29.659374 544.6844 28.89375Q543.95 28.1125 543.95 26.8L543.95 26.628124Q543.95 25.753124 544.27814 25.08125Q544.60626 24.39375 545.2 24.01875Q545.79376 23.628124 546.4969 23.628124Q547.6219 23.628124 548.2469 24.378124Q548.8875 25.128124 548.8875 26.51875L548.8875 26.925L544.95 26.925Q544.96564 27.784374 545.4344 28.315624Q545.91876 28.846874 546.66876 28.846874Q547.2 28.846874 547.5594 28.628124Q547.91876 28.409374 548.2 28.065624L548.8094 28.534374Q548.075 29.659374 546.60626 29.659374ZM546.4969 24.440624Q545.8875 24.440624 545.48126 24.878124Q545.075 25.315624 544.98126 26.1125L547.8875 26.1125L547.8875 26.034374Q547.84064 25.284374 547.46564 24.8625Q547.10626 24.440624 546.4969 24.440624ZM555.66876 26.065624Q554.34064 25.675 553.73126 25.128124Q553.1219 24.565624 553.1219 23.753124Q553.1219 22.83125 553.85626 22.2375Q554.60626 21.628124 555.77814 21.628124Q556.59064 21.628124 557.21564 21.940624Q557.85626 22.2375 558.2 22.8Q558.54376 23.346874 558.54376 23.9875L557.5125 23.9875Q557.5125 23.284374 557.0594 22.878124Q556.60626 22.471874 555.77814 22.471874Q555.02814 22.471874 554.59064 22.815624Q554.16876 23.14375 554.16876 23.7375Q554.16876 24.221874 554.575 24.55Q554.98126 24.878124 555.95 25.159374Q556.9344 25.425 557.48126 25.753124Q558.02814 26.08125 558.29376 26.534374Q558.5594 26.971874 558.5594 27.565624Q558.5594 28.51875 557.8094 29.096874Q557.075 29.659374 555.84064 29.659374Q555.02814 29.659374 554.325 29.346874Q553.6375 29.034374 553.2625 28.503124Q552.8875 27.971874 552.8875 27.284374L553.91876 27.284374Q553.91876 27.9875 554.4344 28.409374Q554.96564 28.815624 555.84064 28.815624Q556.65314 28.815624 557.09064 28.4875Q557.52814 28.14375 557.52814 27.58125Q557.52814 27.003124 557.1219 26.690624Q556.71564 26.3625 555.66876 26.065624ZM562.52814 28.846874Q563.0594 28.846874 563.45 28.534374Q563.85626 28.20625 563.90314 27.721874L564.84064 27.721874Q564.8094 28.221874 564.4969 28.675Q564.1844 29.1125 563.65314 29.39375Q563.1219 29.659374 562.52814 29.659374Q561.34064 29.659374 560.6375 28.8625Q559.95 28.065624 559.95 26.690624L559.95 26.534374Q559.95 25.675 560.2625 25.01875Q560.575 24.3625 561.15314 24.003124Q561.73126 23.628124 562.52814 23.628124Q563.5125 23.628124 564.15314 24.221874Q564.79376 24.8 564.84064 25.7375L563.90314 25.7375Q563.85626 25.175 563.46564 24.815624Q563.09064 24.440624 562.52814 24.440624Q561.77814 24.440624 561.35626 24.9875Q560.9344 25.534374 560.9344 26.565624L560.9344 26.753124Q560.9344 27.76875 561.34064 28.315624Q561.7625 28.846874 562.52814 28.846874ZM565.9344 26.596874Q565.9344 25.7375 566.2625 25.065624Q566.60626 24.378124 567.2 24.003124Q567.8094 23.628124 568.575 23.628124Q569.7625 23.628124 570.4969 24.45625Q571.23126 25.26875 571.23126 26.64375L571.23126 26.70625Q571.23126 27.55 570.90314 28.2375Q570.575 28.909374 569.96564 29.284374Q569.3719 29.659374 568.59064 29.659374Q567.40314 29.659374 566.66876 28.846874Q565.9344 28.01875 565.9344 26.659374L565.9344 26.596874ZM566.9344 26.70625Q566.9344 27.675 567.3875 28.26875Q567.84064 28.846874 568.59064 28.846874Q569.34064 28.846874 569.77814 28.253124Q570.23126 27.659374 570.23126 26.596874Q570.23126 25.628124 569.77814 25.034374Q569.325 24.440624 568.575 24.440624Q567.84064 24.440624 567.3875 25.034374Q566.9344 25.6125 566.9344 26.70625ZM575.0125 24.628124Q574.77814 24.596874 574.52814 24.596874Q573.54376 24.596874 573.2 25.425L573.2 29.55L572.2 29.55L572.2 23.7375L573.16876 23.7375L573.1844 24.409374Q573.66876 23.628124 574.575 23.628124Q574.85626 23.628124 575.0125 23.70625L575.0125 24.628124ZM578.60626 29.659374Q577.4344 29.659374 576.6844 28.89375Q575.95 28.1125 575.95 26.8L575.95 26.628124Q575.95 25.753124 576.27814 25.08125Q576.60626 24.39375 577.2 24.01875Q577.79376 23.628124 578.4969 23.628124Q579.6219 23.628124 580.2469 24.378124Q580.8875 25.128124 580.8875 26.51875L580.8875 26.925L576.95 26.925Q576.96564 27.784374 577.4344 28.315624Q577.91876 28.846874 578.66876 28.846874Q579.2 28.846874 579.5594 28.628124Q579.91876 28.409374 580.2 28.065624L580.8094 28.534374Q580.075 29.659374 578.60626 29.659374ZM578.4969 24.440624Q577.8875 24.440624 577.48126 24.878124Q577.075 25.315624 576.98126 26.1125L579.8875 26.1125L579.8875 26.034374Q579.84064 25.284374 579.46564 24.8625Q579.10626 24.440624 578.4969 24.440624Z" fill-rule="nonzero"/></svg>